<?xml version="1.0" encoding="utf-8"?>
<!-- Generator: Adobe Illustrator 16.0.0, SVG Export Plug-In . SVG Version: 6.00 Build 0)  -->
<!DOCTYPE svg PUBLIC "-//W3C//DTD SVG 1.1//EN" "http://www.w3.org/Graphics/SVG/1.1/DTD/svg11.dtd">
<svg version="1.1" id="Layer_1" xmlns="http://www.w3.org/2000/svg" xmlns:xlink="http://www.w3.org/1999/xlink" x="0px" y="0px"
	 width="2048px" height="1536px" viewBox="0 0 2048 1536" enable-background="new 0 0 2048 1536" xml:space="preserve">
<path fill="#CDA175" d="M1045.248,444.153c1.729,34.587-15.563,48.422-50.15,53.61c-2.265,36.276,30.651,56.311,60.526,50.15
	c20.396-4.205,44.963,2.808,48.422-19.675c-15.563-13.835-24.211-99.649-55.339-84.086H1045.248z"/>
<path fill="#CDA175" d="M943.217,572.125c12.104,5.188,24.211,8.647,36.315,13.835c0,15.564-12.104,29.399-20.752,43.234
	c10.376-5.189,22.482-6.918,32.858-8.647c3.458,6.917,5.188,17.293,5.188,25.94c-24.211,1.729-48.422,22.481-65.715,1.729
	c-13.835-15.563,5.188-53.608,12.105-74.361V572.125z"/>
<path fill="#CDA175" d="M1107.505,598.065c-1.729,20.752,10.376,43.234,8.647,60.527c-1.73,15.563-17.295,24.211-22.482,39.774
	c-6.917,17.294-1.729,20.752,5.188,38.046c24.211-25.939,39.775-50.15,44.963-84.737c1.73-13.835,5.188-38.046-3.457-50.151
	c-10.377-19.023-13.836-10.376-34.588,0L1107.505,598.065z"/>
<path fill="#CDA175" d="M1044.562,804.707c0,0-5.926,89.509,0,128.342c1.359,8.907,1.398,34.89,0,43.791
	c-6.752,42.964,7.294,142.252,7.294,142.252h29.746c0,0,17.351-96.809,13.67-138.618c-1.665-18.913,2.828-31.075,4.406-41.662
	c4.734-31.767,11.667-38.812,14.973-134.922L1044.562,804.707z"/>
<path fill="#CDA175" d="M961.387,809.508c0,0,0.221,89.704,8.793,128.04c1.967,8.793,3.786,34.712,3.001,43.688
	c-3.792,43.325,17.024,141.417,17.024,141.417l29.676-2.038c0,0,10.677-97.77,4.14-139.229c-2.957-18.755,0.692-31.196,1.542-41.866
	c2.546-32.017,8.979-39.521,5.691-135.631L961.387,809.508z"/>
<path fill="#45B9BC" d="M993.368,496.034c-36.316-12.105-50.151,58.798-63.986,79.55c12.106,10.376,41.505,17.294,50.151,25.939
	c8.646,10.376,10.375,39.775,15.563,53.61c20.753,1.729,46.693,12.105,69.174,6.918c25.941-6.918,27.67-36.317,38.046-60.528
	c8.647,19.023,41.504-5.188,55.34-10.376c-12.105-17.293-8.647-41.504-19.023-58.798c-19.022-29.398-77.82,19.023-51.88,6.918
	c43.796-23.051-77.371,35.269-89.926-39.774L993.368,496.034z"/>
<path fill="#3F8484" d="M971.463,553.103c0.061,15.34,1.332,32.792,11.22,45.271c2.309,2.912,6.358-1.195,4.076-4.076
	c-8.798-11.104-9.478-27.647-9.532-41.195C977.212,549.387,971.448,549.384,971.463,553.103"/>
<path fill="#3F8484" d="M1113.663,570.671c-3.995,8.106-7.517,16.405-12.105,24.211c-1.888,3.211,3.096,6.109,4.978,2.909
	c4.588-7.806,8.109-16.104,12.104-24.212C1120.277,570.259,1115.306,567.337,1113.663,570.671"/>
<path fill="#45B9BC" d="M898.254,850.551c12.104-41.505,50.15-84.738,70.902-124.514c13.835-27.67,12.106-41.505,44.963-41.505
	c24.211,0,48.423,12.106,70.904-1.729c15.564,38.046,38.045,76.091,55.339,115.866c5.188,15.564,36.316,44.964,34.587,60.527
	c-1.729,24.211-53.609,44.963-72.633,50.151c-3.459-3.459-8.646-6.918-10.376-10.376c1.729,3.458,0,10.376,1.729,15.563
	c-17.293,6.917-53.609,19.023-60.527-3.459c-1.729,17.294-20.752,20.752-36.316,19.023c-20.752-1.729-25.939-6.917-32.857-27.67
	c-6.917,3.459-15.46,6.43-22.481,5.188C898.254,899.976,898.254,850.551,898.254,850.551z"/>
<path fill="#532C13" d="M1023.543,657.377c31.505,0,58.021-14.348,61.48,11.592c6.917,50.151-123.515,47.958-88.197-17.294
	L1023.543,657.377z"/>
<path fill="#3F8484" d="M999.235,737.376c-8.899,38.204-31.063,71.888-38.046,110.679c-0.654,3.634,4.901,5.187,5.559,1.533
	c6.981-38.791,29.146-72.475,38.046-110.68C1005.636,735.292,1000.078,733.758,999.235,737.376"/>
<path fill="#3F8484" d="M1025.073,743.331c-0.126,40.47-9.026,81.567-1.626,121.82c0.671,3.652,6.225,2.101,5.558-1.532
	c-7.29-39.651,1.708-80.41,1.832-120.288C1030.848,739.613,1025.084,739.614,1025.073,743.331"/>
<path fill="#3F8484" d="M1057.931,751.978c2.033,31.666,12.023,62.445,24.604,91.381c1.479,3.401,6.443,0.463,4.978-2.909
	c-12.147-27.94-21.854-57.901-23.817-88.472C1063.457,748.287,1057.691,748.265,1057.931,751.978"/>
<path fill="#2D1C17" d="M1097.129,354.228c-27.67-15.564-70.903-5.188-84.738,24.211c-8.646,20.752-1.729,34.587,6.917,51.88
	c10.376,22.481,29.399,24.211,39.775,38.046c3.459,3.459,3.459,20.752,5.188,25.939c5.188,13.836,15.565,19.023,20.753,29.399
	c13.834,25.94,6.917,34.587,36.316,39.775c1.729,0,8.646-6.917,13.835-8.647c3.458,0,8.646,13.835,12.104,10.377
	c6.918-1.729,19.023-20.753,20.752-29.398c5.188-17.294,8.647-38.047,3.459-51.881c-1.729-6.918-15.563-6.918-17.293-13.836
	c-1.729-6.917,8.646-15.563,6.918-24.21c-5.188-19.022-19.023-20.753-34.588-17.294c-5.188-25.939,6.917-79.55-34.587-76.091
	L1097.129,354.228z"/>
<path fill="#CDA175" d="M1079.698,1131.494c-1.808,4.181,11.211,19.831,6.02,41.984c-3.812,16.265-30.959,16.205-37.732,0.046
	c-7.456-17.787,4.922-34.446,5.05-40.562c0.079-3.761-4.204-8.247-1.179-15.001c0.437-0.974,29.746,0,29.746,0
	S1082.343,1125.377,1079.698,1131.494z"/>
<path fill="#CDA175" d="M1018.658,1133.44c-1.102,4.419,6.429,15.561,6.938,28.267c1.043,26.051-43.462,33.908-41.358,0.622
	c0.763-12.071,7.893-20.432,7.82-26.548c-0.044-3.761-4.472-8.104-1.669-14.954c0.404-0.987,29.729-0.975,29.729-0.975
	S1020.021,1127.974,1018.658,1133.44z"/>
<path fill="#757D7C" d="M949,1176c1.943-4.688,8.507-16.341,13.199-19.801c3.889-2.867,11.252-3.288,16.078-6.925
	c9.471-7.137,27.465-17.538,40.549-15.101c10.447,15.805,14.224,32.695,13,52.652C1019.763,1191.691,944.623,1194.538,949,1176"/>
<path fill="#757D7C" d="M1052,1137c12.093-4.499,29.659,7.138,40.072,12.581c12.174,6.363,25.731,20.751,11.828,29.216
	c-13.149,8.006-40.603,17.543-54.714,2.049c-5.194-5.704-4.279-19.428-4.238-26.846C1045.011,1142.697,1049.194,1145.726,1052,1137"
	/>
</svg>
