<?xml version="1.0" encoding="utf-8"?>
<!-- Generator: Adobe Illustrator 17.0.0, SVG Export Plug-In . SVG Version: 6.00 Build 0)  -->
<!DOCTYPE svg PUBLIC "-//W3C//DTD SVG 1.1//EN" "http://www.w3.org/Graphics/SVG/1.1/DTD/svg11.dtd">
<svg version="1.1" id="Layer_1" xmlns="http://www.w3.org/2000/svg" xmlns:xlink="http://www.w3.org/1999/xlink" x="0px" y="0px"
	 width="2048px" height="1536px" viewBox="0 0 2048 1536" enable-background="new 0 0 2048 1536" xml:space="preserve">
<path fill="#6B6A68" d="M-1320,598.242c0,0,197.802,47.627,933.893,54.234C349.984,659.084,7.383,389.759,662,518.762
	c596,117.451,723.113,140.322,1183.17,160.145c460.057,19.823,1437.678,52.862,1437.678,52.862l103.513,419.596L-1320,1135.645
	V598.242z"/>
<g opacity="0.3">
	<path fill="#605937" d="M91.653,683.403c6.001-33.003,47.079-80.944,77.082-83.944c39.004-3,71.703-52.664,110.707-61.665
		c48.005-12.001,92.4-48.31,137.405-33.308c30.003,12.001,218.71,77.543,221.711,113.547
		c3.457,179.383-226.896,122.377-271.901,140.379c-60.006,27.003-100.987,0-160.993,3c-36.004,6.001-270.027,141.014-297.03,105.01
		C-106.367,851.42-12.676,692.404,61.65,686.403c28.213-2.278,9.001-24.002,45.005-21.002L91.653,683.403z"/>
</g>
<g opacity="0.3">
	<path fill="#605937" d="M2248.176,887.452c6-33.003,47.079-80.944,77.082-83.944c39.004-3,71.703-52.664,110.707-61.665
		c48.005-12.001,92.4-48.31,137.405-33.308c30.003,12.001,218.71,77.543,221.711,113.547
		c3.457,179.383-226.896,122.377-271.901,140.379c-60.006,27.003-100.987,0-160.992,3c-36.004,6.001-270.027,141.014-297.03,105.011
		c-15.001-15.002,78.689-174.017,153.015-180.018c28.213-2.278,9.001-24.002,45.004-21.002L2248.176,887.452z"/>
</g>
<g opacity="0.3">
	<path fill="#605937" d="M-1012.836,592.322c48.005-12.001,258.451-42.552,303.456-27.551
		c30.003,12.001,321.964,171.901,324.965,207.904c3.457,179.383-293.04,243.516-338.045,261.518
		c-60.006,27.003-249.82-3.194-309.826-0.194c-36.004,6.001-266.487-128.958-293.49-164.962
		c-15.001-15.002-14.79-223.729,59.536-229.73C-1238.026,637.031-1051.84,601.323-1012.836,592.322z"/>
</g>
<g opacity="0.3">
	<path fill="#605937" d="M1055.733,624.365c48.005-12.001,258.451-42.552,303.456-27.551
		c30.003,12.001,321.964,171.901,324.965,207.904c3.457,179.383-293.04,243.517-338.045,261.518
		c-60.006,27.003-249.82-3.194-309.826-0.194c-36.004,6.001-266.487-128.958-293.49-164.962
		c-15.002-15.002-14.79-223.729,59.536-229.73C830.542,669.073,1016.729,633.366,1055.733,624.365z"/>
</g>
</svg>
