<?xml version="1.0" encoding="utf-8"?>
<!-- Generator: Adobe Illustrator 17.0.0, SVG Export Plug-In . SVG Version: 6.00 Build 0)  -->
<!DOCTYPE svg PUBLIC "-//W3C//DTD SVG 1.1//EN" "http://www.w3.org/Graphics/SVG/1.1/DTD/svg11.dtd">
<svg version="1.1" id="Layer_1" xmlns="http://www.w3.org/2000/svg" xmlns:xlink="http://www.w3.org/1999/xlink" x="0px" y="0px"
	 width="2048px" height="1536px" viewBox="0 0 2048 1536" enable-background="new 0 0 2048 1536" xml:space="preserve">
<g>
	<path fill="#8A8E5C" d="M1306.233,597.015c44.177-20.809,52.209,2.973,88.354,8.918c36.145,5.945,112.45-17.836,116.466,26.754
		c40.161,2.973,140.563-20.809,132.531,32.7c68.273-2.973,104.418,11.891,116.466,62.426c4.016,8.918-12.048,17.836-12.048,29.727
		c4.016,8.918,20.08,17.836,20.08,29.727c8.032,29.727,12.048,35.672-16.064,59.454c-20.08,17.836-36.145,14.863-56.225,38.645
		c-8.032,14.863,4.016,32.7-16.064,44.59c-36.145,26.754-92.37-5.945-144.579,5.945c-24.096,2.973-44.177,29.727-72.289,26.754
		c-24.096-5.945-36.145-41.618-68.273-53.508c-68.273-14.863-100.402,35.672-152.611,5.945c-20.08-8.918-28.113-32.7-56.225-44.59
		c-44.177-20.809-56.225,0-76.305-41.618c-12.048-35.672,12.048-53.508,24.096-83.235c12.048-32.7,4.016-29.727,0-59.454
		c-8.032-101.071,104.418-44.59,172.691-86.208V597.015z"/>
</g>
<g>
	<path fill="#8A8E5C" d="M489.211,768.183c-72.216-5.519-210.082,66.227-223.212,126.936c78.781,0,183.822,0,249.472-11.038
		c85.346-5.519,203.517-143.493,65.651-88.303c-19.695-38.633-65.651-33.114-105.041-22.076L489.211,768.183z"/>
</g>
</svg>
