<?xml version="1.0" encoding="utf-8"?>
<!-- Generator: Adobe Illustrator 17.0.0, SVG Export Plug-In . SVG Version: 6.00 Build 0)  -->
<!DOCTYPE svg PUBLIC "-//W3C//DTD SVG 1.1//EN" "http://www.w3.org/Graphics/SVG/1.1/DTD/svg11.dtd">
<svg version="1.1" id="Layer_1" xmlns="http://www.w3.org/2000/svg" xmlns:xlink="http://www.w3.org/1999/xlink" x="0px" y="0px"
	 width="2048px" height="1536px" viewBox="0 0 2048 1536" enable-background="new 0 0 2048 1536" xml:space="preserve">
<path fill="#775F5B" d="M1685.24,895.342V743.813h39.895v151.529c0,0,3.069-44.77,21.482-75.764c18.413-30.995,36.826,0,36.826,0
	v86.096h21.482V761.032l42.964,6.888v137.753h46.032l15.344-161.86h18.413v-61.989h21.482v37.326l12.275,14.331l-12.275,172.192
	l39.895,13.775v-89.54l33.757-68.877l24.551,39.604v80.93l49.101,3.444v-84.374h18.413v-36.159V609.504h12.275v182.523v89.54h24.551
	v-117.09h39.895v123.978l15.344,30.994l12.275-154.972l58.308-75.764v203.186l30.688-6.888v-96.427l36.826-69.432l15.344,45.326
	v99.871l21.482-10.331l15.344-265.175l33.757,82.652v192.855l15.344,10.332v-75.764h52.17v61.989l18.413,3.444V588.841h39.895
	v282.394l21.482-17.219V654.273l21.866,6.888v57.989h39.51l-21.466,148.641h39.879v-89.54l64.446-10.331v120.534l15.344-6.888
	V719.15h64.445v-130.31h36.826v282.394l30.688-6.888l18.413-127.422l30.688-3.444v86.096l27.619,3.444v-34.438l36.826,3.444v-37.882
	l27.62,13.775v-96.427l44.388-3.444v123.978l53.814,13.775l-12.275,168.748l-1411.663,55.101V895.342z"/>
<path fill="#775F5B" d="M150.451,819.097V667.569h-34.008v151.529c0,0-2.616-44.77-18.312-75.764c-15.696-30.995-31.392,0-31.392,0
	v86.096H48.427V684.788l-36.624,6.888v137.753h-39.24l-13.08-161.86h-15.696V605.58h-18.312v37.326l-10.464,14.331l10.464,172.192
	l-34.008,13.775v-89.54l-28.776-68.877l-20.928,39.604v80.93l-41.856,3.444v-84.374h-15.696v-36.159V533.259h-10.464v182.523v89.54
	h-20.928v-117.09h-34.008V812.21l-13.08,30.995l-10.464-154.972l-49.704-75.764v203.186l-26.16-6.888v-96.427l-31.392-69.432
	l-13.08,45.326v99.871l-18.312-10.331l-13.08-265.175l-28.776,82.652v192.855l-13.08,10.332V722.67h-44.472v61.989l-15.696,3.444
	V512.596h-34.008v282.394l-18.312-17.219V578.029l-18.64,6.888v57.989h-33.68l18.298,148.641h-33.994v-89.54l-54.936-10.331V812.21
	l-13.08-6.888V642.906h-54.936v-130.31h-31.392v282.394l-26.16-6.888l-15.696-127.422l-26.16-3.444v86.096l-23.544,3.444v-34.438
	l-31.392,3.444V677.9l-23.544,13.775v-96.427l-37.838-3.444v123.978l-45.873,13.775l10.464,168.748l1203.358,55.101V819.097z"/>
<path fill="#775F5B" d="M1027.514,825.802v-95.363h25.107v95.363c0,0,1.931-28.175,13.519-47.681c11.588-19.506,23.176,0,23.176,0
	v54.183h13.519v-91.028l27.039,4.335v86.693h28.97l9.657-101.865h11.588v-39.012h13.519v23.491l7.725,9.019l-7.725,108.367
	l25.107,8.669v-56.351l21.245-43.347l15.451,24.924v50.932l30.901,2.167v-53.1h11.588v-22.757v-97.53h7.725v114.869v56.351h15.451
	v-73.689h25.107v78.024l9.657,19.506l7.725-97.53l36.695-47.681v127.873l19.313-4.335v-60.685l23.176-43.696l9.657,28.525v62.853
	l13.519-6.502l9.657-166.885l21.245,52.016v121.371l9.657,6.502v-47.681h32.833v39.012l11.588,2.167V632.909h25.107v177.721
	l13.519-10.837V674.089l13.761,4.335v36.495h24.865l-13.509,93.545h25.097v-56.351l40.558-6.502v75.857l9.657-4.335V714.918h40.558
	v-82.009h23.176v177.721l19.313-4.335l11.588-80.191l19.313-2.167v54.183l17.382,2.167v-21.673l23.176,2.167v-23.841l17.382,8.669
	v-60.685l27.935-2.167v78.024l33.867,8.669l-7.725,106.199l-888.413,34.677V825.802z"/>
</svg>
