<?xml version="1.0" encoding="utf-8"?>
<!-- Generator: Adobe Illustrator 17.0.0, SVG Export Plug-In . SVG Version: 6.00 Build 0)  -->
<!DOCTYPE svg PUBLIC "-//W3C//DTD SVG 1.1//EN" "http://www.w3.org/Graphics/SVG/1.1/DTD/svg11.dtd">
<svg version="1.1" id="Layer_1" xmlns="http://www.w3.org/2000/svg" xmlns:xlink="http://www.w3.org/1999/xlink" x="0px" y="0px"
	 width="2048px" height="1536px" viewBox="0 0 2048 1536" enable-background="new 0 0 2048 1536" xml:space="preserve">
<path fill="#353535" d="M-1165.372,694.155c0,0,445.855-151.826,711.372-73.155c216,64,558.333,93.38,672.921,51.7
	c71.647-26.06,657.567-264.817,843.099-140.005c220,148,207.98,276.305,435.206,281.583c65.01,1.51,276.774-89.278,506.191-71.283
	c70.632,5.54,207.725,111.049,290.583,82.006s104.316-110.226,224-143.984s163.681,132.877,246.539,132.877
	s151.579-95.134,151.579-95.134l8,290.003L-1156,1045L-1165.372,694.155z"/>
<g opacity="0.6">
	<path fill="#282722" d="M-1115,740c-16-28-36-56-60-80c20,16,40,32,60,48c-4-28-16-48-28-72c24,24,44,56,72,76c-8-16-16-36-32-52
		c12,20,28,40,44,52c0-20,0-40-12-60c8,24,16,52,28,68c0-28-12-56-24-84c8,24,12,52,20,76c-8-32-20-64-36-92c12,32,20,64,32,96
		c-8-24-20-40-40-56c0,20,8,44,16,64c-4-32-24-68-52-88c0,36,8,72,20,100c12-32,16-72,32-104c20,28,24,60,32,92c0-32-8-68-12-100
		c20,36,32,76,52,112c4-28,0-52-8-76c0,24,4,48,12,72c0-28-8-60-16-92c8,32,16,60,28,88c0-36-12-68-20-104c8,36,8,76,12,112
		c0-28-4-56-8-84c4,28,8,56,12,84c8-32,4-72,12-104c8,24,12,56,20,80c4-28,4-64,12-88c8,28,8,56,12,88c8-28,8-60,8-88
		c4,28,8,56,12,88c8-36-4-68-8-104c8,28,8,60,20,88c4-32,0-60,0-92c4,24,12,52,24,72c8-24,4-52-4-76c8,24,12,48,24,72
		c4-32-4-60-12-88c4,32,8,68,20,100c0-32-4-60-8-92c12,28,16,60,24,88c4-28,0-60,0-88c4,28,8,60,16,84c4-20,0-48-4-76
		c0,32,0,60,8,92c0-36,0-68-8-104c0,32,4,68,8,100c8-32,8-64,8-96c12,32,16,64,24,96c8-36,4-72,12-108c8,36,12,76,16,112
		c0-28-4-56-8-88c8,28,16,52,20,76c8-24,4-52-4-76c0,28,4,56,8,84c4-24,4-52,0-76c4,36,8,72,16,108c-8-24-16-44-32-64
		c-8,36,0,76-4,112c-16-24-32-52-48-80c8,44,16,84,20,124c-4-40-20-76-32-116c8,36,12,72,20,104c0-40-12-84-24-120c4,36,4,72,8,108
		c0-32-8-64-20-92c-8,20-8,44-8,64c-8-28-16-56-32-80c4,28,8,56,16,80c-4-28-20-60-36-84c4,28,8,56,16,84c-4-32-20-64-44-88
		c4,32,12,60,16,92c-16-24-28-44-48-64c-4,28,4,52,12,76c-4-28-16-52-32-72c0,28,4,56,12,80c-4-24-16-48-32-72c4,32,8,60,20,84
		c-4-28-16-52-36-76c0,28,8,56,20,84c-12-32-40-60-68-72c4,28,16,56,28,80c-8-32-32-60-56-84c8,20,16,40,28,60c-16-28-36-56-60-80
		c12,28,28,56,40,80c-12-24-32-44-56-60c0,24,8,48,16,68c-12-28-28-52-52-68c12,24,24,48,36,68c-4-20-16-40-28-56c0,28,4,56,12,80
		c0-28,0-56-4-80c0,24,0,52,8,76c0-28-4-56-12-80c8,36,12,68,20,104c8-28,4-60,4-92c36,20,44,80,72,112c8-32,4-68,8-104
		c28,12,36,48,48,80c0-20,0-40-4-60c8,16,20,36,28,52c0-16,4-32,4-48c20,16,32,36,48,56c8-28,4-52,8-80c36,16,44,56,76,68
		c12-32,8-68,8-100c20,24,36,56,56,80c8-28-12-60-24-88c16,20,28,48,44,68c8-32-8-64-20-92c12,24,24,52,40,76c4-28-4-56-12-84
		c4,24,20,48,32,56c4-28-8-56-12-84c8,20,16,40,28,56c-8-32-24-60-36-92c8,24,20,44,32,68c4-28-16-64-32-92c8,28,20,56,40,80
		c-4-28-12-52-20-80c12,28,28,56,48,80c-8-36-28-76-28-108c24,32,32,72,52,108c-8-36-20-68-32-104c4,28,8,60,12,88c0-16,0-32-4-44
		c-12,36-28,76-56,100c-4-20-8-40-8-64c0,24,0,44,0,64c4-8,12-16,16-28c0,12-4,20-4,28L-1115,740z"/>
</g>
<g opacity="0.6">
	<path fill="#282722" d="M-1116.986,966.678c8-56,8-124-12-180c0,40,8,76,20,112c8-40,0-80-12-116c0,44,8,88,16,132
		c4-40-12-84-32-120c28,36,52,80,84,112c0-40-20-84-28-128c24,32,36,80,56,120c0-36-4-72-4-112c0,48,0,96,4,140c8-40,16-80,24-120
		c-4,36-12,72-20,108c12-40,24-88,48-124c12,44-4,92-4,140c20-40,20-88,28-132c0,36-4,72-8,108c0-40,0-80,0-120c8,36,12,72,16,108
		c0-44-4-84-8-124c8,40,8,80,12,124c4-36,12-72,20-108c4,36-4,72-12,108c12-40,24-76,32-112c8,40,0,84-8,128c8-40,12-80,28-112
		c8,28,8,60,12,88c0-36,0-76,0-112c8,36,16,76,20,116c-4-48-20-92-28-136c36,32,52,76,76,112c-4-44-28-88-40-128c20,44,32,96,40,144
		c4-48-4-96-4-140c4,40,4,76,4,116c4-40-4-88,8-124c20,28,16,72,20,108c0-36,0-68,0-100c4,24,8,52,8,80c0-36,0-72-4-108
		c12,40,12,80,16,120c12-40,8-84,8-124c4,44,4,84,12,128c8-44,4-88,0-132c8,48,8,96,20,144c16-44,0-108-8-156c8,60,8,120,8,180
		c0-32-4-60-8-92c0,44,4,92,8,136c-4-36-12-76-28-100c0,40,4,80,8,124c-8-40-20-76-36-108c-4,32,4,76,8,108c-8-36-28-76-44-112
		c12,36,20,72,32,108c-8-48-44-104-76-140c4,36,12,72,16,112c-24-32-44-68-64-96c12,36,24,72,36,108c-28-32-56-68-88-100
		c4,40,20,84,36,120c-24-40-52-80-84-112c4,36,16,68,28,100c-28-36-52-72-80-100c8,32,20,64,32,96c-20-32-44-68-72-96
		c-4,32,4,64,8,100c-20-40-44-72-68-108c12,32,24,64,36,92c-4-4-32-64-52-84c4,32,12,60,20,88c-8-20-20-40-32-60c12,28,24,60,36,88
		c-4-16-4-32-8-52c12,28,24,52,40,76c0-20,4-40,0-60c12,20,24,44,32,68c0-28-4-52-12-76c12,24,16,48,24,72c4-28,4-52,12-76
		c16,24,20,52,28,80c4-24,4-52,8-72c12,20,16,44,20,68c0-28,0-60,0-88c12,24,16,56,24,80c4-20,8-44,8-68c8,24,16,48,20,68
		c8-28,4-60,8-88c16,28,16,60,20,92c4-32,4-68,8-100c12,24,12,56,16,84c4-32,4-68,8-100c16,32,20,64,24,100c0-40-8-84,0-120
		c8,36,8,72,12,104c0-28,0-64,8-92c16,32,20,68,24,104c4-32,4-64,4-96c8,32,8,64,8,92c0-28-4-60-4-88c4,32,8,68,8,104
		c0-36-4-68,4-100c16,12,24,40,28,68c8-32,8-60,8-92c8,36,8,76,16,112c4-32-4-64,0-96c8,28,12,56,20,88c4-40-4-84-4-124
		c20,36,28,80,44,120c0-48-16-92-20-140c20,44,28,96,48,144c0-52-20-104-32-152c8,40,16,84,28,128c0-48-12-96-20-144
		c12,40,8,84,20,120c4-16,8-28,12-44c0,36-12,76-28,108c-12-20-20-44-28-64c-4,20-8,44-8,68c-8-20-24-28-32-44c-4,20-12,44-12,64
		c-12-32-24-60-44-88c8,24,20,52,28,76c-12-32-44-60-72-84c8,36,20,72,28,104c-12-36-32-68-40-108c32,36,52,84,88,116
		c12-32-4-72-12-104c28,40,36,92,52,140c0-32,0-68,0-100c12,24,16,52,24,80c4-28,4-56,8-80c12,24,20,52,32,76c12-28,12-60,20-88
		c4,28,8,56,8,84c4-32,4-68,4-100c0,24,0,48,0,72c0-32,0-60,4-88c8,28,12,60,16,92c0-36-4-72-4-108c4,40,4,80,8,120c4-36,0-72,8-104
		c8,28,12,56,12,88c0-28,0-52,0-80c8,32,8,60,8,92c0-52-12-100-28-148c-4,36,0,68,0,100c-12-56-44-108-68-156c-4,40,12,104,24,148
		c-20-52-36-112-64-156c4,32,12,72,20,104c0-40-12-84-4-120c32,40,36,96,60,144c12-32,8-76,44-88c28,32,28,76,32,116
		c0-36,0-76,4-112c0,40-4,84-12,124c0-20,0-44,8-68c0,28,0,60,0,88c8-44,16-88,40-124c20,32,16,76,28,112c12-40,8-84,16-120
		c16,40,16,88,20,132c-16-28-32-56-56-72c-12,28-20,60-32,92c-16-28-28-60-48-84c0,28,8,60,16,88c-4-36-28-72-48-100
		c16,32,36,64,60,92c0-44-20-92-36-136c24,40,36,80,52,120c-20-60-64-112-96-168c16,36,28,72,40,104c-24-48-44-104-72-152
		c-8,32-4,64,4,100c-4-44-12-92-24-132c-4,24,0,52,4,76c0-32-4-72,8-104c20,36,20,80,28,120c8-44,4-92,8-140c16,44,16,92,24,136
		c8-44,0-92-4-136c8,32,16,68,24,104c0-40-8-76-8-116c4,32,12,64,16,96c-12-32-32-68-60-92c-8,32,0,72,0,108c-32-36-52-80-80-116
		c8,32,20,64,32,96c4-36-12-80-12-116c20,36,36,76,56,112c8-40,0-84-4-128c12,32,16,68,24,100c-4-48-16-92-16-140
		c20,36,28,80,44,120c8-36-4-80-12-116c12,32,24,68,36,104c0-36-8-68-16-100c12,36,20,68,32,104c4-32-4-64-12-92c4,28,8,56,20,80
		c8-32,0-72-8-104c8,32,12,68,16,104c0-32,0-64,0-96c12,32,16,64,24,96c4-32,0-60-4-88c8,28,8,64,20,96c4-36,4-72,0-112
		c8,36,12,68,20,100c-4-32-8-64-12-100c8,36,12,72,24,104c4-36-4-72-4-108c12,36,12,72,20,108c4-32,0-68,0-100c12,32,12,68,20,100
		c8-36,0-76,4-112c4,44,8,92,12,136c0-40-4-84,8-124c16,44,12,100,12,144c0-40,0-80,8-120c8,36,8,76,8,112c0-32,0-64,4-96
		c0,24-4,52-4,76c8-24,20-44,28-64c0,24-4,52-12,76c12-32,28-64,52-92c-8,36-24,64-44,96c20-32,36-64,60-92c-12,40-36,72-60,104
		c28-36,52-80,92-104c-20,36-44,68-72,100c28-24,52-52,80-76c-16,36-44,68-68,96c24-24,44-52,68-76c-20,44-52,92-84,128
		c0-8-4-20-4-28c0,8-4,20,0,28c-24-16-44-48-68-60c4,28,8,52,24,76c12-36-4-84-8-124c4,40,4,80,4,116c0-20-4-92,0-128
		c12,36,16,84,4,124c-32-32-52-76-80-112c0,40,12,92,24,132c-8-40-28-84-44-116c4,36,12,72,20,104c0-40-8-84-16-124
		c8,40,12,84,20,124c-8-40-24-88-44-124c-4,40,0,80,0,116c-24-32-44-68-68-100c8,36,20,76,32,112c-12-36-32-72-52-108
		c4,40,12,76,24,112c-8-40-24-80-44-116c0,40,12,80,28,116c4-36,0-72,0-104c20,44-24,120-8,168c20-36,64-112,64-156
		c8,44,8,104,28,144c8-52,0-104,16-152c12,40,12,92,12,136c8-52,12-108,36-152c24,36,12,100,12,144c12-40,8-88,24-128
		c16,44,12,92,16,140c16-44,8-96,20-136c12,44,12,88,16,128c4-44,0-88,16-132c24,36,16,88,20,132c8-40,8-88,32-120c12,32,4,64,0,96
		c8-28,16-60,28-88c0,32-12,60-20,88c8-24,20-52,32-68c0,32-8,64-16,92c0-32,0-68,4-100c28,40,20,96,36,140c0-32-8-60-16-92
		c-8,32,0,76-12,108c-24-24-36-56-52-88c8,32,16,64,20,96c-4-28-16-60-36-84c-12,32-20,60-36,88c-20-20-24-60-32-88
		c-20,24-32,60-48,88c0-32,0-60,0-92c-28,36-52,76-76,108c0-40,8-80,12-120c-8,36-12,72-24,108c-8-36-12-68-24-100
		c8,52,16,100,24,148c0-44-36-96-60-140c12,40,20,76,28,112c-20-24-40-52-60-76c32,40,60,92,96,136c0-40-16-76-28-112
		c28,28,44,68,60,100c-4-40-20-84-20-124c20,28,28,60,40,92c4-28,4-56,4-84c4,32,4,64,8,100c8-36,16-76,28-108c12,28,12,68,12,100
		c8-32,12-64,24-92c8,32,0,68-8,104c12-36,16-76,32-112c8,32,4,64-4,100c20-32,28-68,44-96c-4,28-20,68-24,92c28-32,40-72,60-108
		c-4,40-16,76-28,112c16-44,24-88,36-128c4,40-4,76-8,116c12-36,16-76,36-108c4,36-4,72-8,104c4-28,12-56,28-84c8,32,8,64,8,100
		c4-28,8-56,20-80c4,24,4,48,4,72c-4-20-12-40-16-56c-4,28-4,60-8,92c-20-20-36-44-56-64c-8,24-8,52-8,80c-8-32-20-64-36-88
		c0,24,4,48,8,72c-8-24-16-52-32-76c0,20,0,44,4,68c-8-28-24-60-40-80c0,28,4,56,8,84c-16-36-36-68-60-96c-4,28,0,56,8,84
		c-20-28-40-60-64-84c-8,32,8,72,20,108c-24-36-52-76-80-100c12,36,28,72,44,104c-8-36-40-84-72-104c4,36,8,68,16,100
		L-1116.986,966.678z"/>
</g>
<g opacity="0.6">
	<path fill="#282722" d="M-322.61,801.941c-14.438-26.173-32.485-52.345-54.141-74.779c18.047,14.956,36.094,29.912,54.141,44.868
		c-3.609-26.173-14.438-44.868-25.266-67.301c21.657,22.434,39.704,52.345,64.97,71.04c-7.219-14.956-14.438-33.651-28.875-48.607
		c10.828,18.695,25.266,37.39,39.704,48.607c0-18.695,0-37.39-10.828-56.084c7.219,22.434,14.438,48.607,25.266,63.562
		c0-26.173-10.828-52.345-21.657-78.518c7.219,22.434,10.828,48.607,18.047,71.04c-7.219-29.912-18.047-59.823-32.485-85.996
		c10.828,29.912,18.047,59.823,28.875,89.735c-7.219-22.434-18.047-37.39-36.094-52.345c0,18.695,7.219,41.129,14.438,59.823
		c-3.609-29.912-21.657-63.562-46.923-82.257c0,33.651,7.219,67.301,18.047,93.474c10.828-29.912,14.438-67.301,28.875-97.213
		c18.047,26.173,21.657,56.084,28.875,85.996c0-29.912-7.219-63.562-10.828-93.474c18.047,33.651,28.875,71.04,46.923,104.691
		c3.609-26.173,0-48.607-7.219-71.04c0,22.434,3.609,44.868,10.828,67.301c0-26.173-7.219-56.084-14.438-85.996
		c7.219,29.912,14.438,56.084,25.266,82.257c0-33.651-10.828-63.562-18.047-97.213c7.219,33.651,7.219,71.04,10.828,104.691
		c0-26.173-3.609-52.345-7.219-78.518c3.609,26.173,7.219,52.345,10.828,78.518c7.219-29.912,3.609-67.301,10.828-97.213
		c7.219,22.434,10.828,52.345,18.047,74.779c3.609-26.173,3.609-59.823,10.828-82.257c7.219,26.173,7.219,52.345,10.828,82.257
		c7.219-26.173,7.219-56.084,7.219-82.257c3.609,26.173,7.219,52.345,10.828,82.257c7.219-33.651-3.609-63.562-7.219-97.213
		c7.219,26.173,7.219,56.084,18.047,82.257c3.609-29.912,0-56.084,0-85.996c3.609,22.434,10.828,48.607,21.657,67.301
		c7.219-22.434,3.609-48.607-3.609-71.04c7.219,22.434,10.828,44.868,21.657,67.301c3.609-29.912-3.609-56.084-10.828-82.257
		c3.609,29.912,7.219,63.562,18.047,93.474c0-29.912-3.609-56.084-7.219-85.996c10.828,26.173,14.438,56.084,21.657,82.257
		c3.609-26.173,0-56.084,0-82.257c3.609,26.173,7.219,56.084,14.438,78.518c3.609-18.695,0-44.868-3.609-71.04
		c0,29.912,0,56.084,7.219,85.996c0-33.651,0-63.562-7.219-97.213c0,29.912,3.609,63.562,7.219,93.474
		c7.219-29.912,7.219-59.823,7.219-89.735c10.828,29.912,14.438,59.823,21.657,89.735c7.219-33.651,3.609-67.301,10.828-100.952
		c7.219,33.651,10.828,71.04,14.438,104.691c0-26.173-3.609-52.345-7.219-82.257c7.219,26.173,14.438,48.607,18.047,71.04
		c7.219-22.434,3.609-48.607-3.609-71.04c0,26.173,3.609,52.345,7.219,78.518c3.609-22.434,3.609-48.607,0-71.04
		c3.609,33.651,7.219,67.301,14.438,100.952c-7.219-22.434-14.438-41.129-28.875-59.823c-7.219,33.651,0,71.04-3.609,104.691
		c-14.438-22.434-28.875-48.607-43.313-74.779c7.219,41.129,14.438,78.518,18.047,115.908c-3.609-37.39-18.047-71.04-28.875-108.43
		c7.219,33.651,10.828,67.301,18.047,97.213c0-37.39-10.828-78.518-21.657-112.169c3.609,33.651,3.609,67.301,7.219,100.952
		c0-29.912-7.219-59.823-18.047-85.996c-7.219,18.695-7.219,41.129-7.219,59.823c-7.219-26.173-14.438-52.345-28.875-74.779
		c3.609,26.173,7.219,52.345,14.438,74.779c-3.609-26.173-18.047-56.084-32.485-78.518c3.609,26.173,7.219,52.345,14.438,78.518
		c-3.609-29.912-18.047-59.823-39.704-82.257c3.609,29.912,10.828,56.084,14.438,85.996c-14.438-22.434-25.266-41.129-43.313-59.823
		c-3.609,26.173,3.609,48.606,10.828,71.04c-3.609-26.173-14.438-48.607-28.875-67.301c0,26.173,3.609,52.345,10.828,74.779
		c-3.609-22.434-14.438-44.868-28.875-67.301c3.609,29.912,7.219,56.084,18.047,78.518c-3.609-26.173-14.438-48.607-32.485-71.04
		c0,26.173,7.219,52.345,18.047,78.518c-10.828-29.912-36.094-56.084-61.36-67.301c3.609,26.173,14.438,52.345,25.266,74.779
		c-7.219-29.912-28.875-56.084-50.532-78.518c7.219,18.695,14.438,37.39,25.266,56.084c-14.438-26.173-32.485-52.345-54.141-74.779
		c10.828,26.173,25.266,52.345,36.094,74.779c-10.828-22.434-28.875-41.129-50.532-56.084c0,22.434,7.219,44.867,14.438,63.562
		c-10.828-26.173-25.266-48.607-46.923-63.562c10.828,22.434,21.657,44.867,32.485,63.562c-3.609-18.695-14.438-37.39-25.266-52.345
		c0,26.173,3.609,52.345,10.828,74.779c0-26.173,0-52.345-3.609-74.779c0,22.434,0,48.607,7.219,71.04
		c0-26.173-3.609-52.345-10.828-74.779c7.219,33.651,10.828,63.562,18.047,97.213c7.219-26.173,3.609-56.084,3.609-85.996
		c32.485,18.695,39.704,74.779,64.97,104.691c7.219-29.912,3.609-63.562,7.219-97.213c25.266,11.217,32.485,44.867,43.313,74.779
		c0-18.695,0-37.39-3.609-56.084c7.219,14.956,18.047,33.651,25.266,48.607c0-14.956,3.609-29.912,3.609-44.868
		c18.047,14.956,28.875,33.651,43.313,52.345c7.219-26.173,3.609-48.606,7.219-74.779c32.485,14.956,39.704,52.345,68.579,63.562
		c10.828-29.912,7.219-63.562,7.219-93.474c18.047,22.434,32.485,52.345,50.532,74.779c7.219-26.173-10.828-56.084-21.657-82.257
		c14.438,18.695,25.266,44.868,39.704,63.562c7.219-29.912-7.219-59.823-18.047-85.996c10.828,22.434,21.657,48.607,36.094,71.04
		c3.609-26.173-3.609-52.345-10.828-78.518c3.609,22.434,18.047,44.868,28.875,52.345c3.609-26.173-7.219-52.345-10.828-78.518
		c7.219,18.695,14.438,37.39,25.266,52.345c-7.219-29.912-21.657-56.084-32.485-85.996c7.219,22.434,18.047,41.129,28.875,63.562
		c3.609-26.173-14.438-59.823-28.875-85.996c7.219,26.173,18.047,52.345,36.094,74.779c-3.609-26.173-10.828-48.607-18.047-74.779
		c10.828,26.173,25.266,52.345,43.313,74.779c-7.219-33.651-25.266-71.04-25.266-100.952
		c21.657,29.912,28.875,67.301,46.923,100.952c-7.219-33.651-18.047-63.562-28.875-97.213c3.609,26.173,7.219,56.084,10.828,82.257
		c0-14.956,0-29.912-3.609-41.129c-10.828,33.651-25.266,71.04-50.532,93.474c-3.609-18.695-7.219-37.39-7.219-59.823
		c0,22.434,0,41.129,0,59.823c3.609-7.478,10.828-14.956,14.438-26.173c0,11.217-3.609,18.695-3.609,26.173L-322.61,801.941z"/>
</g>
<g opacity="0.6">
	<path fill="#282722" d="M-324.402,1013.826c7.219-52.345,7.219-115.908-10.828-168.253c0,37.39,7.219,71.04,18.047,104.691
		c7.219-37.39,0-74.779-10.828-108.43c0,41.129,7.219,82.257,14.438,123.386c3.609-37.39-10.828-78.518-28.875-112.169
		c25.266,33.651,46.923,74.779,75.798,104.691c0-37.39-18.047-78.518-25.266-119.647c21.657,29.912,32.485,74.779,50.532,112.169
		c0-33.651-3.609-67.301-3.609-104.691c0,44.868,0,89.735,3.609,130.864c7.219-37.39,14.438-74.779,21.657-112.169
		c-3.609,33.651-10.828,67.301-18.047,100.952c10.828-37.39,21.657-82.257,43.313-115.908c10.828,41.129-3.609,85.996-3.609,130.864
		c18.047-37.39,18.047-82.257,25.266-123.386c0,33.651-3.609,67.301-7.219,100.952c0-37.39,0-74.779,0-112.169
		c7.219,33.651,10.828,67.301,14.438,100.952c0-41.129-3.609-78.518-7.219-115.908c7.219,37.39,7.219,74.779,10.828,115.908
		c3.609-33.651,10.828-67.301,18.047-100.952c3.609,33.651-3.609,67.301-10.828,100.952c10.828-37.39,21.657-71.04,28.875-104.691
		c7.219,37.39,0,78.518-7.219,119.647c7.219-37.39,10.828-74.779,25.266-104.691c7.219,26.173,7.219,56.084,10.828,82.257
		c0-33.651,0-71.04,0-104.691c7.219,33.651,14.438,71.04,18.047,108.43c-3.609-44.868-18.047-85.996-25.266-127.125
		c32.485,29.912,46.923,71.04,68.579,104.691c-3.609-41.129-25.266-82.257-36.094-119.647
		c18.047,41.129,28.875,89.735,36.094,134.603c3.609-44.867-3.609-89.735-3.609-130.864c3.609,37.39,3.609,71.04,3.609,108.43
		c3.609-37.39-3.609-82.257,7.219-115.908c18.047,26.173,14.438,67.301,18.047,100.952c0-33.651,0-63.562,0-93.474
		c3.609,22.434,7.219,48.606,7.219,74.779c0-33.651,0-67.301-3.609-100.952C4.057,815.661,4.057,853.051,7.666,890.44
		c10.828-37.39,7.219-78.518,7.219-115.908c3.609,41.129,3.609,78.518,10.828,119.647c7.219-41.129,3.609-82.257,0-123.386
		c7.219,44.868,7.219,89.735,18.047,134.603c14.438-41.129,0-100.952-7.219-145.819c7.219,56.084,7.219,112.169,7.219,168.253
		c0-29.912-3.609-56.084-7.219-85.996c0,41.129,3.609,85.996,7.219,127.125c-3.609-33.651-10.828-71.04-25.266-93.474
		c0,37.39,3.609,74.779,7.219,115.908c-7.219-37.39-18.047-71.04-32.485-100.952c-3.609,29.912,3.609,71.04,7.219,100.952
		c-7.219-33.651-25.266-71.04-39.704-104.691c10.828,33.651,18.047,67.301,28.875,100.952C-17.6,942.786-50.085,890.44-78.96,856.79
		c3.609,33.651,10.828,67.301,14.438,104.691c-21.657-29.912-39.704-63.562-57.751-89.735
		c10.828,33.651,21.657,67.301,32.485,100.952c-25.266-29.912-50.532-63.562-79.408-93.474
		c3.609,37.39,18.047,78.518,32.485,112.169c-21.657-37.39-46.923-74.779-75.798-104.691c3.609,33.651,14.438,63.562,25.266,93.474
		c-25.266-33.651-46.923-67.301-72.189-93.474c7.219,29.912,18.047,59.823,28.875,89.735c-18.047-29.912-39.704-63.562-64.97-89.735
		c-3.609,29.912,3.609,59.823,7.219,93.474c-18.047-37.39-39.704-67.301-61.36-100.952c10.828,29.912,21.657,59.823,32.485,85.996
		c-3.609-3.739-28.875-59.823-46.923-78.518c3.609,29.912,10.828,56.084,18.047,82.257c-7.219-18.695-18.047-37.39-28.875-56.084
		c10.828,26.173,21.657,56.084,32.485,82.257c-3.609-14.956-3.609-29.912-7.219-48.607c10.828,26.173,21.657,48.607,36.094,71.04
		c0-18.695,3.609-37.39,0-56.084c10.828,18.695,21.657,41.129,28.875,63.562c0-26.173-3.609-48.607-10.828-71.04
		c10.828,22.434,14.438,44.868,21.657,67.301c3.609-26.173,3.609-48.607,10.828-71.04c14.438,22.434,18.047,48.607,25.266,74.779
		c3.609-22.434,3.609-48.607,7.219-67.301c10.828,18.695,14.438,41.129,18.047,63.562c0-26.173,0-56.084,0-82.257
		c10.828,22.434,14.438,52.345,21.657,74.779c3.609-18.695,7.219-41.129,7.219-63.562c7.219,22.434,14.438,44.868,18.047,63.562
		c7.219-26.173,3.609-56.084,7.219-82.257c14.438,26.173,14.438,56.084,18.047,85.996c3.609-29.912,3.609-63.562,7.219-93.474
		c10.828,22.434,10.828,52.345,14.438,78.518c3.609-29.912,3.609-63.562,7.219-93.474c14.438,29.912,18.047,59.823,21.657,93.474
		c0-37.39-7.219-78.518,0-112.169c7.219,33.651,7.219,67.301,10.828,97.213c0-26.173,0-59.823,7.219-85.996
		c14.438,29.912,18.047,63.562,21.657,97.213c3.609-29.912,3.609-59.823,3.609-89.735c7.219,29.912,7.219,59.823,7.219,85.996
		c0-26.173-3.609-56.084-3.609-82.257c3.609,29.912,7.219,63.562,7.219,97.213c0-33.651-3.609-63.562,3.609-93.474
		c14.438,11.217,21.657,37.39,25.266,63.562c7.219-29.912,7.219-56.084,7.219-85.996c7.219,33.651,7.219,71.04,14.438,104.691
		c3.609-29.912-3.609-59.823,0-89.735c7.219,26.173,10.828,52.345,18.047,82.257c3.609-37.39-3.609-78.518-3.609-115.908
		c18.047,33.651,25.266,74.779,39.704,112.169c0-44.867-14.438-85.996-18.047-130.864c18.047,41.129,25.266,89.735,43.313,134.603
		c0-48.606-18.047-97.213-28.875-142.081c7.219,37.39,14.438,78.518,25.266,119.647c0-44.868-10.828-89.735-18.047-134.603
		c10.828,37.39,7.219,78.518,18.047,112.169c3.609-14.956,7.219-26.173,10.828-41.129c0,33.651-10.828,71.04-25.266,100.952
		c-10.828-18.695-18.047-41.129-25.266-59.823c-3.609,18.695-7.219,41.129-7.219,63.562c-7.219-18.695-21.657-26.173-28.875-41.129
		c-3.609,18.695-10.828,41.129-10.828,59.823C-6.772,998.87-17.6,972.697-35.647,946.525c7.219,22.434,18.047,48.607,25.266,71.04
		c-10.828-29.912-39.704-56.084-64.97-78.518c7.219,33.651,18.047,67.301,25.266,97.213
		c-10.828-33.651-28.875-63.562-36.094-100.952c28.875,33.651,46.923,78.518,79.408,108.43
		c10.828-29.912-3.609-67.301-10.828-97.213c25.266,37.39,32.485,85.996,46.923,130.864c0-29.912,0-63.562,0-93.474
		c10.828,22.434,14.438,48.607,21.657,74.779c3.609-26.173,3.609-52.345,7.219-74.779c10.828,22.434,18.047,48.607,28.875,71.04
		c10.828-26.173,10.828-56.084,18.047-82.257c3.609,26.173,7.219,52.345,7.219,78.518c3.609-29.912,3.609-63.562,3.609-93.474
		c0,22.434,0,44.868,0,67.301c0-29.912,0-56.084,3.609-82.257c7.219,26.173,10.828,56.084,14.438,85.996
		c0-33.651-3.609-67.301-3.609-100.952c3.609,37.39,3.609,74.779,7.219,112.169c3.609-33.651,0-67.301,7.219-97.213
		c7.219,26.173,10.828,52.345,10.828,82.257c0-26.173,0-48.607,0-74.779c7.219,29.912,7.219,56.084,7.219,85.996
		c0-48.607-10.828-93.474-25.266-138.342c-3.609,33.651,0,63.562,0,93.474c-10.828-52.345-39.704-100.952-61.36-145.819
		c-3.609,37.39,10.828,97.213,21.657,138.342c-18.047-48.607-32.485-104.691-57.751-145.819
		c3.609,29.912,10.828,67.301,18.047,97.213c0-37.39-10.828-78.518-3.609-112.169c28.875,37.39,32.485,89.735,54.141,134.603
		c10.828-29.912,7.219-71.04,39.704-82.257c25.266,29.912,25.266,71.04,28.875,108.43c0-33.651,0-71.04,3.609-104.691
		c0,37.39-3.609,78.518-10.828,115.908c0-18.695,0-41.129,7.219-63.562c0,26.173,0,56.084,0,82.257
		c7.219-41.129,14.438-82.257,36.094-115.908c18.047,29.912,14.438,71.04,25.266,104.691c10.828-37.39,7.219-78.518,14.438-112.169
		c14.438,37.39,14.438,82.257,18.047,123.386c-14.438-26.173-28.875-52.345-50.532-67.301
		c-10.828,26.173-18.047,56.084-28.875,85.996c-14.438-26.173-25.266-56.084-43.313-78.518c0,26.173,7.219,56.084,14.438,82.257
		c-3.609-33.651-25.266-67.301-43.313-93.474c14.438,29.912,32.485,59.823,54.141,85.996c0-41.129-18.047-85.996-32.485-127.125
		c21.657,37.39,32.485,74.779,46.923,112.169c-18.047-56.084-57.751-104.691-86.626-157.036
		c14.438,33.651,25.266,67.301,36.094,97.213c-21.657-44.868-39.704-97.213-64.97-142.081c-7.219,29.912-3.609,59.823,3.609,93.474
		C72.636,864.268,65.417,819.4,54.589,782.01c-3.609,22.434,0,48.607,3.609,71.04c0-29.912-3.609-67.301,7.219-97.213
		c18.047,33.651,18.047,74.779,25.266,112.169c7.219-41.129,3.609-85.996,7.219-130.864c14.438,41.129,14.438,85.996,21.657,127.125
		c7.219-41.129,0-85.996-3.609-127.125c7.219,29.912,14.438,63.562,21.657,97.213c0-37.39-7.219-71.04-7.219-108.43
		c3.609,29.912,10.828,59.823,14.438,89.735c-10.828-29.912-28.875-63.562-54.141-85.996c-7.219,29.912,0,67.301,0,100.952
		c-28.875-33.651-46.923-74.779-72.189-108.43c7.219,29.912,18.047,59.823,28.875,89.735c3.609-33.651-10.828-74.779-10.828-108.43
		c18.047,33.651,32.485,71.04,50.532,104.691c7.219-37.39,0-78.518-3.609-119.647c10.828,29.912,14.438,63.562,21.657,93.474
		c-3.609-44.868-14.438-85.996-14.438-130.864c18.047,33.651,25.266,74.779,39.704,112.169c7.219-33.651-3.609-74.779-10.828-108.43
		c10.828,29.912,21.657,63.562,32.485,97.213c0-33.651-7.219-63.562-14.438-93.474c10.828,33.651,18.047,63.562,28.875,97.213
		c3.609-29.912-3.609-59.823-10.828-85.996c3.609,26.173,7.219,52.345,18.047,74.779c7.219-29.912,0-67.301-7.219-97.213
		c7.219,29.912,10.828,63.562,14.438,97.213c0-29.912,0-59.823,0-89.735c10.828,29.912,14.438,59.823,21.657,89.735
		c3.609-29.912,0-56.084-3.609-82.257c7.219,26.173,7.219,59.823,18.047,89.735c3.609-33.651,3.609-67.301,0-104.691
		c7.219,33.651,10.828,63.562,18.047,93.474c-3.609-29.912-7.219-59.823-10.828-93.474c7.219,33.651,10.828,67.301,21.657,97.213
		c3.609-33.651-3.609-67.301-3.609-100.952c10.828,33.651,10.828,67.301,18.047,100.952c3.609-29.912,0-63.562,0-93.474
		c10.828,29.912,10.828,63.562,18.047,93.474c7.219-33.651,0-71.04,3.609-104.691c3.609,41.129,7.219,85.996,10.828,127.125
		c0-37.39-3.609-78.518,7.219-115.908c14.438,41.129,10.828,93.474,10.828,134.603c0-37.39,0-74.779,7.219-112.169
		c7.219,33.651,7.219,71.04,7.219,104.691c0-29.912,0-59.823,3.609-89.735c0,22.434-3.609,48.607-3.609,71.04
		c7.219-22.434,18.047-41.129,25.266-59.823c0,22.434-3.609,48.606-10.828,71.04c10.828-29.912,25.266-59.823,46.923-85.996
		c-7.219,33.651-21.657,59.823-39.704,89.735c18.047-29.912,32.485-59.823,54.141-85.996c-10.828,37.39-32.485,67.301-54.141,97.213
		c25.266-33.651,46.923-74.779,83.017-97.213c-18.047,33.651-39.704,63.562-64.97,93.474c25.266-22.434,46.923-48.607,72.189-71.04
		c-14.438,33.651-39.704,63.562-61.36,89.735c21.657-22.434,39.704-48.606,61.36-71.04c-18.047,41.129-46.923,85.996-75.798,119.647
		c0-7.478-3.609-18.695-3.609-26.173c0,7.478-3.609,18.695,0,26.173c-21.657-14.956-39.704-44.867-61.36-56.084
		c3.609,26.173,7.219,48.607,21.657,71.04c10.828-33.651-3.609-78.518-7.219-115.908c3.609,37.39,3.609,74.779,3.609,108.43
		c0-18.695-3.609-85.996,0-119.647c10.828,33.651,14.438,78.518,3.609,115.908c-28.875-29.912-46.923-71.04-72.189-104.691
		c0,37.39,10.828,85.996,21.657,123.386c-7.219-37.39-25.266-78.518-39.704-108.43c3.609,33.651,10.828,67.301,18.047,97.213
		c0-37.39-7.219-78.518-14.438-115.908c7.219,37.39,10.828,78.518,18.047,115.908c-7.219-37.39-21.657-82.257-39.704-115.908
		c-3.609,37.39,0,74.779,0,108.43c-21.657-29.912-39.704-63.562-61.36-93.474c7.219,33.651,18.047,71.04,28.875,104.691
		c-10.828-33.651-28.875-67.301-46.923-100.952c3.609,37.39,10.828,71.04,21.657,104.691c-7.219-37.39-21.657-74.779-39.704-108.43
		c0,37.39,10.828,74.779,25.266,108.43c3.609-33.651,0-67.301,0-97.213c18.047,41.129-21.657,112.169-7.219,157.036
		c18.047-33.651,57.751-104.691,57.751-145.819c7.219,41.129,7.219,97.213,25.266,134.603c7.219-48.607,0-97.213,14.438-142.081
		c10.828,37.39,10.828,85.996,10.828,127.125c7.219-48.607,10.828-100.952,32.485-142.081
		c21.657,33.651,10.828,93.474,10.828,134.603c10.828-37.39,7.219-82.257,21.657-119.647
		c14.438,41.129,10.828,85.996,14.438,130.864c14.438-41.129,7.219-89.735,18.047-127.125
		c10.828,41.129,10.828,82.257,14.438,119.647c3.609-41.129,0-82.257,14.438-123.386c21.657,33.651,14.438,82.257,18.047,123.386
		c7.219-37.39,7.219-82.257,28.875-112.169c10.828,29.912,3.609,59.823,0,89.735c7.219-26.173,14.438-56.084,25.266-82.257
		c0,29.912-10.828,56.084-18.047,82.257c7.219-22.434,18.047-48.607,28.875-63.562c0,29.912-7.219,59.823-14.438,85.996
		c0-29.912,0-63.562,3.609-93.474c25.266,37.39,18.047,89.735,32.485,130.864c0-29.912-7.219-56.084-14.438-85.996
		c-7.219,29.912,0,71.04-10.828,100.952c-21.657-22.434-32.485-52.345-46.923-82.257c7.219,29.912,14.438,59.823,18.047,89.735
		c-3.609-26.173-14.438-56.084-32.485-78.518c-10.828,29.912-18.047,56.084-32.485,82.257
		c-18.047-18.695-21.657-56.084-28.875-82.257c-18.047,22.434-28.875,56.084-43.313,82.257c0-29.912,0-56.084,0-85.996
		c-25.266,33.651-46.923,71.04-68.579,100.952c0-37.39,7.219-74.779,10.828-112.169c-7.219,33.651-10.828,67.301-21.657,100.952
		c-7.219-33.651-10.828-63.562-21.657-93.474c7.219,48.607,14.438,93.474,21.657,138.342c0-41.129-32.485-89.735-54.141-130.864
		c10.828,37.39,18.047,71.04,25.266,104.691c-18.047-22.434-36.094-48.607-54.141-71.04c28.875,37.39,54.141,85.996,86.626,127.125
		c0-37.39-14.438-71.04-25.266-104.691c25.266,26.173,39.704,63.562,54.141,93.474c-3.609-37.39-18.047-78.518-18.047-115.908
		c18.047,26.173,25.266,56.084,36.094,85.996c3.609-26.173,3.609-52.345,3.609-78.518c3.609,29.912,3.609,59.823,7.219,93.474
		c7.219-33.651,14.438-71.04,25.266-100.952c10.828,26.173,10.828,63.562,10.828,93.474c7.219-29.912,10.828-59.823,21.657-85.996
		c7.219,29.912,0,63.562-7.219,97.213c10.828-33.651,14.438-71.04,28.875-104.691c7.219,29.912,3.609,59.823-3.609,93.474
		c18.047-29.912,25.266-63.562,39.704-89.735c-3.609,26.173-18.047,63.562-21.657,85.996
		c25.266-29.912,36.094-67.301,54.142-100.952c-3.609,37.39-14.438,71.04-25.266,104.691
		c14.438-41.129,21.657-82.257,32.485-119.647c3.609,37.39-3.609,71.04-7.219,108.43c10.828-33.651,14.438-71.04,32.485-100.952
		c3.609,33.651-3.609,67.301-7.219,97.213c3.609-26.173,10.828-52.345,25.266-78.518c7.219,29.912,7.219,59.823,7.219,93.474
		c3.609-26.173,7.219-52.345,18.047-74.779c3.609,22.434,3.609,44.868,3.609,67.301c-3.609-18.695-10.828-37.39-14.438-52.345
		c-3.609,26.173-3.609,56.084-7.219,85.996c-18.047-18.695-32.485-41.129-50.532-59.823c-7.219,22.434-7.219,48.607-7.219,74.779
		c-7.219-29.912-18.047-59.823-32.485-82.257c0,22.434,3.609,44.867,7.219,67.301c-7.219-22.434-14.438-48.607-28.875-71.04
		c0,18.695,0,41.129,3.609,63.562c-7.219-26.173-21.657-56.084-36.094-74.779c0,26.173,3.609,52.345,7.219,78.518
		c-14.438-33.651-32.485-63.562-54.141-89.735c-3.609,26.173,0,52.345,7.219,78.518c-18.047-26.173-36.094-56.084-57.751-78.518
		c-7.219,29.912,7.219,67.301,18.047,100.952c-21.657-33.651-46.923-71.04-72.189-93.474c10.828,33.651,25.266,67.301,39.704,97.213
		c-7.219-33.651-36.094-78.518-64.97-97.213c3.609,33.651,7.219,63.562,14.438,93.474L-324.402,1013.826z"/>
</g>
<g opacity="0.6">
	<path fill="#282722" d="M398.7,700.503c-15.709-36.786-35.345-73.571-58.908-105.102c19.636,21.02,39.272,42.041,58.908,63.061
		c-3.927-36.786-15.709-63.061-27.491-94.592c23.563,31.531,43.199,73.571,70.69,99.847c-7.854-21.02-15.709-47.296-31.418-68.316
		c11.782,26.276,27.491,52.551,43.199,68.316c0-26.276,0-52.551-11.782-78.826c7.854,31.531,15.709,68.316,27.491,89.337
		c0-36.786-11.782-73.571-23.563-110.357c7.854,31.531,11.782,68.316,19.636,99.847c-7.854-42.041-19.636-84.082-35.345-120.867
		c11.782,42.041,19.636,84.082,31.418,126.122c-7.854-31.531-19.636-52.551-39.272-73.571c0,26.276,7.854,57.806,15.709,84.082
		c-3.927-42.041-23.563-89.337-51.054-115.612c0,47.296,7.854,94.592,19.636,131.378c11.782-42.041,15.709-94.592,31.418-136.633
		c19.636,36.786,23.563,78.826,31.418,120.867c0-42.041-7.854-89.337-11.782-131.378c19.636,47.296,31.418,99.847,51.054,147.143
		c3.927-36.786,0-68.316-7.854-99.847c0,31.531,3.927,63.061,11.782,94.592c0-36.786-7.854-78.826-15.709-120.867
		c7.854,42.041,15.709,78.827,27.491,115.612c0-47.296-11.782-89.337-19.636-136.633c7.854,47.296,7.854,99.847,11.782,147.143
		c0-36.786-3.927-73.571-7.854-110.357c3.927,36.786,7.854,73.571,11.782,110.357c7.854-42.041,3.927-94.592,11.782-136.633
		c7.854,31.531,11.782,73.571,19.636,105.102c3.927-36.786,3.927-84.082,11.782-115.612c7.854,36.786,7.854,73.571,11.782,115.612
		c7.854-36.786,7.854-78.826,7.854-115.612c3.927,36.786,7.854,73.571,11.782,115.612c7.854-47.296-3.927-89.337-7.854-136.633
		c7.854,36.786,7.854,78.826,19.636,115.612c3.927-42.041,0-78.826,0-120.867c3.927,31.531,11.782,68.316,23.563,94.592
		c7.854-31.531,3.927-68.316-3.927-99.847c7.854,31.531,11.782,63.061,23.563,94.592c3.927-42.041-3.927-78.827-11.782-115.612
		c3.927,42.041,7.854,89.337,19.636,131.377c0-42.041-3.927-78.826-7.854-120.867c11.782,36.786,15.709,78.827,23.563,115.612
		c3.927-36.786,0-78.827,0-115.612c3.927,36.786,7.854,78.827,15.709,110.357c3.927-26.276,0-63.061-3.927-99.847
		c0,42.041,0,78.826,7.854,120.867c0-47.296,0-89.337-7.854-136.633c0,42.041,3.927,89.337,7.854,131.378
		c7.854-42.041,7.854-84.082,7.854-126.122c11.782,42.041,15.709,84.082,23.563,126.122c7.854-47.296,3.927-94.592,11.782-141.888
		c7.854,47.296,11.782,99.847,15.709,147.143c0-36.786-3.927-73.571-7.854-115.612c7.854,36.786,15.709,68.316,19.636,99.847
		c7.854-31.531,3.927-68.316-3.927-99.847c0,36.786,3.927,73.571,7.854,110.357c3.927-31.531,3.927-68.316,0-99.847
		c3.927,47.296,7.854,94.592,15.709,141.888c-7.854-31.531-15.709-57.806-31.418-84.082c-7.854,47.296,0,99.847-3.927,147.143
		c-15.709-31.531-31.418-68.316-47.127-105.102c7.854,57.806,15.709,110.357,19.636,162.908
		c-3.927-52.551-19.636-99.847-31.418-152.398c7.854,47.296,11.782,94.592,19.636,136.633c0-52.551-11.782-110.357-23.563-157.653
		c3.927,47.296,3.927,94.592,7.854,141.888c0-42.041-7.854-84.082-19.636-120.867c-7.854,26.276-7.854,57.806-7.854,84.082
		c-7.854-36.786-15.709-73.571-31.418-105.102c3.927,36.786,7.854,73.571,15.709,105.102
		c-3.927-36.786-19.636-78.826-35.345-110.357c3.927,36.786,7.854,73.571,15.709,110.357
		c-3.927-42.041-19.636-84.082-43.199-115.612c3.927,42.041,11.782,78.826,15.709,120.867
		c-15.709-31.531-27.491-57.806-47.127-84.082c-3.927,36.786,3.927,68.316,11.782,99.847c-3.927-36.786-15.709-68.316-31.418-94.592
		c0,36.786,3.927,73.571,11.782,105.102c-3.927-31.531-15.709-63.061-31.418-94.592c3.927,42.041,7.854,78.827,19.636,110.357
		c-3.927-36.786-15.709-68.316-35.345-99.847c0,36.786,7.854,73.571,19.636,110.357c-11.782-42.041-39.272-78.826-66.763-94.592
		c3.927,36.786,15.709,73.571,27.491,105.102c-7.854-42.041-31.418-78.826-54.981-110.357c7.854,26.275,15.709,52.551,27.491,78.826
		c-15.709-36.786-35.345-73.571-58.908-105.102c11.782,36.786,27.491,73.571,39.272,105.102
		c-11.782-31.531-31.418-57.806-54.981-78.826c0,31.531,7.854,63.061,15.709,89.337c-11.782-36.786-27.491-68.316-51.054-89.337
		c11.782,31.531,23.563,63.061,35.345,89.337c-3.927-26.276-15.709-52.551-27.491-73.571c0,36.786,3.927,73.571,11.782,105.102
		c0-36.786,0-73.571-3.927-105.102c0,31.531,0,68.316,7.854,99.847c0-36.786-3.927-73.571-11.782-105.102
		c7.854,47.296,11.782,89.337,19.636,136.633c7.854-36.786,3.927-78.826,3.927-120.867c35.345,26.276,43.199,105.102,70.69,147.143
		c7.854-42.041,3.927-89.337,7.854-136.633c27.491,15.765,35.345,63.061,47.127,105.102c0-26.276,0-52.551-3.927-78.827
		c7.854,21.02,19.636,47.296,27.491,68.316c0-21.02,3.927-42.041,3.927-63.061c19.636,21.02,31.418,47.296,47.127,73.571
		c7.854-36.786,3.927-68.316,7.854-105.102c35.345,21.02,43.199,73.571,74.617,89.337c11.782-42.041,7.854-89.337,7.854-131.378
		c19.636,31.531,35.345,73.571,54.981,105.102c7.854-36.786-11.782-78.826-23.563-115.612
		c15.709,26.276,27.491,63.061,43.199,89.337c7.854-42.041-7.854-84.082-19.636-120.867c11.782,31.531,23.563,68.316,39.272,99.847
		c3.927-36.786-3.927-73.571-11.782-110.357c3.927,31.531,19.636,63.061,31.418,73.571c3.927-36.786-7.854-73.571-11.782-110.357
		c7.854,26.276,15.709,52.551,27.491,73.571c-7.854-42.041-23.563-78.826-35.345-120.867c7.854,31.531,19.636,57.806,31.418,89.337
		c3.927-36.786-15.709-84.082-31.418-120.867c7.854,36.786,19.636,73.571,39.272,105.102
		c-3.927-36.786-11.782-68.316-19.636-105.102c11.782,36.786,27.491,73.571,47.127,105.102
		c-7.854-47.296-27.491-99.847-27.491-141.888c23.563,42.041,31.418,94.592,51.054,141.888
		c-7.854-47.296-19.636-89.337-31.418-136.633c3.927,36.786,7.854,78.827,11.782,115.612c0-21.02,0-42.041-3.927-57.806
		c-11.782,47.296-27.491,99.847-54.981,131.378c-3.927-26.276-7.854-52.551-7.854-84.082c0,31.531,0,57.806,0,84.082
		c3.927-10.51,11.782-21.02,15.709-36.786c0,15.765-3.927,26.276-3.927,36.786L398.7,700.503z"/>
</g>
<g opacity="0.6">
	<path fill="#282722" d="M1682.818,883.058c-7.07-39.37-17.967-79.619-33.869-115.627c14.429,24.885,28.857,49.769,43.286,74.654
		c4.413-36.731-1.184-64.978-5.604-98.346c15.902,36.008,25.622,81.379,46.528,113.144c-2.946-22.246-4.716-49.613-15.317-73.618
		c5.597,28.247,15.021,57.374,26.799,76.257c5.886-25.608,11.771-51.216,6.175-79.463c0.592,32.489,0.007,70.099,6.781,93.224
		c8.24-35.851,4.998-74.341,1.755-112.831c0.592,32.489-3.82,69.219-3.228,101.708c1.762-42.732-0.303-86.344-7.373-125.713
		c2.065,43.612,0.303,86.344,2.368,129.955c-0.592-32.489-7.366-55.614-21.794-80.499c-5.886,25.608-5.294,58.097-3.525,85.464
		c5.59-41.852-2.953-92.345-23.86-124.11c-10.594,46.094-13.534,93.948-10.291,132.438c20.899-38.333,36.498-88.669,61.225-126.123
		c10.897,40.249,5.307,82.102,3.545,124.833c9.417-40.972,12.356-88.826,17.946-130.678c8.543,50.493,8.254,104.347,16.797,154.84
		c12.067-34.971,15.303-66.58,14.711-99.069c-7.063,30.729-10.298,62.338-9.706,94.827c8.24-35.851,10.002-78.583,11.765-121.315
		c-1.762,42.732-2.347,80.342,0.895,118.832c10.594-46.094,8.529-89.706,11.469-137.559c-2.939,47.853-14.711,99.069-21.478,146.043
		c8.24-35.851,12.653-72.582,17.065-109.312c-4.412,36.731-8.825,73.461-13.238,110.192c17.072-39.213,25.016-91.308,42.088-130.522
		c0.592,32.489-4.998,74.341-4.406,106.83c12.067-34.971,22.662-81.065,37.379-110.035c-0.585,37.61-8.825,73.461-14.415,115.314
		c15.895-34.092,25.312-75.064,33.552-110.915c-4.412,36.731-8.825,73.461-14.415,115.314
		c18.249-44.335,16.184-87.946,22.951-134.92c-0.585,37.61-10.002,78.583-6.76,117.073c13.245-40.093,17.657-76.823,27.074-117.796
		c-3.235,31.609-3.821,69.219,1.776,97.466c14.718-28.97,19.13-65.701,18.538-98.189c0.592,32.489-2.643,64.098,1.776,97.466
		c13.245-40.093,13.83-77.703,14.415-115.314c-5.59,41.852-12.356,88.826-10.291,132.438c9.417-40.973,13.83-77.703,19.419-119.555
		c3.242,38.49-2.347,80.342-2.932,117.953c12.068-34.971,17.657-76.823,25.897-112.674c-4.412,36.731-10.002,78.583-9.41,111.072
		c9.713-24.728,14.126-61.459,18.538-98.189c-9.417,40.973-17.657,76.823-19.419,119.555c10.594-46.094,20.011-87.067,22.951-134.92
		c-9.417,40.973-16.184,87.946-21.774,129.799c17.072-39.213,26.489-80.186,35.906-121.158c2.065,43.612-3.524,85.464-5.287,128.196
		c18.249-44.335,25.016-91.308,43.265-135.643c-2.939,47.853-10.883,99.949-17.65,146.923c8.24-35.851,12.653-72.582,18.242-114.434
		c-0.585,37.61,0.007,70.099-3.229,101.708c14.718-28.97,19.13-65.701,18.538-98.189c-8.24,35.851-12.653,72.582-17.065,109.312
		c10.89-29.85,19.13-65.701,22.366-97.31c-6.767,46.974-13.534,93.948-16.473,141.801c-0.592-32.489-2.361-59.856-11.785-88.983
		c-18.249,44.335-22.366,97.31-36.787,142.524c-8.247-34.248-15.317-73.618-22.386-112.988
		c-5.294,58.097-9.41,111.072-17.354,163.167c7.944-52.095,3.229-101.708,3.518-155.563c-2.939,47.854-9.706,94.827-11.468,137.559
		c11.771-51.216,13.238-110.192,12.349-158.925c-6.767,46.974-17.361,93.068-24.128,140.042
		c9.417-40.973,11.179-83.704,7.937-122.194c-13.541,23.848-20.603,54.578-26.489,80.186c0.585-37.61,1.17-75.221-7.077-109.469
		c-4.412,36.731-8.825,73.461-8.233,105.95c4.412-36.731-1.48-81.222-9.727-115.47c-4.413,36.731-8.825,73.461-9.41,111.072
		c5.59-41.852-0.303-86.344-16.205-122.351c-5.59,41.852-6.175,79.463-11.764,121.315c-8.247-34.248-13.844-62.495-27.095-92.501
		c-12.067,34.971-11.475,67.46-10.883,99.949c4.413-36.731-0.007-70.099-9.431-99.226c-8.24,35.851-12.652,72.582-12.06,105.07
		c3.235-31.609-1.184-64.978-9.431-99.226c-5.59,41.852-10.002,78.583-5.583,111.951c4.413-36.731-0.007-70.099-12.081-105.227
		c-8.24,35.851-8.825,73.461-5.583,111.951c-2.065-43.612-20.617-85.62-43.878-107.143c-4.412,36.731-1.17,75.221,3.249,108.589
		c1.762-42.732-12.962-83.861-28.864-119.869c1.769,27.367,3.538,54.734,9.135,82.981c-7.07-39.37-17.967-79.619-33.869-115.627
		c3.242,38.49,10.312,77.86,14.732,111.228c-4.42-33.368-17.671-63.375-35.927-89.139c-7.063,30.729-6.471,63.218-4.702,90.585
		c-3.242-38.49-11.489-72.738-29.745-98.503c4.419,33.368,8.839,66.737,14.436,94.984c2.058-26.488-3.538-54.734-10.312-77.86
		c-8.24,35.851-12.652,72.582-12.06,105.07c8.24-35.851,16.48-71.702,19.715-103.311c-7.063,30.729-15.303,66.58-14.711,99.069
		c8.24-35.851,12.653-72.582,12.061-105.07c-2.939,47.854-8.529,89.706-11.469,137.559c15.895-34.092,21.484-75.944,30.902-116.916
		c28.561,33.525,18.559,112.108,35.934,159.238c17.072-39.213,23.839-86.187,38.26-131.401
		c23.261,21.523,20.321,69.376,22.386,112.988c5.886-25.608,11.771-51.216,13.83-77.703c2.946,22.246,8.543,50.493,11.489,72.738
		c4.708-20.486,13.245-40.093,17.953-60.579c14.429,24.885,20.025,53.132,29.449,82.258c15.895-34.092,19.13-65.701,31.198-100.672
		c29.738,28.404,25.622,81.379,52.71,103.781c20.899-38.333,27.666-85.307,37.083-126.28
		c12.074,35.128,17.967,79.619,30.041,114.747c15.895-34.092,6.175-79.463,2.932-117.953c9.424,29.127,12.666,67.617,22.09,96.743
		c17.072-39.213,11.179-83.704,7.937-122.194c4.42,33.368,7.662,71.859,15.909,106.107c12.068-34.971,12.653-72.582,13.238-110.192
		c-3.235,31.609,5.011,65.857,14.139,78.74c12.068-34.971,8.825-73.461,13.238-110.192c1.769,27.367,3.538,54.734,10.312,77.86
		c1.762-42.732-5.308-82.102-7.373-125.713c0.592,32.489,6.189,60.736,10.608,94.104c12.067-34.971,3.525-85.464-3.545-124.834
		c-0.585,37.61,2.657,76.1,14.731,111.228c4.413-36.731,3.821-69.219,4.406-106.83c3.242,38.49,10.312,77.86,22.386,112.988
		c2.939-47.854-4.426-103.468,4.991-144.44c13.548,46.251,9.431,99.226,17.974,149.718c2.939-47.853,0.874-91.465-0.014-140.198
		c-4.413,36.731-10.002,78.583-14.415,115.314c4.708-20.486,9.417-40.973,9.121-57.217c-22.077,43.455-49.158,91.152-83.012,115.723
		c2.058-26.488,4.116-52.975,11.179-83.704c-7.063,30.729-12.948,56.337-18.834,81.945c6.182-9.363,16.191-17.847,23.55-32.332
		c-3.531,15.365-9.713,24.728-12.067,34.971L1682.818,883.058z"/>
</g>
<g opacity="0.6">
	<path fill="#282722" d="M1188.538,909.137c-7.07-39.37-17.967-79.619-33.869-115.627c14.429,24.885,28.857,49.769,43.286,74.654
		c4.412-36.731-1.184-64.978-5.604-98.346c15.902,36.008,25.622,81.379,46.528,113.144c-2.946-22.246-4.715-49.613-15.317-73.618
		c5.597,28.247,15.021,57.374,26.799,76.257c5.886-25.608,11.771-51.216,6.175-79.463c0.592,32.489,0.007,70.099,6.781,93.224
		c8.24-35.851,4.998-74.341,1.755-112.831c0.592,32.489-3.821,69.219-3.229,101.708c1.762-42.732-0.303-86.344-7.373-125.713
		c2.065,43.612,0.303,86.344,2.368,129.955c-0.592-32.489-7.366-55.614-21.794-80.499c-5.886,25.608-5.294,58.097-3.525,85.464
		c5.59-41.852-2.953-92.345-23.859-124.11c-10.594,46.094-13.534,93.948-10.291,132.438c20.899-38.333,36.498-88.669,61.225-126.123
		c10.897,40.249,5.307,82.102,3.545,124.834c9.417-40.973,12.357-88.826,17.946-130.678c8.543,50.493,8.254,104.347,16.797,154.84
		c12.067-34.971,15.303-66.58,14.711-99.069c-7.063,30.729-10.298,62.338-9.706,94.827c8.24-35.851,10.002-78.583,11.764-121.315
		c-1.762,42.732-2.347,80.342,0.895,118.832c10.594-46.094,8.529-89.706,11.468-137.559c-2.939,47.854-14.711,99.069-21.478,146.043
		c8.24-35.851,12.652-72.582,17.065-109.312c-4.413,36.731-8.825,73.461-13.238,110.192c17.072-39.213,25.016-91.308,42.088-130.522
		c0.592,32.489-4.998,74.341-4.406,106.83c12.067-34.971,22.662-81.065,37.379-110.035c-0.585,37.61-8.825,73.461-14.415,115.313
		c15.895-34.092,25.312-75.064,33.552-110.915c-4.413,36.731-8.825,73.461-14.415,115.314
		c18.249-44.335,16.184-87.946,22.951-134.92c-0.585,37.61-10.002,78.583-6.76,117.073c13.245-40.093,17.657-76.823,27.074-117.796
		c-3.235,31.609-3.821,69.219,1.776,97.466c14.718-28.97,19.13-65.701,18.538-98.189c0.592,32.489-2.643,64.098,1.776,97.466
		c13.245-40.093,13.83-77.703,14.415-115.314c-5.59,41.852-12.357,88.826-10.291,132.438c9.417-40.973,13.83-77.703,19.419-119.555
		c3.242,38.49-2.347,80.342-2.932,117.953c12.067-34.971,17.657-76.823,25.897-112.674c-4.413,36.731-10.002,78.583-9.41,111.072
		c9.713-24.728,14.126-61.459,18.538-98.189c-9.417,40.972-17.657,76.823-19.419,119.555c10.594-46.094,20.011-87.067,22.951-134.92
		c-9.417,40.973-16.184,87.946-21.774,129.799c17.072-39.213,26.489-80.186,35.906-121.158c2.065,43.612-3.525,85.464-5.287,128.196
		c18.249-44.335,25.016-91.308,43.265-135.643c-2.939,47.854-10.883,99.949-17.65,146.923c8.24-35.851,12.653-72.582,18.242-114.434
		c-0.585,37.61,0.007,70.099-3.228,101.708c14.718-28.97,19.13-65.701,18.538-98.189c-8.24,35.851-12.653,72.582-17.065,109.312
		c10.89-29.85,19.13-65.701,22.366-97.31c-6.767,46.974-13.534,93.948-16.473,141.801c-0.592-32.489-2.361-59.856-11.785-88.983
		c-18.249,44.335-22.366,97.31-36.787,142.524c-8.247-34.248-15.317-73.618-22.386-112.988
		c-5.294,58.097-9.41,111.072-17.354,163.167c7.944-52.095,3.229-101.708,3.518-155.563c-2.939,47.853-9.706,94.827-11.469,137.559
		c11.771-51.216,13.238-110.192,12.35-158.925c-6.767,46.974-17.361,93.068-24.128,140.042
		c9.417-40.973,11.179-83.704,7.937-122.195c-13.541,23.848-20.603,54.578-26.489,80.186c0.585-37.61,1.17-75.221-7.077-109.469
		c-4.413,36.731-8.825,73.461-8.233,105.95c4.413-36.731-1.48-81.222-9.727-115.47c-4.412,36.731-8.825,73.461-9.41,111.072
		c5.59-41.852-0.303-86.344-16.205-122.351c-5.59,41.852-6.175,79.463-11.765,121.315c-8.247-34.248-13.844-62.495-27.095-92.501
		c-12.067,34.971-11.475,67.46-10.883,99.949c4.412-36.731-0.007-70.099-9.431-99.226c-8.24,35.851-12.652,72.582-12.06,105.07
		c3.235-31.609-1.184-64.978-9.431-99.226c-5.59,41.852-10.002,78.583-5.583,111.951c4.412-36.731-0.007-70.099-12.081-105.227
		c-8.24,35.851-8.825,73.461-5.583,111.951c-2.065-43.612-20.617-85.62-43.878-107.143c-4.413,36.731-1.17,75.221,3.249,108.589
		c1.762-42.732-12.962-83.861-28.864-119.869c1.769,27.367,3.538,54.734,9.135,82.981c-7.07-39.37-17.967-79.619-33.869-115.627
		c3.242,38.49,10.312,77.86,14.732,111.228c-4.419-33.368-17.671-63.375-35.927-89.139c-7.063,30.729-6.471,63.218-4.702,90.585
		c-3.242-38.49-11.489-72.738-29.745-98.503c4.42,33.368,8.839,66.737,14.436,94.984c2.058-26.488-3.538-54.734-10.312-77.86
		c-8.24,35.851-12.653,72.582-12.061,105.07c8.24-35.851,16.48-71.702,19.715-103.311c-7.063,30.729-15.303,66.58-14.711,99.069
		c8.24-35.851,12.652-72.582,12.06-105.07c-2.939,47.853-8.529,89.706-11.468,137.559c15.895-34.091,21.484-75.944,30.902-116.916
		c28.561,33.525,18.559,112.108,35.934,159.238c17.072-39.213,23.839-86.187,38.26-131.401
		c23.261,21.523,20.321,69.376,22.386,112.988c5.886-25.608,11.771-51.216,13.83-77.703c2.946,22.246,8.543,50.493,11.489,72.738
		c4.708-20.486,13.245-40.093,17.953-60.579c14.429,24.885,20.025,53.132,29.449,82.258c15.895-34.092,19.13-65.701,31.198-100.672
		c29.738,28.404,25.622,81.379,52.71,103.781c20.899-38.333,27.666-85.307,37.083-126.28
		c12.074,35.128,17.967,79.619,30.041,114.747c15.895-34.092,6.175-79.463,2.932-117.953c9.424,29.127,12.666,67.617,22.09,96.743
		c17.072-39.213,11.179-83.704,7.937-122.195c4.419,33.369,7.662,71.859,15.909,106.107c12.067-34.971,12.652-72.582,13.238-110.192
		c-3.235,31.609,5.012,65.857,14.14,78.739c12.068-34.971,8.825-73.461,13.238-110.192c1.769,27.367,3.538,54.734,10.312,77.86
		c1.762-42.732-5.308-82.102-7.373-125.713c0.592,32.489,6.189,60.736,10.608,94.104c12.067-34.971,3.525-85.464-3.545-124.834
		c-0.585,37.61,2.657,76.1,14.732,111.228c4.413-36.731,3.821-69.219,4.406-106.83c3.242,38.49,10.312,77.86,22.386,112.988
		c2.939-47.853-4.426-103.468,4.991-144.44c13.547,46.251,9.431,99.226,17.974,149.718c2.939-47.854,0.874-91.465-0.014-140.198
		c-4.413,36.731-10.002,78.583-14.415,115.313c4.709-20.486,9.417-40.973,9.121-57.217c-22.077,43.455-49.158,91.152-83.012,115.723
		c2.058-26.488,4.116-52.975,11.179-83.704c-7.063,30.729-12.949,56.337-18.834,81.945c6.182-9.363,16.191-17.847,23.55-32.332
		c-3.531,15.365-9.713,24.728-12.067,34.971L1188.538,909.137z"/>
</g>
<g opacity="0.6">
	<path fill="#282722" d="M419.843,980.615c7.854-73.571,7.854-162.908-11.782-236.48c0,52.551,7.854,99.847,19.636,147.143
		c7.854-52.551,0-105.102-11.782-152.398c0,57.806,7.854,115.612,15.709,173.418c3.927-52.551-11.782-110.357-31.418-157.653
		c27.491,47.296,51.054,105.102,82.472,147.143c0-52.551-19.636-110.357-27.491-168.163
		c23.563,42.041,35.345,105.102,54.981,157.653c0-47.296-3.927-94.592-3.927-147.143c0,63.061,0,126.122,3.927,183.929
		c7.854-52.551,15.709-105.102,23.563-157.653c-3.927,47.296-11.782,94.592-19.636,141.888
		c11.782-52.551,23.563-115.612,47.127-162.908c11.782,57.806-3.927,120.867-3.927,183.929
		c19.636-52.551,19.636-115.612,27.491-173.418c0,47.296-3.927,94.592-7.854,141.888c0-52.551,0-105.102,0-157.653
		c7.854,47.296,11.782,94.592,15.709,141.888c0-57.806-3.927-110.357-7.854-162.908c7.854,52.551,7.854,105.102,11.782,162.908
		c3.927-47.296,11.782-94.592,19.636-141.888c3.927,47.296-3.927,94.592-11.782,141.888c11.782-52.551,23.563-99.847,31.418-147.143
		c7.854,52.551,0,110.357-7.854,168.163c7.854-52.551,11.782-105.102,27.491-147.143c7.854,36.786,7.854,78.827,11.782,115.612
		c0-47.296,0-99.847,0-147.143c7.854,47.296,15.709,99.847,19.636,152.398c-3.927-63.061-19.636-120.867-27.491-178.673
		c35.345,42.041,51.054,99.847,74.617,147.143c-3.927-57.806-27.491-115.612-39.272-168.163
		c19.636,57.806,31.418,126.122,39.272,189.184c3.927-63.061-3.927-126.122-3.927-183.929c3.927,52.551,3.927,99.847,3.927,152.398
		c3.927-52.551-3.927-115.612,7.854-162.908c19.636,36.786,15.709,94.592,19.636,141.888c0-47.296,0-89.337,0-131.378
		c3.927,31.531,7.854,68.316,7.854,105.102c0-47.296,0-94.592-3.927-141.888c11.782,52.551,11.782,105.102,15.709,157.653
		c11.782-52.551,7.854-110.357,7.854-162.908c3.927,57.806,3.927,110.357,11.782,168.163c7.854-57.806,3.927-115.612,0-173.418
		c7.854,63.061,7.854,126.122,19.636,189.184c15.709-57.806,0-141.888-7.854-204.949c7.854,78.827,7.854,157.653,7.854,236.48
		c0-42.041-3.927-78.827-7.854-120.867c0,57.806,3.927,120.867,7.854,178.673c-3.927-47.296-11.782-99.847-27.491-131.378
		c0,52.551,3.927,105.102,7.854,162.908c-7.854-52.551-19.636-99.847-35.345-141.888c-3.927,42.041,3.927,99.847,7.854,141.888
		c-7.854-47.296-27.491-99.847-43.199-147.143c11.782,47.296,19.636,94.592,31.418,141.888
		c-7.854-63.061-43.199-136.633-74.617-183.929c3.927,47.296,11.782,94.592,15.709,147.143
		c-23.563-42.041-43.2-89.337-62.836-126.122c11.782,47.296,23.563,94.592,35.345,141.888
		c-27.491-42.041-54.981-89.337-86.399-131.378c3.927,52.551,19.636,110.357,35.345,157.653
		c-23.563-52.551-51.054-105.102-82.472-147.143c3.927,47.296,15.709,89.337,27.491,131.378
		c-27.491-47.296-51.054-94.592-78.545-131.378c7.854,42.041,19.636,84.082,31.418,126.122
		c-19.636-42.041-43.199-89.337-70.69-126.122c-3.927,42.041,3.927,84.082,7.854,131.378
		c-19.636-52.551-43.199-94.592-66.763-141.888c11.782,42.041,23.563,84.082,35.345,120.867
		c-3.927-5.255-31.418-84.082-51.054-110.357c3.927,42.041,11.782,78.826,19.636,115.612c-7.854-26.276-19.636-52.551-31.418-78.826
		c11.782,36.786,23.563,78.826,35.345,115.612c-3.927-21.02-3.927-42.041-7.854-68.316c11.782,36.786,23.563,68.316,39.272,99.847
		c0-26.275,3.927-52.551,0-78.826c11.782,26.276,23.563,57.806,31.418,89.337c0-36.786-3.927-68.316-11.782-99.847
		c11.782,31.531,15.709,63.061,23.563,94.592c3.927-36.786,3.927-68.316,11.782-99.847c15.709,31.531,19.636,68.316,27.491,105.102
		c3.927-31.531,3.927-68.316,7.854-94.592c11.782,26.276,15.709,57.806,19.636,89.337c0-36.786,0-78.827,0-115.612
		c11.782,31.531,15.709,73.571,23.563,105.102c3.927-26.276,7.854-57.806,7.854-89.337c7.854,31.531,15.709,63.061,19.636,89.337
		c7.854-36.786,3.927-78.827,7.854-115.612c15.709,36.786,15.709,78.827,19.636,120.867c3.927-42.041,3.927-89.337,7.854-131.378
		c11.782,31.531,11.782,73.571,15.709,110.357c3.927-42.041,3.927-89.337,7.854-131.378c15.709,42.041,19.636,84.082,23.563,131.378
		c0-52.551-7.854-110.357,0-157.653c7.854,47.296,7.854,94.592,11.782,136.633c0-36.786,0-84.082,7.854-120.867
		c15.709,42.041,19.636,89.337,23.563,136.633c3.927-42.041,3.927-84.082,3.927-126.122c7.854,42.041,7.854,84.082,7.854,120.867
		c0-36.786-3.927-78.827-3.927-115.612c3.927,42.041,7.854,89.337,7.854,136.633c0-47.296-3.927-89.337,3.927-131.378
		c15.709,15.765,23.563,52.551,27.491,89.337c7.854-42.041,7.854-78.827,7.854-120.867c7.854,47.296,7.854,99.847,15.709,147.143
		c3.927-42.041-3.927-84.082,0-126.122c7.854,36.786,11.782,73.571,19.636,115.612c3.927-52.551-3.927-110.357-3.927-162.908
		c19.636,47.296,27.491,105.102,43.199,157.653c0-63.061-15.709-120.867-19.636-183.929
		c19.636,57.806,27.491,126.122,47.127,189.184c0-68.316-19.636-136.633-31.418-199.694c7.854,52.551,15.709,110.357,27.491,168.163
		c0-63.061-11.782-126.122-19.636-189.184c11.782,52.551,7.854,110.357,19.636,157.653c3.927-21.02,7.854-36.786,11.782-57.806
		c0,47.296-11.782,99.847-27.491,141.888c-11.782-26.276-19.636-57.806-27.491-84.082c-3.927,26.275-7.854,57.806-7.854,89.337
		c-7.854-26.276-23.563-36.786-31.418-57.806c-3.927,26.276-11.782,57.806-11.782,84.082
		c-11.782-42.041-23.563-78.826-43.199-115.612c7.854,31.531,19.636,68.316,27.491,99.847
		c-11.782-42.041-43.199-78.826-70.69-110.357c7.854,47.296,19.636,94.592,27.491,136.633
		c-11.782-47.296-31.418-89.337-39.272-141.888c31.418,47.296,51.054,110.357,86.399,152.398
		c11.782-42.041-3.927-94.592-11.782-136.633c27.491,52.551,35.345,120.867,51.054,183.928c0-42.041,0-89.337,0-131.378
		c11.782,31.531,15.709,68.316,23.563,105.102c3.927-36.786,3.927-73.571,7.854-105.102c11.782,31.531,19.636,68.316,31.418,99.847
		c11.782-36.786,11.782-78.826,19.636-115.612c3.927,36.786,7.854,73.571,7.854,110.357c3.927-42.041,3.927-89.337,3.927-131.378
		c0,31.531,0,63.061,0,94.592c0-42.041,0-78.826,3.927-115.612c7.854,36.786,11.782,78.827,15.709,120.867
		c0-47.296-3.927-94.592-3.927-141.888c3.927,52.551,3.927,105.102,7.854,157.653c3.927-47.296,0-94.592,7.854-136.633
		c7.854,36.786,11.782,73.571,11.782,115.612c0-36.786,0-68.316,0-105.102c7.854,42.041,7.854,78.827,7.854,120.867
		c0-68.316-11.782-131.378-27.491-194.439c-3.927,47.296,0,89.337,0,131.378c-11.782-73.571-43.2-141.888-66.763-204.949
		c-3.927,52.551,11.782,136.633,23.563,194.439c-19.636-68.316-35.345-147.143-62.836-204.949
		c3.927,42.041,11.782,94.592,19.636,136.633c0-52.551-11.782-110.357-3.927-157.653c31.418,52.551,35.345,126.122,58.908,189.184
		c11.782-42.041,7.854-99.847,43.2-115.612c27.491,42.041,27.491,99.847,31.418,152.398c0-47.296,0-99.847,3.927-147.143
		c0,52.551-3.927,110.357-11.782,162.908c0-26.276,0-57.806,7.854-89.337c0,36.786,0,78.827,0,115.612
		c7.854-57.806,15.709-115.612,39.272-162.908c19.636,42.041,15.709,99.847,27.491,147.143
		c11.782-52.551,7.854-110.357,15.709-157.653c15.709,52.551,15.709,115.612,19.636,173.418
		c-15.709-36.786-31.418-73.571-54.981-94.592c-11.782,36.786-19.636,78.826-31.418,120.867
		c-15.709-36.786-27.491-78.827-47.127-110.357c0,36.786,7.854,78.826,15.709,115.612c-3.927-47.296-27.491-94.592-47.127-131.378
		c15.709,42.041,35.345,84.082,58.908,120.867c0-57.806-19.636-120.867-35.345-178.673c23.563,52.551,35.345,105.102,51.054,157.653
		c-19.636-78.827-62.836-147.143-94.253-220.714c15.709,47.296,27.491,94.592,39.272,136.633
		c-23.563-63.061-43.2-136.633-70.69-199.694c-7.854,42.041-3.927,84.082,3.927,131.378
		c-3.927-57.806-11.782-120.867-23.563-173.418c-3.927,31.531,0,68.316,3.927,99.847c0-42.041-3.927-94.592,7.854-136.633
		c19.636,47.296,19.636,105.102,27.491,157.653c7.854-57.806,3.927-120.867,7.854-183.929
		c15.709,57.806,15.709,120.867,23.563,178.673c7.854-57.806,0-120.867-3.927-178.673c7.854,42.041,15.709,89.337,23.563,136.633
		c0-52.551-7.854-99.847-7.854-152.398c3.927,42.041,11.782,84.082,15.709,126.122c-11.782-42.041-31.418-89.337-58.908-120.867
		c-7.854,42.041,0,94.592,0,141.888c-31.418-47.296-51.054-105.102-78.545-152.398c7.854,42.041,19.636,84.082,31.418,126.122
		c3.927-47.296-11.782-105.102-11.782-152.398c19.636,47.296,35.345,99.847,54.981,147.143c7.854-52.551,0-110.357-3.927-168.163
		c11.782,42.041,15.709,89.337,23.563,131.378c-3.927-63.061-15.709-120.867-15.709-183.929
		c19.636,47.296,27.491,105.102,43.199,157.653c7.854-47.296-3.927-105.102-11.782-152.398
		c11.782,42.041,23.563,89.337,35.345,136.633c0-47.296-7.854-89.337-15.709-131.378c11.782,47.296,19.636,89.337,31.418,136.633
		c3.927-42.041-3.927-84.082-11.782-120.867c3.927,36.786,7.854,73.571,19.636,105.102c7.854-42.041,0-94.592-7.854-136.633
		c7.854,42.041,11.782,89.337,15.709,136.633c0-42.041,0-84.082,0-126.122c11.782,42.041,15.709,84.082,23.563,126.122
		c3.927-42.041,0-78.826-3.927-115.612c7.854,36.786,7.854,84.082,19.636,126.122c3.927-47.296,3.927-94.592,0-147.143
		c7.854,47.296,11.782,89.337,19.636,131.378c-3.927-42.041-7.854-84.082-11.782-131.378c7.854,47.296,11.782,94.592,23.563,136.633
		c3.927-47.296-3.927-94.592-3.927-141.888c11.782,47.296,11.782,94.592,19.636,141.888c3.927-42.041,0-89.337,0-131.378
		c11.782,42.041,11.782,89.337,19.636,131.378c7.854-47.296,0-99.847,3.927-147.143c3.927,57.806,7.854,120.867,11.782,178.673
		c0-52.551-3.927-110.357,7.854-162.908c15.709,57.806,11.782,131.378,11.782,189.184c0-52.551,0-105.102,7.854-157.653
		c7.854,47.296,7.854,99.847,7.854,147.143c0-42.041,0-84.082,3.927-126.122c0,31.531-3.927,68.316-3.927,99.847
		c7.854-31.531,19.636-57.806,27.491-84.082c0,31.531-3.927,68.316-11.782,99.847c11.782-42.041,27.49-84.082,51.054-120.867
		c-7.854,47.296-23.563,84.082-43.2,126.122c19.636-42.041,35.345-84.082,58.908-120.867
		c-11.782,52.551-35.345,94.592-58.908,136.633c27.491-47.296,51.054-105.102,90.326-136.633
		c-19.636,47.296-43.2,89.337-70.69,131.378c27.491-31.531,51.054-68.316,78.545-99.847
		c-15.709,47.296-43.199,89.337-66.763,126.122c23.563-31.531,43.199-68.316,66.763-99.847
		c-19.636,57.806-51.054,120.867-82.472,168.163c0-10.51-3.927-26.276-3.927-36.786c0,10.51-3.927,26.276,0,36.786
		c-23.563-21.02-43.2-63.061-66.763-78.827c3.927,36.786,7.854,68.316,23.563,99.847c11.782-47.296-3.927-110.357-7.854-162.908
		c3.927,52.551,3.927,105.102,3.927,152.398c0-26.276-3.927-120.867,0-168.163c11.782,47.296,15.709,110.357,3.927,162.908
		c-31.418-42.041-51.054-99.847-78.544-147.143c0,52.551,11.782,120.867,23.563,173.418c-7.854-52.551-27.491-110.357-43.2-152.398
		c3.927,47.296,11.782,94.592,19.636,136.633c0-52.551-7.854-110.357-15.709-162.908c7.854,52.551,11.782,110.357,19.636,162.908
		c-7.854-52.551-23.563-115.612-43.199-162.908c-3.927,52.551,0,105.102,0,152.398c-23.563-42.041-43.199-89.337-66.763-131.378
		c7.854,47.296,19.636,99.847,31.418,147.143c-11.782-47.296-31.418-94.592-51.054-141.888
		c3.927,52.551,11.782,99.847,23.563,147.143c-7.854-52.551-23.563-105.102-43.199-152.398c0,52.551,11.782,105.102,27.491,152.398
		c3.927-47.296,0-94.592,0-136.633c19.636,57.806-23.563,157.653-7.854,220.714c19.636-47.296,62.836-147.143,62.836-204.949
		c7.854,57.806,7.854,136.633,27.491,189.184c7.854-68.316,0-136.633,15.709-199.694c11.782,52.551,11.782,120.867,11.782,178.673
		c7.854-68.316,11.782-141.888,35.345-199.694c23.563,47.296,11.782,131.378,11.782,189.184
		c11.782-52.551,7.854-115.612,23.563-168.163c15.709,57.806,11.782,120.867,15.709,183.928
		c15.709-57.806,7.854-126.122,19.636-178.673c11.782,57.806,11.782,115.612,15.709,168.163c3.927-57.806,0-115.612,15.709-173.418
		c23.563,47.296,15.709,115.612,19.636,173.418c7.854-52.551,7.854-115.612,31.418-157.653c11.782,42.041,3.927,84.082,0,126.122
		c7.854-36.786,15.709-78.827,27.491-115.612c0,42.041-11.782,78.827-19.636,115.612c7.854-31.531,19.636-68.316,31.418-89.337
		c0,42.041-7.854,84.082-15.709,120.867c0-42.041,0-89.337,3.927-131.378c27.491,52.551,19.636,126.122,35.345,183.929
		c0-42.041-7.854-78.827-15.709-120.867c-7.854,42.041,0,99.847-11.782,141.888c-23.563-31.531-35.345-73.571-51.054-115.612
		c7.854,42.041,15.709,84.082,19.636,126.122c-3.927-36.786-15.709-78.826-35.345-110.357
		c-11.782,42.041-19.636,78.827-35.345,115.612c-19.636-26.276-23.563-78.827-31.418-115.612
		c-19.636,31.531-31.418,78.827-47.127,115.612c0-42.041,0-78.827,0-120.867c-27.491,47.296-51.054,99.847-74.617,141.888
		c0-52.551,7.854-105.102,11.782-157.653c-7.854,47.296-11.782,94.592-23.563,141.888c-7.854-47.296-11.782-89.337-23.563-131.378
		c7.854,68.316,15.709,131.378,23.563,194.439c0-57.806-35.345-126.122-58.908-183.929c11.782,52.551,19.636,99.847,27.491,147.143
		c-19.636-31.531-39.272-68.316-58.908-99.847c31.418,52.551,58.908,120.867,94.253,178.673c0-52.551-15.709-99.847-27.491-147.143
		c27.491,36.786,43.2,89.337,58.908,131.378C1020.709,949.084,1005,891.278,1005,838.727
		c19.636,36.786,27.491,78.826,39.272,120.867c3.927-36.786,3.927-73.571,3.927-110.357c3.927,42.041,3.927,84.082,7.854,131.378
		c7.854-47.296,15.709-99.847,27.491-141.888c11.782,36.786,11.782,89.337,11.782,131.378
		c7.854-42.041,11.782-84.082,23.563-120.867c7.854,42.041,0,89.337-7.854,136.633c11.782-47.296,15.709-99.847,31.418-147.143
		c7.854,42.041,3.927,84.082-3.927,131.378c19.636-42.041,27.491-89.337,43.199-126.122c-3.927,36.786-19.636,89.337-23.563,120.867
		c27.491-42.041,39.272-94.592,58.908-141.888c-3.927,52.551-15.709,99.847-27.491,147.143
		c15.709-57.806,23.563-115.612,35.345-168.163c3.927,52.551-3.927,99.847-7.854,152.398
		c11.782-47.296,15.709-99.847,35.345-141.888c3.927,47.296-3.927,94.592-7.854,136.633c3.927-36.786,11.782-73.571,27.491-110.357
		c7.854,42.041,7.854,84.082,7.854,131.378c3.927-36.786,7.854-73.571,19.636-105.102c3.927,31.531,3.927,63.061,3.927,94.592
		c-3.927-26.276-11.782-52.551-15.709-73.571c-3.927,36.786-3.927,78.826-7.854,120.867c-19.636-26.276-35.345-57.806-54.981-84.082
		c-7.854,31.531-7.854,68.316-7.854,105.102c-7.854-42.041-19.636-84.082-35.345-115.612c0,31.531,3.927,63.061,7.854,94.592
		c-7.854-31.531-15.709-68.316-31.418-99.847c0,26.276,0,57.806,3.927,89.337c-7.854-36.786-23.563-78.826-39.272-105.102
		c0,36.786,3.927,73.571,7.854,110.357c-15.709-47.296-35.345-89.337-58.908-126.122c-3.927,36.786,0,73.571,7.854,110.357
		c-19.636-36.786-39.272-78.826-62.836-110.357c-7.854,42.041,7.854,94.592,19.636,141.888
		c-23.563-47.296-51.054-99.847-78.545-131.378c11.782,47.296,27.491,94.592,43.199,136.633
		c-7.854-47.296-39.272-110.357-70.69-136.633c3.927,47.296,7.854,89.337,15.709,131.378L419.843,980.615z"/>
</g>
<g opacity="0.6">
	<path fill="#282722" d="M3167.706,1062.588c-7.674-58.713-7.674-130.007,11.511-188.72c0,41.938-7.674,79.682-19.186,117.426
		c-7.674-41.938,0-83.875,11.511-121.619c0,46.131-7.674,92.263-15.349,138.394c-3.837-41.938,11.511-88.069,30.697-125.813
		c-26.86,37.744-49.883,83.875-80.58,117.426c0-41.938,19.186-88.069,26.86-134.201c-23.023,33.55-34.534,83.875-53.72,125.813
		c0-37.744,3.837-75.488,3.837-117.426c0,50.325,0,100.651-3.837,146.782c-7.674-41.938-15.349-83.875-23.023-125.813
		c3.837,37.744,11.511,75.488,19.186,113.232c-11.511-41.938-23.023-92.263-46.046-130.007
		c-11.511,46.131,3.837,96.457,3.837,146.782c-19.186-41.938-19.186-92.263-26.86-138.394c0,37.744,3.837,75.488,7.674,113.232
		c0-41.938,0-83.875,0-125.813c-7.674,37.744-11.511,75.488-15.349,113.232c0-46.131,3.837-88.069,7.674-130.007
		c-7.674,41.938-7.674,83.875-11.511,130.007c-3.837-37.744-11.511-75.488-19.186-113.232
		c-3.837,37.744,3.837,75.488,11.511,113.232c-11.511-41.938-23.023-79.682-30.697-117.426c-7.674,41.938,0,88.069,7.674,134.201
		c-7.674-41.938-11.511-83.875-26.86-117.426c-7.674,29.356-7.674,62.907-11.511,92.263c0-37.744,0-79.682,0-117.426
		c-7.674,37.744-15.349,79.682-19.186,121.619c3.837-50.325,19.186-96.457,26.86-142.588
		c-34.534,33.55-49.883,79.682-72.906,117.426c3.837-46.131,26.86-92.263,38.372-134.201
		c-19.186,46.131-30.697,100.651-38.372,150.976c-3.837-50.325,3.837-100.651,3.837-146.782
		c-3.837,41.938-3.837,79.682-3.837,121.619c-3.837-41.938,3.837-92.263-7.674-130.007c-19.186,29.356-15.349,75.488-19.186,113.232
		c0-37.744,0-71.294,0-104.844c-3.837,25.163-7.674,54.519-7.674,83.875c0-37.744,0-75.488,3.837-113.232
		c-11.511,41.938-11.511,83.875-15.349,125.813c-11.511-41.938-7.674-88.069-7.674-130.007
		c-3.837,46.131-3.837,88.069-11.511,134.201c-7.674-46.131-3.837-92.263,0-138.394c-7.674,50.325-7.674,100.651-19.186,150.976
		c-15.349-46.131,0-113.232,7.674-163.557c-7.674,62.907-7.674,125.813-7.674,188.72c0-33.55,3.837-62.907,7.674-96.457
		c0,46.131-3.837,96.457-7.674,142.588c3.837-37.744,11.511-79.682,26.86-104.844c0,41.938-3.837,83.875-7.674,130.007
		c7.674-41.938,19.186-79.682,34.534-113.232c3.837,33.55-3.837,79.682-7.674,113.232c7.674-37.744,26.86-79.682,42.209-117.426
		c-11.511,37.744-19.186,75.488-30.697,113.232c7.674-50.325,42.209-109.038,72.906-146.782
		c-3.837,37.744-11.511,75.488-15.349,117.426c23.023-33.55,42.209-71.294,61.395-100.651
		c-11.511,37.744-23.023,75.488-34.534,113.232c26.86-33.55,53.72-71.294,84.417-104.844
		c-3.837,41.938-19.186,88.069-34.534,125.813c23.023-41.938,49.883-83.875,80.58-117.426
		c-3.837,37.744-15.348,71.294-26.86,104.844c26.86-37.744,49.883-75.488,76.743-104.844c-7.674,33.55-19.186,67.1-30.697,100.651
		c19.186-33.55,42.209-71.294,69.069-100.651c3.837,33.55-3.837,67.1-7.674,104.844c19.186-41.938,42.209-75.488,65.232-113.232
		c-11.511,33.55-23.023,67.1-34.534,96.457c3.837-4.194,30.697-67.1,49.883-88.069c-3.837,33.55-11.511,62.907-19.186,92.263
		c7.674-20.969,19.186-41.938,30.697-62.907c-11.511,29.356-23.023,62.907-34.534,92.263c3.837-16.775,3.837-33.55,7.674-54.519
		c-11.511,29.356-23.023,54.519-38.372,79.682c0-20.969-3.837-41.938,0-62.907c-11.511,20.969-23.023,46.131-30.697,71.294
		c0-29.356,3.837-54.519,11.511-79.682c-11.511,25.163-15.349,50.325-23.023,75.488c-3.837-29.356-3.837-54.519-11.511-79.682
		c-15.349,25.163-19.186,54.519-26.86,83.875c-3.837-25.163-3.837-54.519-7.674-75.488c-11.511,20.969-15.349,46.132-19.186,71.294
		c0-29.356,0-62.907,0-92.263c-11.511,25.163-15.348,58.713-23.023,83.875c-3.837-20.969-7.674-46.131-7.674-71.294
		c-7.674,25.163-15.349,50.325-19.186,71.294c-7.674-29.356-3.837-62.907-7.674-92.263c-15.349,29.356-15.349,62.907-19.186,96.457
		c-3.837-33.55-3.837-71.294-7.674-104.844c-11.511,25.163-11.511,58.713-15.349,88.069c-3.837-33.55-3.837-71.294-7.674-104.844
		c-15.349,33.55-19.186,67.1-23.023,104.844c0-41.938,7.674-88.069,0-125.813c-7.674,37.744-7.674,75.488-11.511,109.038
		c0-29.356,0-67.1-7.674-96.457c-15.349,33.55-19.186,71.294-23.023,109.038c-3.837-33.55-3.837-67.1-3.837-100.651
		c-7.674,33.55-7.674,67.1-7.674,96.457c0-29.356,3.837-62.906,3.837-92.263c-3.837,33.55-7.674,71.294-7.674,109.038
		c0-37.744,3.837-71.294-3.837-104.844c-15.349,12.581-23.023,41.938-26.86,71.294c-7.674-33.55-7.674-62.907-7.674-96.457
		c-7.674,37.744-7.674,79.682-15.349,117.426c-3.837-33.55,3.837-67.1,0-100.651c-7.674,29.356-11.511,58.713-19.186,92.263
		c-3.837-41.938,3.837-88.069,3.837-130.007c-19.186,37.744-26.86,83.875-42.209,125.813c0-50.325,15.349-96.457,19.186-146.782
		c-19.186,46.131-26.86,100.651-46.046,150.976c0-54.519,19.186-109.038,30.697-159.363c-7.674,41.938-15.349,88.069-26.86,134.201
		c0-50.325,11.511-100.651,19.186-150.976c-11.511,41.938-7.674,88.069-19.186,125.813c-3.837-16.775-7.674-29.356-11.511-46.131
		c0,37.744,11.511,79.682,26.86,113.232c11.511-20.969,19.186-46.131,26.86-67.1c3.837,20.969,7.674,46.132,7.674,71.294
		c7.674-20.969,23.023-29.356,30.697-46.131c3.837,20.969,11.511,46.131,11.511,67.1c11.511-33.55,23.023-62.907,42.209-92.263
		c-7.674,25.163-19.186,54.519-26.86,79.682c11.511-33.55,42.209-62.907,69.069-88.069c-7.674,37.744-19.186,75.488-26.86,109.038
		c11.511-37.744,30.697-71.294,38.372-113.232c-30.697,37.744-49.883,88.069-84.417,121.619
		c-11.511-33.55,3.837-75.488,11.511-109.038c-26.86,41.938-34.534,96.457-49.883,146.782c0-33.55,0-71.294,0-104.844
		c-11.511,25.163-15.349,54.519-23.023,83.875c-3.837-29.356-3.837-58.713-7.674-83.875c-11.511,25.163-19.186,54.519-30.697,79.682
		c-11.511-29.356-11.511-62.906-19.186-92.263c-3.837,29.356-7.674,58.713-7.674,88.069c-3.837-33.55-3.837-71.294-3.837-104.844
		c0,25.163,0,50.325,0,75.488c0-33.55,0-62.906-3.837-92.263c-7.674,29.356-11.511,62.907-15.349,96.457
		c0-37.744,3.837-75.488,3.837-113.232c-3.837,41.938-3.837,83.875-7.674,125.813c-3.837-37.744,0-75.488-7.674-109.038
		c-7.674,29.356-11.511,58.713-11.511,92.263c0-29.356,0-54.519,0-83.875c-7.674,33.55-7.674,62.906-7.674,96.457
		c0-54.519,11.511-104.844,26.86-155.169c3.837,37.744,0,71.294,0,104.844c11.511-58.713,42.209-113.232,65.232-163.557
		c3.837,41.938-11.511,109.038-23.023,155.169c19.186-54.519,34.534-117.426,61.395-163.557
		c-3.837,33.55-11.511,75.488-19.186,109.038c0-41.938,11.511-88.069,3.837-125.813c-30.697,41.938-34.534,100.65-57.557,150.976
		c-11.511-33.55-7.674-79.682-42.209-92.263c-26.86,33.55-26.86,79.682-30.697,121.619c0-37.744,0-79.682-3.837-117.426
		c0,41.938,3.837,88.069,11.511,130.007c0-20.969,0-46.131-7.674-71.294c0,29.356,0,62.907,0,92.263
		c-7.674-46.131-15.349-92.263-38.372-130.007c-19.186,33.55-15.349,79.682-26.86,117.426
		c-11.511-41.938-7.674-88.069-15.349-125.813c-15.349,41.938-15.349,92.263-19.186,138.394
		c15.349-29.356,30.697-58.713,53.72-75.488c11.511,29.356,19.186,62.907,30.697,96.457c15.349-29.356,26.86-62.907,46.046-88.069
		c0,29.356-7.674,62.907-15.349,92.263c3.837-37.744,26.86-75.488,46.046-104.844c-15.349,33.55-34.534,67.1-57.557,96.457
		c0-46.131,19.186-96.457,34.534-142.588c-23.023,41.938-34.534,83.875-49.883,125.813c19.186-62.907,61.395-117.426,92.092-176.138
		c-15.349,37.744-26.86,75.488-38.372,109.038c23.023-50.325,42.209-109.038,69.069-159.363c7.674,33.55,3.837,67.1-3.837,104.844
		c3.837-46.131,11.511-96.457,23.023-138.394c3.837,25.163,0,54.519-3.837,79.682c0-33.55,3.837-75.488-7.674-109.038
		c-19.186,37.744-19.186,83.875-26.86,125.813c-7.674-46.132-3.837-96.457-7.674-146.782
		c-15.349,46.131-15.349,96.457-23.023,142.588c-7.674-46.131,0-96.457,3.837-142.588c-7.674,33.55-15.349,71.294-23.023,109.038
		c0-41.938,7.674-79.682,7.674-121.619c-3.837,33.55-11.511,67.1-15.349,100.651c11.511-33.55,30.697-71.294,57.557-96.457
		c7.674,33.55,0,75.488,0,113.232c30.697-37.744,49.883-83.875,76.743-121.619c-7.674,33.55-19.186,67.1-30.697,100.65
		c-3.837-37.744,11.511-83.875,11.511-121.619c-19.186,37.744-34.534,79.682-53.72,117.426c-7.674-41.938,0-88.069,3.837-134.201
		c-11.511,33.55-15.349,71.294-23.023,104.844c3.837-50.325,15.349-96.457,15.349-146.782
		c-19.186,37.744-26.86,83.875-42.209,125.813c-7.674-37.744,3.837-83.875,11.511-121.619
		c-11.511,33.55-23.023,71.294-34.534,109.038c0-37.744,7.674-71.294,15.349-104.844c-11.511,37.744-19.186,71.294-30.697,109.038
		c-3.837-33.55,3.837-67.1,11.511-96.457c-3.837,29.356-7.674,58.713-19.186,83.875c-7.674-33.55,0-75.488,7.674-109.038
		c-7.674,33.55-11.511,71.294-15.349,109.038c0-33.55,0-67.1,0-100.651c-11.511,33.55-15.349,67.1-23.023,100.651
		c-3.837-33.55,0-62.907,3.837-92.263c-7.674,29.356-7.674,67.1-19.186,100.651c-3.837-37.744-3.837-75.488,0-117.426
		c-7.674,37.744-11.511,71.294-19.186,104.844c3.837-33.55,7.674-67.1,11.511-104.844c-7.674,37.744-11.511,75.488-23.023,109.038
		c-3.837-37.744,3.837-75.488,3.837-113.232c-11.511,37.744-11.511,75.488-19.186,113.232c-3.837-33.55,0-71.294,0-104.844
		c-11.511,33.55-11.511,71.294-19.186,104.844c-7.674-37.744,0-79.682-3.837-117.426c-3.837,46.131-7.674,96.457-11.511,142.588
		c0-41.938,3.837-88.069-7.674-130.007c-15.349,46.131-11.511,104.844-11.511,150.976c0-41.938,0-83.875-7.674-125.813
		c-7.674,37.744-7.674,79.682-7.674,117.426c0-33.55,0-67.1-3.837-100.651c0,25.163,3.837,54.519,3.837,79.682
		c-7.674-25.163-19.186-46.131-26.86-67.1c0,25.163,3.837,54.519,11.511,79.682c-11.511-33.55-26.86-67.1-49.883-96.457
		c7.674,37.744,23.023,67.1,42.209,100.651c-19.186-33.55-34.534-67.1-57.557-96.457c11.511,41.938,34.534,75.488,57.557,109.038
		c-26.86-37.744-49.883-83.875-88.255-109.038c19.186,37.744,42.209,71.294,69.069,104.844
		c-26.86-25.163-49.883-54.519-76.743-79.682c15.349,37.744,42.209,71.294,65.232,100.651
		c-23.023-25.163-42.209-54.519-65.232-79.682c19.186,46.131,49.883,96.457,80.58,134.201c0-8.388,3.837-20.969,3.837-29.356
		c0,8.388,3.837,20.969,0,29.356c23.023-16.775,42.209-50.325,65.232-62.907c-3.837,29.356-7.674,54.519-23.023,79.682
		c-11.511-37.744,3.837-88.069,7.674-130.007c-3.837,41.938-3.837,83.875-3.837,121.619c0-20.969,3.837-96.457,0-134.201
		c-11.511,37.744-15.349,88.069-3.837,130.007c30.697-33.55,49.883-79.682,76.743-117.426c0,41.938-11.511,96.457-23.023,138.394
		c7.674-41.938,26.86-88.069,42.209-121.619c-3.837,37.744-11.511,75.488-19.186,109.038c0-41.938,7.674-88.069,15.349-130.007
		c-7.674,41.938-11.511,88.069-19.186,130.007c7.674-41.938,23.023-92.263,42.209-130.007c3.837,41.938,0,83.875,0,121.619
		c23.023-33.55,42.209-71.294,65.232-104.844c-7.674,37.744-19.186,79.682-30.697,117.426
		c11.511-37.744,30.697-75.488,49.883-113.232c-3.837,41.938-11.511,79.682-23.023,117.426
		c7.674-41.938,23.023-83.875,42.209-121.619c0,41.938-11.511,83.875-26.86,121.619c-3.837-37.744,0-75.488,0-109.038
		c-19.186,46.131,23.023,125.813,7.674,176.138c-19.186-37.744-61.395-117.426-61.395-163.557
		c-7.674,46.132-7.674,109.038-26.86,150.976c-7.674-54.519,0-109.038-15.349-159.363c-11.511,41.938-11.511,96.457-11.511,142.588
		c-7.674-54.519-11.511-113.232-34.534-159.363c-23.023,37.744-11.511,104.844-11.511,150.976
		c-11.511-41.938-7.674-92.263-23.023-134.201c-15.349,46.131-11.511,96.457-15.349,146.782
		c-15.349-46.131-7.674-100.651-19.186-142.588c-11.511,46.131-11.511,92.263-15.349,134.201c-3.837-46.131,0-92.263-15.349-138.394
		c-23.023,37.744-15.349,92.263-19.186,138.394c-7.674-41.938-7.674-92.263-30.697-125.813c-11.511,33.55-3.837,67.1,0,100.651
		c-7.674-29.356-15.349-62.907-26.86-92.263c0,33.55,11.511,62.907,19.186,92.263c-7.674-25.163-19.186-54.519-30.697-71.294
		c0,33.55,7.674,67.1,15.349,96.457c0-33.55,0-71.294-3.837-104.844c-26.86,41.938-19.186,100.651-34.534,146.782
		c0-33.55,7.674-62.907,15.349-96.457c7.674,33.55,0,79.682,11.511,113.232c23.023-25.163,34.534-58.713,49.883-92.263
		c-7.674,33.55-15.349,67.1-19.186,100.65c3.837-29.356,15.349-62.907,34.534-88.069c11.511,33.55,19.186,62.907,34.534,92.263
		c19.186-20.969,23.023-62.907,30.697-92.263c19.186,25.163,30.697,62.907,46.046,92.263c0-33.55,0-62.907,0-96.457
		c26.86,37.744,49.883,79.682,72.906,113.232c0-41.938-7.674-83.875-11.511-125.813c7.674,37.744,11.511,75.488,23.023,113.232
		c7.674-37.744,11.511-71.294,23.023-104.844c-7.674,54.519-15.349,104.844-23.023,155.17c0-46.131,34.534-100.651,57.557-146.782
		c-11.511,41.938-19.186,79.682-26.86,117.426c19.186-25.163,38.372-54.519,57.557-79.682
		c-30.697,41.938-57.557,96.457-92.092,142.588c0-41.938,15.349-79.682,26.86-117.426c-26.86,29.356-42.209,71.294-57.557,104.844
		c3.837-41.938,19.186-88.069,19.186-130.007c-19.186,29.356-26.86,62.907-38.372,96.457c-3.837-29.356-3.837-58.713-3.837-88.069
		c-3.837,33.55-3.837,67.1-7.674,104.844c-7.674-37.744-15.349-79.682-26.86-113.232c-11.511,29.356-11.511,71.294-11.511,104.844
		c-7.674-33.55-11.511-67.1-23.023-96.457c-7.674,33.55,0,71.294,7.674,109.038c-11.511-37.744-15.349-79.682-30.697-117.426
		c-7.674,33.55-3.837,67.1,3.837,104.844c-19.186-33.55-26.86-71.294-42.209-100.65c3.837,29.356,19.186,71.294,23.023,96.457
		c-26.86-33.55-38.372-75.488-57.557-113.232c3.837,41.938,15.349,79.682,26.86,117.426
		c-15.349-46.131-23.023-92.263-34.534-134.201c-3.837,41.938,3.837,79.682,7.674,121.619
		c-11.511-37.744-15.349-79.682-34.534-113.232c-3.837,37.744,3.837,75.488,7.674,109.038c-3.837-29.356-11.511-58.713-26.86-88.069
		c-7.674,33.55-7.674,67.1-7.674,104.844c-3.837-29.356-7.674-58.713-19.186-83.875c-3.837,25.163-3.837,50.325-3.837,75.488
		c3.837-20.969,11.511-41.938,15.349-58.713c3.837,29.356,3.837,62.907,7.674,96.457c19.186-20.969,34.534-46.131,53.72-67.1
		c7.674,25.163,7.674,54.519,7.674,83.875c7.674-33.55,19.186-67.1,34.534-92.263c0,25.163-3.837,50.325-7.674,75.488
		c7.674-25.163,15.349-54.519,30.697-79.682c0,20.969,0,46.131-3.837,71.294c7.674-29.356,23.023-62.906,38.372-83.875
		c0,29.356-3.837,58.713-7.674,88.069c15.349-37.744,34.534-71.294,57.557-100.651c3.837,29.356,0,58.713-7.674,88.069
		c19.186-29.356,38.372-62.907,61.395-88.069c7.674,33.55-7.674,75.488-19.186,113.232c23.023-37.744,49.883-79.682,76.743-104.844
		c-11.511,37.744-26.86,75.488-42.209,109.038c7.674-37.744,38.372-88.069,69.069-109.038
		c-3.837,37.744-7.674,71.294-15.349,104.844L3167.706,1062.588z"/>
</g>
<g opacity="0.6">
	<path fill="#282722" d="M2498.755,1007.017c-5.141-34.581-5.141-76.572,7.712-111.153c0,24.701-5.141,46.931-12.853,69.162
		c-5.141-24.701,0-49.401,7.712-71.632c0,27.171-5.141,54.341-10.282,81.512c-2.571-24.701,7.712-51.871,20.565-74.102
		c-17.994,22.231-33.417,49.401-53.982,69.162c0-24.701,12.853-51.871,17.994-79.042c-15.423,19.76-23.135,49.401-35.988,74.102
		c0-22.23,2.571-44.461,2.571-69.162c0,29.641,0,59.281-2.571,86.452c-5.141-24.701-10.282-49.401-15.423-74.102
		c2.571,22.231,7.712,44.461,12.853,66.692c-7.712-24.701-15.423-54.341-30.847-76.572c-7.712,27.171,2.571,56.811,2.571,86.452
		c-12.853-24.701-12.853-54.341-17.994-81.512c0,22.23,2.571,44.461,5.141,66.691c0-24.701,0-49.401,0-74.102
		c-5.141,22.231-7.712,44.461-10.282,66.692c0-27.171,2.571-51.871,5.141-76.572c-5.141,24.701-5.141,49.401-7.712,76.572
		c-2.571-22.231-7.712-44.461-12.853-66.692c-2.571,22.231,2.571,44.461,7.712,66.692c-7.712-24.701-15.423-46.931-20.564-69.162
		c-5.141,24.701,0,51.871,5.141,79.042c-5.141-24.701-7.712-49.401-17.994-69.161c-5.141,17.29-5.141,37.051-7.712,54.341
		c0-22.23,0-46.931,0-69.162c-5.141,22.231-10.282,46.931-12.853,71.632c2.571-29.641,12.853-56.811,17.994-83.982
		c-23.135,19.76-33.417,46.931-48.841,69.162c2.571-27.171,17.994-54.341,25.706-79.042c-12.853,27.171-20.564,59.281-25.706,88.922
		c-2.571-29.641,2.571-59.281,2.571-86.452c-2.571,24.701-2.571,46.931-2.571,71.632c-2.571-24.701,2.571-54.341-5.141-76.572
		c-12.853,17.29-10.282,44.461-12.853,66.692c0-22.231,0-41.991,0-61.751c-2.571,14.82-5.141,32.111-5.141,49.401
		c0-22.231,0-44.461,2.571-66.692c-7.712,24.701-7.712,49.401-10.282,74.102c-7.712-24.701-5.141-51.871-5.141-76.572
		c-2.571,27.171-2.571,51.871-7.712,79.042c-5.141-27.171-2.571-54.341,0-81.512c-5.141,29.641-5.141,59.281-12.853,88.922
		c-10.282-27.171,0-66.692,5.141-96.332c-5.141,37.051-5.141,74.102-5.141,111.153c0-19.76,2.571-37.051,5.141-56.811
		c0,27.171-2.571,56.811-5.141,83.982c2.571-22.23,7.712-46.931,17.994-61.751c0,24.701-2.571,49.401-5.141,76.572
		c5.141-24.701,12.853-46.931,23.135-66.691c2.571,19.76-2.571,46.931-5.141,66.691c5.141-22.23,17.994-46.931,28.276-69.161
		c-7.712,22.23-12.853,44.461-20.565,66.691c5.141-29.641,28.276-64.221,48.841-86.452c-2.571,22.23-7.712,44.461-10.282,69.161
		c15.423-19.76,28.276-41.991,41.129-59.281c-7.712,22.231-15.423,44.461-23.135,66.691c17.994-19.76,35.988-41.991,56.552-61.751
		c-2.571,24.701-12.853,51.871-23.135,74.102c15.423-24.701,33.417-49.401,53.982-69.161c-2.571,22.23-10.282,41.991-17.994,61.751
		c17.994-22.23,33.417-44.461,51.411-61.751c-5.141,19.76-12.853,39.521-20.565,59.281c12.853-19.76,28.276-41.991,46.27-59.281
		c2.571,19.76-2.571,39.521-5.141,61.751c12.853-24.701,28.276-44.461,43.7-66.691c-7.712,19.76-15.423,39.521-23.135,56.811
		c2.571-2.47,20.565-39.521,33.417-51.871c-2.571,19.76-7.712,37.051-12.853,54.341c5.141-12.35,12.853-24.701,20.564-37.051
		c-7.712,17.29-15.423,37.051-23.135,54.341c2.571-9.88,2.571-19.76,5.141-32.111c-7.712,17.29-15.423,32.111-25.706,46.931
		c0-12.35-2.571-24.701,0-37.051c-7.712,12.35-15.423,27.171-20.564,41.991c0-17.29,2.571-32.111,7.712-46.931
		c-7.712,14.82-10.282,29.641-15.423,44.461c-2.571-17.29-2.571-32.111-7.712-46.931c-10.282,14.82-12.853,32.111-17.994,49.401
		c-2.571-14.82-2.571-32.111-5.141-44.461c-7.712,12.35-10.282,27.171-12.853,41.991c0-17.29,0-37.051,0-54.341
		c-7.712,14.82-10.282,34.581-15.423,49.401c-2.571-12.35-5.141-27.171-5.141-41.991c-5.141,14.82-10.282,29.641-12.853,41.991
		c-5.141-17.29-2.571-37.051-5.141-54.341c-10.282,17.29-10.282,37.051-12.853,56.811c-2.571-19.76-2.571-41.991-5.141-61.751
		c-7.712,14.82-7.712,34.581-10.282,51.871c-2.571-19.76-2.571-41.991-5.141-61.751c-10.282,19.76-12.853,39.521-15.424,61.751
		c0-24.701,5.141-51.871,0-74.102c-5.141,22.23-5.141,44.461-7.712,64.221c0-17.29,0-39.521-5.141-56.811
		c-10.282,19.76-12.853,41.991-15.423,64.221c-2.571-19.76-2.571-39.521-2.571-59.281c-5.141,19.76-5.141,39.521-5.141,56.811
		c0-17.29,2.571-37.051,2.571-54.341c-2.571,19.76-5.141,41.991-5.141,64.221c0-22.23,2.571-41.991-2.571-61.751
		c-10.282,7.41-15.424,24.701-17.994,41.991c-5.141-19.76-5.141-37.051-5.141-56.811c-5.141,22.231-5.141,46.931-10.282,69.162
		c-2.571-19.76,2.571-39.521,0-59.281c-5.141,17.29-7.712,34.581-12.853,54.341c-2.571-24.701,2.571-51.871,2.571-76.572
		c-12.853,22.231-17.994,49.401-28.276,74.102c0-29.641,10.282-56.811,12.853-86.452c-12.853,27.171-17.994,59.281-30.847,88.922
		c0-32.111,12.853-64.221,20.564-93.862c-5.141,24.701-10.282,51.871-17.994,79.042c0-29.641,7.712-59.281,12.853-88.922
		c-7.712,24.701-5.141,51.871-12.853,74.102c-2.571-9.88-5.141-17.29-7.712-27.171c0,22.23,7.712,46.931,17.994,66.691
		c7.712-12.35,12.853-27.171,17.994-39.521c2.571,12.35,5.141,27.171,5.141,41.991c5.141-12.35,15.423-17.29,20.564-27.171
		c2.571,12.35,7.712,27.171,7.712,39.521c7.712-19.76,15.423-37.051,28.276-54.341c-5.141,14.82-12.853,32.111-17.994,46.931
		c7.712-19.76,28.276-37.051,46.27-51.871c-5.141,22.23-12.853,44.461-17.994,64.221c7.712-22.23,20.564-41.991,25.706-66.691
		c-20.564,22.23-33.417,51.871-56.552,71.632c-7.712-19.76,2.571-44.461,7.712-64.221c-17.994,24.701-23.135,56.811-33.417,86.452
		c0-19.76,0-41.991,0-61.751c-7.712,14.82-10.282,32.111-15.423,49.401c-2.571-17.29-2.571-34.581-5.141-49.401
		c-7.712,14.82-12.853,32.111-20.564,46.931c-7.712-17.29-7.712-37.051-12.853-54.341c-2.571,17.29-5.141,34.581-5.141,51.871
		c-2.571-19.76-2.571-41.991-2.571-61.751c0,14.82,0,29.641,0,44.461c0-19.76,0-37.051-2.571-54.341
		c-5.141,17.29-7.712,37.051-10.282,56.811c0-22.23,2.571-44.461,2.571-66.691c-2.571,24.701-2.571,49.401-5.141,74.102
		c-2.571-22.231,0-44.461-5.141-64.221c-5.141,17.29-7.712,34.581-7.712,54.341c0-17.29,0-32.111,0-49.401
		c-5.141,19.76-5.141,37.051-5.141,56.811c0-32.111,7.712-61.751,17.994-91.392c2.571,22.23,0,41.991,0,61.751
		c7.712-34.581,28.276-66.691,43.7-96.332c2.571,24.701-7.712,64.221-15.423,91.392c12.853-32.111,23.135-69.162,41.129-96.332
		c-2.571,19.76-7.712,44.461-12.853,64.221c0-24.701,7.712-51.871,2.571-74.102c-20.564,24.701-23.135,59.281-38.558,88.922
		c-7.712-19.76-5.141-46.931-28.276-54.341c-17.994,19.76-17.994,46.931-20.564,71.632c0-22.231,0-46.931-2.571-69.162
		c0,24.701,2.571,51.871,7.712,76.572c0-12.35,0-27.171-5.141-41.991c0,17.29,0,37.051,0,54.341
		c-5.141-27.171-10.282-54.341-25.706-76.572c-12.853,19.76-10.282,46.931-17.994,69.162c-7.712-24.701-5.141-51.871-10.282-74.102
		c-10.282,24.701-10.282,54.341-12.853,81.512c10.282-17.29,20.564-34.581,35.988-44.461c7.712,17.29,12.853,37.051,20.565,56.811
		c10.282-17.29,17.994-37.051,30.847-51.871c0,17.29-5.141,37.051-10.282,54.341c2.571-22.23,17.994-44.461,30.847-61.751
		c-10.282,19.76-23.135,39.521-38.559,56.811c0-27.171,12.853-56.811,23.135-83.982c-15.423,24.701-23.135,49.401-33.417,74.102
		c12.853-37.051,41.129-69.162,61.694-103.742c-10.282,22.23-17.994,44.461-25.706,64.221c15.424-29.641,28.276-64.221,46.27-93.862
		c5.141,19.76,2.571,39.521-2.571,61.751c2.571-27.171,7.712-56.811,15.423-81.512c2.571,14.82,0,32.111-2.571,46.931
		c0-19.76,2.571-44.461-5.141-64.221c-12.853,22.231-12.853,49.401-17.994,74.102c-5.141-27.171-2.571-56.811-5.141-86.452
		c-10.282,27.171-10.282,56.811-15.423,83.982c-5.141-27.171,0-56.811,2.571-83.982c-5.141,19.76-10.282,41.991-15.424,64.221
		c0-24.701,5.141-46.931,5.141-71.632c-2.571,19.76-7.712,39.521-10.282,59.281c7.712-19.76,20.565-41.991,38.559-56.811
		c5.141,19.76,0,44.461,0,66.692c20.564-22.231,33.417-49.401,51.411-71.632c-5.141,19.76-12.853,39.521-20.564,59.281
		c-2.571-22.231,7.712-49.401,7.712-71.632c-12.853,22.23-23.135,46.931-35.988,69.161c-5.141-24.701,0-51.871,2.571-79.042
		c-7.712,19.76-10.282,41.991-15.423,61.751c2.571-29.641,10.282-56.811,10.282-86.452c-12.853,22.231-17.994,49.401-28.276,74.102
		c-5.141-22.231,2.571-49.401,7.712-71.632c-7.712,19.76-15.424,41.991-23.135,64.221c0-22.231,5.141-41.991,10.282-61.751
		c-7.712,22.231-12.853,41.991-20.564,64.221c-2.571-19.76,2.571-39.521,7.712-56.811c-2.571,17.29-5.141,34.581-12.853,49.401
		c-5.141-19.76,0-44.461,5.141-64.221c-5.141,19.76-7.712,41.991-10.282,64.221c0-19.76,0-39.521,0-59.281
		c-7.712,19.76-10.282,39.521-15.424,59.281c-2.571-19.76,0-37.051,2.571-54.341c-5.141,17.29-5.141,39.521-12.853,59.281
		c-2.571-22.231-2.571-44.461,0-69.162c-5.141,22.23-7.712,41.991-12.853,61.751c2.571-19.76,5.141-39.521,7.712-61.751
		c-5.141,22.23-7.712,44.461-15.423,64.221c-2.571-22.231,2.571-44.461,2.571-66.692c-7.712,22.231-7.712,44.461-12.853,66.692
		c-2.571-19.76,0-41.991,0-61.751c-7.712,19.76-7.712,41.991-12.853,61.751c-5.141-22.231,0-46.931-2.571-69.162
		c-2.571,27.171-5.141,56.811-7.712,83.982c0-24.701,2.571-51.871-5.141-76.572c-10.282,27.171-7.712,61.751-7.712,88.922
		c0-24.701,0-49.401-5.141-74.102c-5.141,22.23-5.141,46.931-5.141,69.161c0-19.76,0-39.521-2.571-59.281
		c0,14.82,2.571,32.111,2.571,46.931c-5.141-14.82-12.853-27.171-17.994-39.521c0,14.82,2.571,32.111,7.712,46.931
		c-7.712-19.76-17.994-39.521-33.417-56.811c5.141,22.23,15.423,39.521,28.276,59.281c-12.853-19.76-23.135-39.521-38.558-56.811
		c7.712,24.701,23.135,44.461,38.558,64.221c-17.994-22.23-33.417-49.401-59.123-64.221c12.853,22.231,28.276,41.991,46.27,61.751
		c-17.994-14.82-33.417-32.111-51.411-46.931c10.282,22.231,28.276,41.991,43.7,59.281c-15.423-14.82-28.276-32.111-43.7-46.931
		c12.853,27.171,33.417,56.811,53.982,79.042c0-4.94,2.571-12.35,2.571-17.29c0,4.94,2.571,12.35,0,17.29
		c15.423-9.88,28.276-29.641,43.7-37.051c-2.571,17.29-5.141,32.111-15.423,46.931c-7.712-22.23,2.571-51.871,5.141-76.572
		c-2.571,24.701-2.571,49.401-2.571,71.632c0-12.35,2.571-56.811,0-79.042c-7.712,22.231-10.282,51.871-2.571,76.572
		c20.564-19.76,33.417-46.931,51.411-69.162c0,24.701-7.712,56.811-15.423,81.512c5.141-24.701,17.994-51.871,28.276-71.632
		c-2.571,22.23-7.712,44.461-12.853,64.221c0-24.701,5.141-51.871,10.282-76.572c-5.141,24.701-7.712,51.871-12.853,76.572
		c5.141-24.701,15.423-54.341,28.276-76.572c2.571,24.701,0,49.401,0,71.632c15.424-19.76,28.276-41.991,43.7-61.751
		c-5.141,22.231-12.853,46.931-20.564,69.162c7.712-22.23,20.564-44.461,33.417-66.691c-2.571,24.701-7.712,46.931-15.423,69.162
		c5.141-24.701,15.423-49.401,28.276-71.632c0,24.701-7.712,49.401-17.994,71.632c-2.571-22.231,0-44.461,0-64.221
		c-12.853,27.171,15.424,74.102,5.141,103.742c-12.853-22.231-41.129-69.162-41.129-96.332
		c-5.141,27.171-5.141,64.221-17.994,88.922c-5.141-32.111,0-64.221-10.282-93.862c-7.712,24.701-7.712,56.811-7.712,83.982
		c-5.141-32.111-7.712-66.691-23.135-93.862c-15.424,22.231-7.712,61.751-7.712,88.922c-7.712-24.701-5.141-54.341-15.423-79.042
		c-10.282,27.171-7.712,56.811-10.282,86.452c-10.282-27.171-5.141-59.281-12.853-83.982c-7.712,27.171-7.712,54.341-10.282,79.042
		c-2.571-27.171,0-54.341-10.282-81.512c-15.423,22.23-10.282,54.341-12.853,81.512c-5.141-24.701-5.141-54.341-20.565-74.102
		c-7.712,19.76-2.571,39.521,0,59.281c-5.141-17.29-10.282-37.051-17.994-54.341c0,19.76,7.712,37.051,12.853,54.341
		c-5.141-14.82-12.853-32.111-20.565-41.991c0,19.76,5.141,39.521,10.282,56.811c0-19.76,0-41.991-2.571-61.751
		c-17.994,24.701-12.853,59.281-23.135,86.452c0-19.76,5.141-37.051,10.282-56.811c5.141,19.76,0,46.931,7.712,66.691
		c15.423-14.82,23.135-34.581,33.417-54.341c-5.141,19.76-10.282,39.521-12.853,59.281c2.571-17.29,10.282-37.051,23.135-51.871
		c7.712,19.76,12.853,37.051,23.135,54.341c12.853-12.35,15.423-37.051,20.565-54.341c12.853,14.82,20.564,37.051,30.847,54.341
		c0-19.76,0-37.051,0-56.811c17.994,22.231,33.417,46.931,48.841,66.692c0-24.701-5.141-49.401-7.712-74.102
		c5.141,22.231,7.712,44.461,15.424,66.692c5.141-22.231,7.712-41.991,15.423-61.751c-5.141,32.111-10.282,61.751-15.423,91.392
		c0-27.171,23.135-59.281,38.558-86.452c-7.712,24.701-12.853,46.931-17.994,69.162c12.853-14.82,25.706-32.111,38.559-46.931
		c-20.565,24.701-38.559,56.811-61.694,83.982c0-24.701,10.282-46.931,17.994-69.162c-17.994,17.29-28.276,41.991-38.559,61.751
		c2.571-24.701,12.853-51.871,12.853-76.572c-12.853,17.29-17.994,37.051-25.706,56.811c-2.571-17.29-2.571-34.581-2.571-51.871
		c-2.571,19.76-2.571,39.521-5.141,61.751c-5.141-22.231-10.282-46.931-17.994-66.692c-7.712,17.29-7.712,41.991-7.712,61.751
		c-5.141-19.76-7.712-39.521-15.423-56.811c-5.141,19.76,0,41.991,5.141,64.221c-7.712-22.23-10.282-46.931-20.565-69.162
		c-5.141,19.76-2.571,39.521,2.571,61.751c-12.853-19.76-17.994-41.991-28.276-59.281c2.571,17.29,12.853,41.991,15.423,56.811
		c-17.994-19.76-25.706-44.461-38.559-66.692c2.571,24.701,10.282,46.931,17.994,69.162c-10.282-27.171-15.423-54.341-23.135-79.042
		c-2.571,24.701,2.571,46.931,5.141,71.632c-7.712-22.231-10.282-46.931-23.135-66.692c-2.571,22.231,2.571,44.461,5.141,64.221
		c-2.571-17.29-7.712-34.581-17.994-51.871c-5.141,19.76-5.141,39.521-5.141,61.751c-2.571-17.29-5.141-34.581-12.853-49.401
		c-2.571,14.82-2.571,29.641-2.571,44.461c2.571-12.35,7.712-24.701,10.282-34.581c2.571,17.29,2.571,37.051,5.141,56.811
		c12.853-12.35,23.135-27.171,35.988-39.521c5.141,14.82,5.141,32.111,5.141,49.401c5.141-19.76,12.853-39.521,23.135-54.341
		c0,14.82-2.571,29.641-5.141,44.461c5.141-14.82,10.282-32.111,20.565-46.931c0,12.35,0,27.171-2.571,41.991
		c5.141-17.29,15.423-37.051,25.706-49.401c0,17.29-2.571,34.581-5.141,51.871c10.282-22.23,23.135-41.991,38.558-59.281
		c2.571,17.29,0,34.581-5.141,51.871c12.853-17.29,25.706-37.051,41.129-51.871c5.141,19.76-5.141,44.461-12.853,66.692
		c15.423-22.231,33.417-46.931,51.411-61.751c-7.712,22.23-17.994,44.461-28.276,64.221c5.141-22.23,25.706-51.871,46.27-64.221
		c-2.571,22.23-5.141,41.991-10.282,61.751L2498.755,1007.017z"/>
</g>
</svg>
