<?xml version="1.0" encoding="utf-8"?>
<!-- Generator: Adobe Illustrator 17.0.0, SVG Export Plug-In . SVG Version: 6.00 Build 0)  -->
<!DOCTYPE svg PUBLIC "-//W3C//DTD SVG 1.1//EN" "http://www.w3.org/Graphics/SVG/1.1/DTD/svg11.dtd">
<svg version="1.1" id="Layer_1" xmlns="http://www.w3.org/2000/svg" xmlns:xlink="http://www.w3.org/1999/xlink" x="0px" y="0px"
	 width="2048px" height="1536px" viewBox="0 0 2048 1536" enable-background="new 0 0 2048 1536" xml:space="preserve">
<g opacity="0.6">
	<path fill="#8A8E5C" d="M-30.202,1091.069c79.236-18.462,84.805-103.43,159.502-122.561c62.682-16.265,121.684-7.568,181.355-3.409
		s94.19-25.532,142.324-53.216c30.577-18.679,109.216-48.822,93.882-102.092c-6.736-17.223-32.367-16.364-38.768-35.857
		c-6.067-21.762,15.098-39.51,20.044-57.33c2.342-15.885,6.356-43.117-5.588-56.47c-17.748-21.165-22.693-3.345-45.721-4.421
		c-80.429-4.9-151.8-149.9-225.448-74.968c-32.584,32.295-50.024,87.69-103.484,72.853c-44.717-11.229-70.132-59.029-108.638-80.935
		c-70.204-42.809-124.215-6.717-189.238,25.433c-92.662,46.625-187.9,16.356-281.873-6.771
		c-69.68-14.908-97.246-16.653-159.331,11.293s-119.749,10.172-184.031,21.564c-74.028,14.593-146.266,64.228-213.559,96.044
		c-35.115,18.01-80.863,92.418-37.556,128.944c12.278,11.084,43.117,6.356,58.667,10.967c26.897,6.283,41.444,17.702,61.461,39.202
		c30.026,32.249,59.454,52.818,101.233,68.251c39.844,12.829,17.033,100.191,54.273,114.955
		c35.305,12.16,85.241,49.364,114.669,69.933c65.665,42.14,161.608-36.462,237.092-13.742"/>
</g>
<g opacity="0.6">
	<path fill="#8A8E5C" d="M2702.929,1080.922c55.202-12.862,59.082-72.058,111.123-85.387c43.669-11.332,84.775-5.272,126.347-2.375
		s65.621-17.788,99.155-37.075c21.302-13.013,76.089-34.014,65.406-71.126c-4.693-11.999-22.55-11.401-27.009-24.981
		c-4.227-15.161,10.519-27.526,13.964-39.941c1.631-11.067,4.428-30.039-3.893-39.342c-12.365-14.745-15.81-2.331-31.853-3.08
		c-56.034-3.414-105.757-104.433-157.066-52.229c-22.701,22.499-34.851,61.092-72.096,50.756
		c-31.154-7.823-48.86-41.125-75.687-56.386c-48.91-29.825-86.539-4.68-131.84,17.719c-64.556,32.483-130.907,11.395-196.377-4.717
		c-48.545-10.386-67.75-11.602-111.003,7.868c-43.254,19.47-83.427,7.086-128.212,15.023
		c-51.574,10.166-101.902,44.747-148.783,66.913c-24.464,12.547-56.336,64.386-26.165,89.833c8.554,7.722,30.039,4.428,40.873,7.64
		c18.739,4.378,28.874,12.333,42.819,27.311c20.918,22.468,41.421,36.797,70.528,47.549c27.759,8.938,11.867,69.802,37.812,80.088
		c24.597,8.472,59.386,34.391,79.888,48.721c45.748,29.359,112.59-25.402,165.179-9.574"/>
</g>
<g opacity="0.6">
	<path fill="#8A8E5C" d="M1199.584,376.333c101.863,8.589,130.338,120.546,226.806,130.942
		c81.004,9.004,151.137-14.471,223.246-32.04c72.109-17.57,122,14.983,188.076,42.118c42.252,18.692,146.359,42.948,141.128,116.935
		c-3.871,24.28-35.519,28.307-38.402,55.539c-1.895,30.185,28.579,49.536,39.183,72.255c6.918,20.669,18.778,56.101,7.535,76.281
		c-16.37,31.747-26.974,9.029-54.936,15.105c-97.374,22.743-147.948,230.113-257.346,145.242
		c-48.182-36.408-83.68-106.613-145.453-76.086c-51.971,23.963-70.957,92.704-112.592,129.625
		c-75.178,71.133-150.602,33.993-238.524,4.32c-125.5-43.362-234.571,16.13-343.908,65.862
		c-81.643,33.895-115,41.777-198.248,17.106s-149.428,10.615-231.152,8.419c-94.491-4.49-195.715-55.978-286.335-84.748
		C71.015,1046.321-4.037,956.521,39.76,899.176c12.231-17.228,51.251-17.155,69.144-26.428
		c31.381-13.787,46.309-31.918,65.377-64.568c28.601-48.975,59.447-82.284,106.744-111.25c45.588-25.11-4.64-136.776,37.263-163.935
		c40.194-23.304,91.946-82.889,122.791-116.198c69.783-69.327,207.454,15.931,294.224-29.531"/>
</g>
</svg>
