<?xml version="1.0" encoding="utf-8"?>
<!-- Generator: Adobe Illustrator 17.0.0, SVG Export Plug-In . SVG Version: 6.00 Build 0)  -->
<!DOCTYPE svg PUBLIC "-//W3C//DTD SVG 1.1//EN" "http://www.w3.org/Graphics/SVG/1.1/DTD/svg11.dtd">
<svg version="1.1" id="Layer_1" xmlns="http://www.w3.org/2000/svg" xmlns:xlink="http://www.w3.org/1999/xlink" x="0px" y="0px"
	 width="2048px" height="1536px" viewBox="0 0 2048 1536" enable-background="new 0 0 2048 1536" xml:space="preserve">
<path fill="#9B8C80" d="M235,961.934l8.088-125.266L213,783.934v-144h-10v138l-28,38v126l-26-2V794.33h-30v137.604l-18-4
	c0,0,0-188-44-203s-26,193-26,193l-12,34l-28,10v-154l-64-7v151l-24-8v-98l-36-9.266v101.266L-175,935l12-165.066l-70-104L-215,937
	l-36,24.934v-88.998h-24v88.998h-22V836.667l-20-8.734v-60l-24,2v48h-26v144l-22-10v-78.998l-32,16.998v64l-16-6v-196l-24,2v186
	l-20-8v-270l-50-6v69l-48,17.136v175.864h-20v-92h-26.676v92l-49.324-4l4-151.066l18.901-23.9L-656.634,712L-679,697.934l-10-42
	l-6,40l-16.343,29l11.049,29.221L-717,836.667l-26,75.266v-390l-22,16v126l-36-2l-36,50v70l-22,2v-152l-46,2v132l14,132l-44-4l16-70
	l-36-99l-48,85l20,63.002l-20,14.998l-20-14.998l-38,104.998l1324,25.867L235,961.934z"/>
<path fill="#9B8C80" d="M2094.093,939.409v-89.97h-30.468v89.97c0,0-2.344-26.582-16.406-44.985c-14.062-18.403-28.124,0-28.124,0
	v51.119h-16.406v-85.881l-32.812,4.09v81.791h-35.155l-11.718-96.104h-14.062v-36.806h-16.406v22.163l-9.375,8.509l9.375,102.239
	l-30.468,8.179v-53.164l-25.78-40.896l-18.75,23.515v48.052l-37.499,2.045v-50.097h-14.062v-21.47v-92.015h-9.375v108.373v53.164
	h-18.749v-69.522h-30.468v73.612l-11.718,18.403l-9.375-92.015l-44.53-44.985v120.642l-23.437-4.09v-57.254l-28.124-41.225
	l-11.718,26.912v59.299l-16.406-6.134l-11.718-157.448l-25.781,49.075v114.507l-11.718,6.134v-44.985h-39.843v36.806l-14.062,2.045
	V757.424h-30.468v167.672l-16.406-10.224V796.275l-16.7,4.09v34.431h-30.174l16.394,88.255h-30.456v-53.164l-49.217-6.134v71.567
	l-11.718-4.09v-96.434h-49.217v-77.371h-28.124v167.672l-23.437-4.09l-14.062-75.657l-23.437-2.045v51.119l-21.093,2.045v-20.448
	l-28.124,2.045v-22.492l-21.093,8.179v-57.254l-33.9-2.045v73.612L1016,986.439l1078.093,32.716V939.409z"/>
<path fill="#9B8C80" d="M1321.181,873.121v-89.97h-30.468v89.97c0,0-2.344-26.582-16.406-44.985c-14.062-18.403-28.124,0-28.124,0
	v51.119h-16.406v-85.881l-32.812,4.09v81.791h-35.155l-11.718-96.104h-14.062v-36.806h-16.406v22.163l-9.375,8.509l9.375,102.239
	l-30.468,8.179V834.27l-25.781-40.896l-18.75,23.515v48.052l-37.499,2.045V816.89h-14.062v-21.47v-92.015h-9.375v108.373v53.164
	h-18.749V795.42h-30.468v73.612l-11.718,18.403l-9.375-92.015l-44.53-44.985v120.642l-23.437-4.09v-57.254l-28.124-41.226
	l-11.718,26.912v59.298l-16.406-6.134l-11.718-157.448l-25.78,49.075v114.507l-11.718,6.134v-44.985h-39.843v36.806l-14.062,2.045
	V691.136h-30.468v167.672l-16.406-10.224V729.987l-16.7,4.09v34.431h-30.174l16.393,88.255h-30.456v-53.164l-49.217-6.134v71.567
	l-11.718-4.09v-96.434h-49.217v-77.371h-28.124v167.672l-23.437-4.09l-14.062-75.657l-23.437-2.045v51.119l-21.093,2.045v-20.448
	l-28.124,2.045v-22.492l-21.093,8.179v-57.254l-33.9-2.045v73.612l-31.723,108.373l1078.093,32.716V873.121z"/>
<path fill="#9B8C80" d="M2033.159,966.268l-6.699-107.684l24.923-45.332V689.465h8.283v118.63l23.193,32.666v108.314l21.536-1.719
	V822.19h24.85v118.289l14.91-3.439c0,0,0-161.612,36.446-174.507c36.447-12.895,21.537,165.91,21.537,165.91l9.94,29.228
	l23.193,8.596V833.884l53.013-6.017v129.805l19.88-6.877V866.55l29.82-7.966v87.052l34.79-2.522l-9.94-141.897l57.983-89.402
	l-14.91,233.019l29.82,21.434v-76.506h19.88v76.506h18.223V858.584l16.566-7.508v-51.578l19.88,1.719v41.263h21.537v123.788
	l18.223-8.596v-67.91l26.506,14.612v55.017l13.253-5.158V785.744l19.88,1.719v159.893l16.567-6.877V708.377l41.416-5.158v59.315
	l39.76,14.731v151.179h16.566v-79.087h22.097v79.087l40.856-3.439l-3.313-129.862l-15.656-20.545l3.757-23.182l18.526-12.092
	l8.283-36.105l4.97,34.386l13.537,24.93l-9.152,25.119l13.838,70.931l21.537,64.702V588.027l18.223,13.754v108.314l29.82-1.719
	l29.82,42.982v60.175l18.223,1.719V682.587l38.103,1.719v113.472l-11.596,113.472l36.446-3.439l-13.253-60.175l29.82-85.104
	l39.76,73.069l-16.566,54.159l16.566,12.893l16.567-12.893l31.476,90.261l-1096.705,22.237L2033.159,966.268z"/>
<path fill="#9B8C80" d="M1321.181,911.121v-89.97h-30.468v89.97c0,0-2.344-26.582-16.406-44.985c-14.062-18.403-28.124,0-28.124,0
	v51.119h-16.406v-85.881l-32.812,4.09v81.791h-35.155l-11.718-96.104h-14.062v-36.806h-16.406v22.163l-9.375,8.509l9.375,102.239
	l-30.468,8.179V872.27l-25.781-40.896l-18.75,23.515v48.052l-37.499,2.045V854.89h-14.062v-21.47v-92.015h-9.375v108.373v53.164
	h-18.749V833.42h-30.468v73.612l-11.718,18.403l-9.375-92.015l-44.53-44.985v120.642l-23.437-4.09v-57.254l-28.124-41.226
	l-11.718,26.912v59.298l-16.406-6.134l-11.718-157.448l-25.78,49.075v114.507l-11.718,6.134v-44.985h-39.843v36.806l-14.062,2.045
	V729.136h-30.468v167.672l-16.406-10.224V767.987l-16.7,4.09v34.431h-30.174l16.393,88.255h-30.456v-53.164l-49.217-6.134v71.567
	l-11.718-4.09v-96.434h-49.217v-77.371h-28.124v167.672l-23.437-4.09l-14.062-75.657l-23.437-2.045v51.119l-21.093,2.045v-20.448
	l-28.124,2.045v-22.492l-21.093,8.179v-57.254l-33.9-2.045v73.612l-31.723,108.373l1078.093,32.716V911.121z"/>
</svg>
