<?xml version="1.0" encoding="utf-8"?>
<!-- Generator: Adobe Illustrator 17.0.0, SVG Export Plug-In . SVG Version: 6.00 Build 0)  -->
<!DOCTYPE svg PUBLIC "-//W3C//DTD SVG 1.1//EN" "http://www.w3.org/Graphics/SVG/1.1/DTD/svg11.dtd">
<svg version="1.1" id="Layer_1" xmlns="http://www.w3.org/2000/svg" xmlns:xlink="http://www.w3.org/1999/xlink" x="0px" y="0px"
	 width="2048px" height="1536px" viewBox="0 0 2048 1536" enable-background="new 0 0 2048 1536" xml:space="preserve">
<path fill="#4C4B48" d="M-1012,1045.099c0,0,200.113-225.514,418-274.615s312,5.136,640,5.136c281.311,0,420-58.407,828-40.62
	c399.508,17.416,776,68.619,936,4c172.431-69.639,336-276.143,648-200c304.086,74.211,600.314,432.132,600.314,432.132
	l-8.55,143.868L-1012,1045.099z"/>
<g opacity="0.3">
	<path fill="#605937" d="M2270.376,676.339c-125.076-67.453-710.927,185.706-752.932,212.708
		c-57.006,36.004-174.017,93.009-159.016,177.018c15.001,72.007,122.046,85.362,176.051,58.359
		c39.004-18.002,168.233-5.977,213.238-11.978c42.004-6.001,204.472,44.49,243.476,23.488
		c45.005-24.002,29.494-277.008,230.081-242.398c185.709,32.043,304.756-61.27,139.11-116.399L2270.376,676.339z"/>
</g>
<g opacity="0.3">
	<path fill="#605937" d="M461,796.268C335.924,728.815-116.996,812.997-159,840c-57.006,36.004-132.645,210.803-117.644,294.811
		c15.001,72.007,122.046,85.362,176.051,58.359c39.004-18.002,168.233-5.977,213.238-11.978
		c42.004-6.001,204.472,44.49,243.476,23.488c45.005-24.002,29.494-277.008,230.081-242.398
		c185.709,32.043,304.756-61.27,139.11-116.399L461,796.268z"/>
</g>
<g opacity="0.3">
	<path fill="#605937" d="M2726.911,725.957c-39.004-45.005-153.015-18.002-195.02,9.001
		c-57.006,36.004-174.017,93.009-159.016,177.018c15.001,72.007,156.016,30.003,210.021,3c39.004-18.002,54.005-45.005,99.01-51.005
		c42.004-6.001,66.007-12.001,105.01-33.003c45.005-24.002,72.007-39.004,18.002-75.008c-21.002-15.001-72.007-39.004-96.01-33.003
		L2726.911,725.957z"/>
</g>
<g opacity="0.3">
	<path fill="#605937" d="M1602.911,796.695c-39.004-45.005-153.015-18.002-195.02,9.001
		c-57.006,36.004-174.017,93.009-159.016,177.018c15.001,72.007,156.016,30.003,210.021,3c39.004-18.002,54.005-45.004,99.01-51.005
		c42.004-6.001,66.007-12.001,105.01-33.003c45.005-24.002,72.007-39.004,18.002-75.008c-21.002-15.002-72.007-39.004-96.01-33.003
		L1602.911,796.695z"/>
</g>
<g opacity="0.3">
	<path fill="#605937" d="M2347.534,551.649c-39.004-45.005-153.015-18.002-195.019,9.001
		c-57.006,36.004-174.017,93.009-159.016,177.018c15.001,72.007,156.016,30.003,210.021,3
		c39.004-18.002,98.935,92.009,143.939,86.009c42.004-6.001,285.392-24.13,281.136-68.224
		c-15.817-163.869-137.748-9.977-191.753-45.981c-21.002-15.001-83.307-169.824-107.309-163.824L2347.534,551.649z"/>
</g>
<g opacity="0.3">
	<path fill="#605937" d="M2591.958,895.659c-125.076-67.453-244.903-88.254-286.907-61.251
		c-57.006,36.004-327.267,58.852-312.266,142.861c15.001,72.007,207.643,173.157,261.649,146.155
		c39.004-18.002,236.52,71.83,281.525,65.829c42.004-6.001-12.445-149.575,26.559-170.577
		c45.005-24.002-19.147,70.138,181.441,104.748c185.708,32.043,232.916-272.026,67.27-327.155L2591.958,895.659z"/>
</g>
<path fill="#544140" d="M4.933,773.82V398h16.092v302l24-6V512l54,38v140l16-6c0,0-9.914-38.328,0-82.998
	c9.914-44.67,40,30.998,42,74.998s2,44,2,44l12-1.192V629.29l18-28.288V488l12-2l12,232.808h16l-5.196-132.898l19.196-63.513
	l30.021,42.337L265.025,710l22-6v-74.71l20.738-10.542v-17.746h15.262V614l22.17,9.776v81.69l19.83,13.342V666l26-2v42.856l18-2.856
	v-88l36-6v86l22-4v-52.381h28v79.189l18-8.808V534l36.576-30.133V702l15.424,42.801V618h20v100.808l22-4.808V440l10-22v-20
	l10-17.404V316l12,56l10,18v20l18,14v291.232l18,0.768l14.571-86.71l13.429-28.288l20,16.998v99.235l8,42.921L4.933,840V773.82z"/>
</svg>
