<?xml version="1.0" encoding="utf-8"?>
<!-- Generator: Adobe Illustrator 17.0.0, SVG Export Plug-In . SVG Version: 6.00 Build 0)  -->
<!DOCTYPE svg PUBLIC "-//W3C//DTD SVG 1.1//EN" "http://www.w3.org/Graphics/SVG/1.1/DTD/svg11.dtd">
<svg version="1.1" id="Layer_1" xmlns="http://www.w3.org/2000/svg" xmlns:xlink="http://www.w3.org/1999/xlink" x="0px" y="0px"
	 width="2048px" height="1536px" viewBox="0 0 2048 1536" enable-background="new 0 0 2048 1536" xml:space="preserve">
<path fill="#353535" d="M283,651.997c0,0,38.889-42.964,115.61-15.344s61.377,42.964,122.753,52.17
	c61.377,9.207,58.308-21.482,131.96,0c73.652,21.482,95.134,82.858,156.51,61.377s70.583-46.032,141.166-39.895
	c70.583,6.138,79.79,73.431,162.648,44.387c82.859-29.043,156.51-50.525,276.195-84.282s131.96,76.721,214.818,76.721
	c82.859,0,144.235-18.413,144.235-18.413L1764.24,942H283V651.997z"/>
<g opacity="0.6">
	<path fill="#282722" d="M301.719,737.875c0-36.004,0-72.007-3-108.011c9.001,18.002,15.001,39.004,21.002,57.006
		c6.001-36.004-3-69.007-12.001-102.01c3,36.004,9.001,69.007,15.001,105.01c-3-36.004-15.001-72.007-27.003-102.01
		c0,24.002,3,51.005,9.001,78.008c-3-24.002-9.001-45.005-15.001-66.007c3,21.002,9.001,42.004,15.001,63.006
		c6.001-21.002,3-42.004,3-63.006c9.001,21.002,15.001,45.005,21.002,72.007c6.001-36.004-3-69.007,0-102.01
		c15.001,36.004,18.002,81.008,27.003,117.012c9.001-33.003-3-78.008-9.001-114.011c6.001,36.004,9.001,75.008,21.002,108.011
		c6.001-33.003,3-66.007,0-99.01c3,36.004,9.001,72.007,15.002,108.011c6.001-30.003,3-60.006,0-90.009
		c6.001,30.003,9.001,60.006,15.001,87.009c3-30.003,0-60.006,0-93.009c6.001,33.003,6.001,63.006,6.001,96.01
		c3-30.003,3-60.006,6.001-93.009c3,24.002,3,48.005,0,72.007c0-18.002,3-33.003,9.001-51.005c9.001,24.002,3,51.005,0,75.008
		c6.001-30.003,9.001-57.006,15.001-87.009c6.001,24.002,6.001,45.004,6.001,66.007c3-27.003,3-57.006,0-84.008
		c0,30.003,3,63.006,9.001,96.01c0-24.002-3-48.005-6.001-72.007c6.001,30.003,9.001,60.006,18.002,90.009
		c-3-30.003-9.001-60.006-12.001-87.009c3,30.003,9.001,60.006,15.001,90.009c3-24.002-3-54.005-9.001-78.008
		c3,27.003,6.001,54.005,9.001,81.008c-3-24.002-6.001-45.005-12.001-69.007c0,15.001,0,33.003,0,48.005
		c-6.001-24.002-9.001-51.005-18.002-75.007c-3,18.002-3,36.004,0,54.005c0-30.003-3-63.006-9.001-93.009
		c3,24.002,6.001,51.005,12.001,72.007c-3-21.002-9.001-42.004-15.002-63.006c-3,27.003-3,51.005-3,78.008
		c-6.001-27.003-12.001-54.005-24.002-78.008c0,27.003,3,54.005,6.001,81.008c-3-24.002-12.001-45.005-21.002-69.007
		c-3,21.002-3,45.005,0,69.007c-12.001-27.003-21.002-54.005-36.004-78.008c-3,24.002,3,48.005,6.001,72.007
		c-6.001-24.002-15.001-54.005-30.003-75.008c-6.001,24.002-6.001,57.006-6.001,75.008c-3-18.002-9.001-39.004-15.001-60.006
		c0,33.003,6.001,66.007,12.001,96.01c-3-21.002-9.001-42.004-18.002-63.006c3,27.003,12.001,54.005,21.002,78.008
		c0-6.001,0-15.002,0-21.002c3,12.001,15.002,27.003,21.002,36.004c0-24.002-9.001-45.004-12.001-69.007
		c15.001,21.002,21.002,45.005,33.003,66.007c3-21.002,0-42.004-3-63.006c6.001,18.002,9.001,39.004,15.001,60.006
		c3-18.002,3-36.004,0-51.005c3,15.002,9.001,30.003,15.002,45.005c6.001-18.002,3-45.005,0-69.007
		c6.001,24.002,12.001,48.005,18.002,72.007c3-21.002,3-42.004,0-60.006c6.001,15.002,9.001,33.003,12.001,48.005
		c0-21.002,0-45.005,0-66.007c6.001,21.002,9.001,48.005,15.001,69.007c0-15.002,3-27.003,3-42.004
		c3,18.002,6.001,36.004,12.001,57.006c0-15.001,0-27.003,0-39.004c3,12.001,9.001,27.003,12.001,39.004c3-21.002,3-42.004,3-60.006
		c3,18.002,6.001,36.004,9.001,54.005c0-24.002,0-48.005,0-72.007c6.001,24.002,9.001,48.005,12.001,72.007
		c3-30.003-3-57.006-6.001-84.008c9.001,30.003,12.001,60.006,18.002,90.009c0-24.002-3-51.005-6.001-75.007
		c3,24.002,6.001,51.005,12.001,78.008c-3-30.003-6.001-57.006-6.001-87.009c6.001,30.003,9.001,60.006,15.001,93.009
		c0-27.003-6.001-54.005-9.001-81.008c3,21.002,9.001,45.004,15.001,66.007c3-27.003-9.001-57.006-6.001-84.008
		c9.001,27.003,12.001,57.006,21.002,84.008c-3-30.003-9.001-60.006-12.001-90.009c6.001,27.003,12.001,54.005,18.002,84.008
		c0-33.003-6.001-63.006-12.001-93.009c9.001,33.003,12.001,69.007,21.002,102.01c0-30.003-6.001-60.006-12.001-90.009
		c6.001,27.003,12.001,57.006,15.001,84.008c0-21.002-6.001-42.004-6.001-60.006c9.001,21.002,12.001,45.005,15.002,69.007
		c-3-30.003-9.001-60.006-6.001-93.009c3,27.003,9.001,54.005,12.001,84.008c0-21.002-3-45.005-6.001-66.007
		c6.001,18.002,9.001,42.004,15.002,63.006c0-24.002-6.001-51.005-9.001-78.008c6.001,24.002,12.001,48.005,15.001,72.007
		c3-27.003-3-54.005-6.001-81.008c3,27.003,9.001,51.005,12.001,78.008c0-21.002-3-42.004-9.001-63.006
		c3,21.002,6.001,45.005,12.001,66.007c-6.001-21.002-9.001-42.004-15.001-60.006c3,18.002,6.001,39.004,9.001,60.006
		c-12.001-30.003-18.002-66.007-36.004-96.01c-6.001,33.003-3,63.006,0,93.009c-12.001-27.003-18.002-57.006-33.003-84.008
		c0,21.002,0,39.004,3,60.006c-9.001-18.002-18.002-39.004-30.003-57.006c0,27.003,3,57.006,3,84.008
		c-12.001-15.002-21.002-36.004-33.003-51.005c3,24.002,6.001,51.005,9.001,75.008c-12.001-15.001-18.002-33.003-33.003-48.005
		c0,18.002,0,39.004,3,57.006c-18.002-15.002-33.003-33.003-51.005-45.005c0,18.002,6.001,36.004,12.001,51.005
		c-9.001-18.002-24.002-36.004-36.004-48.005c3,21.002,9.001,39.004,15.001,60.006c-9.001-15.002-18.002-30.003-33.003-42.004
		c3,15.001,0,33.003,6.001,45.004c-9.001-9.001-24.002-21.002-30.003-30.003c6.001,9.001,9.001,24.002,15.002,36.004
		c-9.001-18.002-18.002-33.003-30.003-48.005c0,21.002,6.001,42.004,12.001,63.006c-6.001-21.002-15.002-39.004-21.002-60.006
		c9.001,24.002,18.002,51.005,33.003,72.007c0-24.002-6.001-51.005-9.001-78.008c18.002,24.002,27.003,51.005,36.004,78.008
		c3-27.003-3-57.006-6.001-87.009c12.001,30.003,18.002,63.006,24.002,93.009c3-33.003-3-66.007-3-99.01
		c9.001,30.003,9.001,60.006,12.001,90.009c3-30.003,0-60.006,0-90.009c9.001,27.003,9.001,57.006,15.001,81.008
		c3-24.002,3-51.005,3-75.008c6.001,21.002,9.001,45.005,12.001,69.007c3-24.002,3-48.005,6.001-69.007c3,24.002,3,51.005,0,75.008
		c6.001-27.003,9.001-57.006,15.001-87.009c6.001,27.003,3,57.006,0,84.008c6.001-27.003,9.001-54.005,18.002-78.008
		c-3,24.002-6.001,51.005-12.001,75.008c6.001-24.002,15.001-51.005,30.003-72.007c0,24.002-3,45.005-9.001,69.007
		c6.001-27.003,15.001-54.005,30.003-78.008c3,24.002,0,48.005-9.001,69.007c6.001-21.002,9.001-42.004,21.002-60.006
		c3,27.003-3,51.005-9.001,75.008c6.001-21.002,12.001-45.005,21.002-66.007c3,21.002,3,42.004,3,63.006
		c9.001-21.002,12.001-45.005,18.002-66.007c6.001,18.002,3,36.004,0,57.006c6.001-21.002,9.001-39.004,18.002-54.005
		c3,12.001,9.001,30.003,6.001,42.004c6.001-18.002,9.001-36.004,12.001-57.006c-3,15.002,0,30.003,0,45.005
		c6.001-15.002,6.001-36.004,6.001-51.005c3,15.002,9.001,30.003,12.001,42.004c-3-12.001,0-30.003,0-45.004
		c0,12.001,6.001,24.002,6.001,33.003c0-12.001-3-21.002-3-33.003c0,12.001,3,27.003,3,36.004L301.719,737.875z"/>
</g>
<g opacity="0.6">
	<path fill="#282722" d="M346.723,911.893c-21.002-27.003-21.002-72.007-30.003-105.01c18.002,24.002,27.003,57.006,42.004,81.008
		c-3-36.004-15.001-72.007-24.002-108.011c21.002,27.003,30.003,63.006,48.005,93.009c3-36.004-15.002-75.008-15.002-111.011
		c18.002,33.003,30.003,69.007,45.005,105.01c3-36.004-18.002-75.008-12.001-105.01c21.002,36.004,24.002,75.008,33.003,114.011
		c3-36.004-6.001-75.008-6.001-114.011c21.002,24.002,24.002,72.007,33.003,105.01c6.001-30.003-3-60.006-3-90.009
		c15.002,30.003,15.002,63.006,24.002,93.009c6.001-21.002,0-45.004,0-66.007c3,12.001,6.001,27.003,9.001,39.004
		c0-18.002,0-39.004,0-57.006c6.001,21.002,9.001,45.004,9.001,66.007c3-15.002,0-33.003-9.001-48.005
		c-27.003,72.007-27.003,48.005-93.009,21.002c-6.001,24.002,3,48.005,15.001,69.007c-6.001-24.002-21.002-48.005-42.004-63.006
		c3,18.002,9.001,33.003,15.001,51.005c-9.001-24.002-27.003-45.005-48.005-54.005c-3,18.002,3,39.004,12.001,54.005
		c-3-6.001-6.001-15.002-9.001-21.002c36.004,33.003,78.008,51.005,66.007-21.002c15.001,18.002,24.002,39.004,42.004,51.005
		c9.001-18.002,6.001-42.004,0-63.006c12.001,21.002,21.002,48.005,30.003,66.007c0-30.003-9.001-63.006-12.001-90.009
		c12.001,24.002,18.002,54.005,30.003,81.008c3-27.003-3-54.005,0-81.008c12.001,30.003,18.002,60.006,18.002,93.009
		c6.001-39.004,3-81.008,9.001-120.012c15.001,36.004,12.001,75.008,18.002,114.011c3-36.004,0-72.007-3-108.011
		c15.002,33.003,15.002,72.007,30.003,105.01c9.001-39.004-3-81.008-6.001-120.012c15.001,42.004,15.001,87.009,27.003,129.013
		c3-39.004-9.001-81.008-18.002-123.012c6.001,42.004,9.001,84.008,12.001,126.013c-30.003-21.002-141.014-81.008-99.01,12.001
		c-3-18.002-15.001-27.003-27.003-36.004c-6.001,15.002-12.001,30.003-12.001,45.005c-12.001-12.001-27.003-27.003-45.004-33.003
		c0,9.001-12.001,24.002-9.001,39.004c-15.001-21.002-36.004-48.005-63.006-51.005c-3,18.002,0,36.004,6.001,51.005
		c-15.001-21.002-30.003-45.005-51.005-63.006c12.001,21.002,24.002,42.004,42.004,54.005c0-18.002-9.001-36.004-18.002-54.005
		c9.001,27.003,24.002,69.007,45.004,84.008c-6.001-33.003-27.003-66.007-51.005-90.009c6.001,33.003,21.002,66.007,36.004,93.009
		c3-27.003-12.001-54.005-3-81.008c21.002,24.002,30.003,63.006,39.004,96.01c0-30.003-6.001-63.006,3-84.008
		c15.001,24.002,15.001,51.005,24.002,75.008c6.001-27.003,3-51.005,0-78.008c12.001,27.003,15.001,57.006,24.002,87.009
		c6.001-36.004,0-72.007,6.001-108.011c15.001,27.003,15.001,60.006,21.002,93.009c6.001-27.003,6.001-54.005,9.001-81.008
		c9.001,21.002,12.001,54.005,15.001,78.008c9.001-27.003,6.001-60.006,12.001-90.009c9.001,27.003,12.001,57.006,18.002,84.008
		c3-24.002,0-54.005,3-75.008c9.001,21.002,12.001,45.005,18.002,66.007c6.001-24.002,3-48.005,3-72.007
		c12.001,18.002,15.001,39.004,21.002,60.006c3-21.002,0-39.004-3-57.006c6.001,18.002,12.001,42.004,18.002,60.006
		c0-18.002,0-36.004-3-54.005c6.001,21.002,12.001,42.004,18.002,60.006c0-18.002-3-39.004-3-57.006
		c6.001,18.002,9.001,42.004,15.002,60.006c6.001-18.002,3-39.004,3-60.006c9.001,27.003,12.001,54.005,24.002,78.008
		c3-27.003-9.001-60.006-12.001-90.009c12.001,30.003,18.002,60.006,27.003,87.009c6.001-36.004-9.001-75.008-15.002-108.011
		c9.001,27.003,15.002,57.006,24.002,87.009c-3-24.002-9.001-48.005-12.001-72.007c18.002,18.002,21.002,51.005,24.002,78.008
		c-3-33.003-15.001-66.007-12.001-96.01c21.002,24.002,27.003,60.006,33.003,90.009c-3-27.003-12.001-54.005-12.001-78.008
		c12.001,24.002,18.002,54.005,24.002,81.008c0-27.003-6.001-57.006-3-84.008c12.001,24.002,15.002,51.005,21.002,75.008
		c6.001-24.002,0-51.005,0-78.008c9.001,30.003,12.001,63.006,18.002,93.009c-3-30.003-12.001-63.006-24.002-90.009
		c0,15.002-3,30.003-3,45.005c-9.001-36.004-21.002-72.007-36.004-105.01c0,21.002,3,42.004,9.001,63.006
		c-6.001-27.003-12.001-57.006-18.002-84.008c3,21.002,3,42.004,6.001,60.006c0-24.002-6.001-48.005-15.002-72.007
		c0,24.002,3,48.005,6.001,72.007c-9.001-24.002-18.002-45.005-24.002-69.007c0,24.002,3,51.005,9.001,72.007
		c-6.001-27.003-18.002-54.005-30.003-81.008c-3,30.003-3,60.006,3,90.009c3-33.003-3-69.007-9.001-99.01
		c-3,36.004-3,75.008-3,114.011c3-33.003-3-66.007-6.001-99.01c-6.001,24.002-6.001,45.004-9.001,69.007
		c-3-33.003-6.001-69.007-18.002-99.01c3,21.002,3,42.004,6.001,63.006c0-30.003-9.001-66.007-21.002-96.01
		c0,33.003,3,66.007,0,99.01c-6.001-21.002-15.001-42.004-24.002-63.006c0,21.002,3,42.004,3,63.006
		c-6.001-24.002-12.001-48.005-27.003-69.007c3,27.003,6.001,54.005,15.001,75.008c6.001-24.002,0-48.005,0-75.008
		c24.002,27.003,30.003,69.007,48.005,102.01c6.001-33.003-3-69.007,3-96.01c12.001,24.002,21.002,51.005,27.003,78.008
		c6.001-36.004-6.001-75.008-9.001-108.011c18.002,27.003,24.002,66.007,33.003,99.01c0-36.004-9.001-72.007-9.001-108.011
		c15.002,33.003,15.002,72.007,21.002,108.011c3-36.004-6.001-75.008-9.001-111.011c21.002,36.004,24.002,84.008,33.003,123.012
		c0-36.004-9.001-72.007-9.001-105.01c12.001,30.003,15.002,63.006,21.002,96.01c0-33.003-9.001-69.007-9.001-102.01
		c6.001,27.003,12.001,54.005,18.002,81.008c0-27.003-9.001-57.006-9.001-84.008c12.001,24.002,15.001,51.005,18.002,75.008
		c3-27.003-3-54.005,0-81.008c12.001,30.003,15.002,60.006,21.002,90.009c0-24.002-3-45.005-6.001-69.007
		c18.002,33.003,21.002,69.007,39.004,99.01c6.001-33.003,0-72.007-6.001-108.011c12.001,33.003,15.002,66.007,21.002,102.01
		c-6.001-36.004-15.001-69.007-27.003-99.01c0,12.001-9.001,27.003-9.001,42.004c-18.002-24.002-24.002-57.006-39.004-84.008
		c0,24.002,0,45.005,0,69.007c-6.001-30.003-15.002-60.006-30.003-84.008c-6.001,27.003-6.001,54.005-9.001,78.008
		c-9.001-27.003-15.002-57.006-24.002-87.009c-3,24.002-3,48.005-3,75.008c-6.001-24.002-12.001-45.005-21.002-63.006
		c0,42.004,12.001,84.008,18.002,126.013c0-30.003-6.001-63.006-18.002-93.009c3,51.005,18.002,108.011,36.004,153.015
		c9.001-27.003-3-63.006-6.001-96.01c24.002,36.004,24.002,87.009,33.003,126.013c3-30.003-3-60.006,0-90.009
		c18.002,36.004,18.002,75.008,33.003,114.011c9.001-30.003,0-63.006-3-93.009c15.002,36.004,15.002,78.008,24.002,117.012
		c3-36.004-6.001-75.008-6.001-111.011c12.001,30.003,12.001,66.007,27.003,96.01c9.001-30.003,0-63.006,0-93.009
		c15.002,27.003,15.002,60.006,30.003,87.009c6.001-30.003-3-63.006-6.001-96.01c6.001,36.004,9.001,78.008,24.002,111.011
		c9.001-39.004-3-81.008-3-120.012c9.001,36.004,9.001,78.008,24.002,114.011c6.001-33.003-6.001-66.007-12.001-99.01
		c6.001,27.003,12.001,57.006,21.002,81.008c9.001-30.003-9.001-66.007-9.001-99.01c9.001,21.002,12.001,42.004,15.002,63.006
		c0-30.003-6.001-57.006-15.002-84.008c3,24.002,3,51.005,6.001,75.008c0-30.003-6.001-63.006-15.002-90.009
		c-6.001,21.002-3,45.004-3,69.007c0-33.003-6.001-69.007-15.002-102.01c-9.001,30.003-6.001,57.006-6.001,87.009
		c-9.001-27.003-15.001-60.006-27.003-81.008c-3,36.004-3,69.007-3,105.011c-6.001-33.003-15.002-66.007-33.003-96.01
		c-3,39.004,0,78.008,3,117.012c-12.001-30.003-21.002-60.006-39.004-87.009c-3,39.004,9.001,78.008,12.001,120.012
		c-9.001-33.003-30.003-72.007-57.006-93.009c-12.001,33.003-3,75.008,6.001,111.011c0-24.002-3-48.005,0-72.007
		c24.002,27.003,33.003,63.006,48.005,93.009c3-24.002-3-48.005-12.001-72.007c12.001,36.004,18.002,75.008,36.004,108.011
		c9.001-36.004-6.001-81.008-12.001-117.012c15.002,27.003,18.002,60.006,30.003,90.009c3-18.002,3-39.004,3-57.006
		c15.002,27.003,18.002,54.005,27.003,81.008c3-30.003-3-63.006,9.001-90.009c21.002,27.003,24.002,66.007,30.003,96.01
		c3-30.003,0-60.006,3-90.009c15.002,27.003,15.002,60.006,24.002,90.009c12.001-33.003,6.001-75.008,6.001-111.011
		c6.001,30.003,6.001,60.006,15.001,90.009c9.001-30.003,3-63.006,6.001-93.009c6.001,24.002,9.001,51.005,12.001,75.008
		c9.001-30.003,3-63.006,0-96.01c6.001,27.003,6.001,54.005,12.001,81.008c9.001-39.004,0-84.008-6.001-123.012
		c3,33.003,6.001,66.007,12.001,96.01c9.001-39.004,0-87.009-6.001-129.013c3,27.003,3,54.005,9.001,81.008
		c6.001-36.004-3-78.008-9.001-114.011c-6.001,30.003-3,57.006-6.001,87.009c-6.001-27.003-9.001-54.005-18.002-81.008
		c-6.001,27.003-6.001,57.006-6.001,87.009c-3-30.003-9.001-60.006-15.001-87.009c-6.001,30.003-6.001,60.006-6.001,90.009
		c-6.001-24.002-9.001-45.005-18.002-66.007c6.001,30.003,12.001,63.006,21.002,96.01c6.001-27.003,0-51.005,0-75.008
		c15.001,27.003,18.002,60.006,30.003,87.009c3-27.003,0-54.005,0-84.008c9.001,30.003,12.001,60.006,18.002,90.009
		c3-33.003-3-66.007,0-99.01c12.001,30.003,12.001,66.007,18.002,96.01c3-30.003,3-60.006,12.001-87.009
		c12.001,21.002,9.001,48.005,12.001,75.008c0-27.003,0-54.005,6.001-78.008c9.001,21.002,9.001,42.004,9.001,66.007
		c-6.001-27.003-9.001-54.005-9.001-81.008c3,15.001,0,27.003-3,39.004c-12.001-18.002-18.002-39.004-21.002-60.006
		c9.001,27.003,12.001,54.005,18.002,81.008c-12.001-30.003-24.002-63.006-36.004-90.009c0,24.002,3,48.005,9.001,72.007
		c0-27.003-9.001-54.005-18.002-78.008c-3,21.002,0,45.004,3,69.007c-12.001-54.005,48.005-54.005,66.007-15.002
		c0,3-3,6.001-9.001,6.001c-18.002-9.001-21.002-33.003-6.001-45.005c12.001,21.002,15.001,48.005,18.002,75.008
		c-3-27.003-3-54.005-3-81.008c12.001,30.003,12.001,72.007,15.002,105.01c-3-33.003-12.001-72.007-9.001-108.011
		c15.002,30.003,15.002,66.007,18.002,96.01c-3-27.003-6.001-54.005-3-81.008c9.001,33.003,15.001,69.007,18.002,102.01
		c6.001-33.003-3-69.007-3-105.01c9.001,24.002,9.001,54.005,15.002,81.008c6.001-24.002,6.001-48.005,6.001-72.007
		c3,24.002,3,48.005,6.001,72.007c3-21.002,3-42.004,6.001-63.006c12.001,15.001,15.001,39.004,21.002,57.006
		c3-24.002,0-48.005-3-72.007c9.001,15.002,12.001,33.003,12.001,48.005c-3-21.002-6.001-45.005-12.001-66.007
		c-3,24.002-3,48.005-9.001,72.007c-12.001-24.002-18.002-51.005-27.003-78.008c-3,21.002-3,39.004-3,60.006
		c-3-24.002-9.001-51.005-18.002-75.008c-3,15.002-3,36.004-3,51.005c-6.001-21.002-15.002-42.004-24.002-63.006
		c-9.001,18.002-12.001,36.004-15.001,57.006c-3-12.001-15.002-24.002-18.002-36.004c-3,15.001,0,33.003,6.001,51.005
		c-3-15.001-12.001-27.003-18.002-42.004c-3,21.002-3,39.004,0,60.006c-6.001-21.002-12.001-39.004-21.002-57.006
		c3,18.002,6.001,36.004,12.001,54.005c-6.001-18.002-12.001-36.004-21.002-51.005c0,21.002,3,42.004,3,63.006
		c-12.001-15.002-21.002-33.003-36.004-48.005c3,15.002,0,36.004,0,48.005c-9.001-12.001-21.002-24.002-33.003-36.004
		c-3,15.001-3,33.003,0,48.005c-6.001-12.001-21.002-21.002-27.003-33.003c0,18.002,0,33.003,3,51.005
		c-24.002-9.001-42.004-27.003-69.007-30.003c0,12.001-12.001,24.002-12.001,36.004c-6.001-9.001-18.002-15.002-21.002-24.002
		c-3,12.001-6.001,27.003,0,42.004c-12.001-12.001-24.002-24.002-39.004-33.003c3,9.001-3,27.003,0,39.004
		c-6.001-9.001-18.002-15.002-21.002-18.002c0,12.001-6.001,27.003,0,42.004c-6.001-15.001-15.002-24.002-24.002-36.004
		c-3,9.001-15.001,18.002-18.002,24.002c-15.002-12.001-33.003-9.001-45.005,6.001c-3-6.001-3-12.001-6.001-15.002
		c0-3-9.001,3-9.001,6.001c0-6.001,0-6.001-3-9.001c-12.001,3-6.001,9.001-9.001,12.001L346.723,911.893z"/>
</g>
<g opacity="0.6">
	<path fill="#282722" d="M1222.811,809.883c1.677,3.586-7.249-9.849-8.488-14.158c-0.354,5.354-2.365,10.972-2.621,16.209
		c-2.001-7.39-7.942-15.224-10.117-22.728c-0.398,3.682-4.122,16.244-3.384,23.786c-2.93-6.237-9.275-14.251-11.105-22.831
		c2.796,10.204,3.808,21.805,1.741,32.04c-6.321-13.64-10.309-27.907-13.731-42.546c3.21,12.056,4.074,24.348,0.562,36.05
		c-6.792-16.625-12.579-33.835-20.24-50.182c-2.773,16.191-0.034,34.769-4.873,51.491c-14.198-15.381-21.904-37.607-29.215-57.162
		c8.489,22.524,14.588,52.273-0.302,73.264c-18.172-19.272-27.7-50.933-36.497-76.067c9.045,24.01,16.797,44.091,15.511,70.139
		c-11.914-19.745-21.948-43.329-24.726-66.29c17.033,9.175,33.545,34.098,40.176,52.687c-0.79-13.243-2.13-26.465-4.139-39.579
		c5.401,15.13,12.066,30.657,12.318,46.825c-8.517-14.506-16.119-31.285-23.363-47.118c8.509,17.267,10.098,38.622,7.934,57.582
		c-9.811-13.539-14.51-32.277-17.523-48.821c10.259,8.06,14.436,20.629,11.736,33.36c-8.475-9.565-13.81-22.732-15.718-36.002
		c11.865,14.345,19.132,32.235,22.338,50.523c-1.631-11.335-0.964-23.252,2.743-34.064c18.758-2.756,30.391,24.353,33.31,40.77
		c-12.866-3.63-17.627-18.754-18.523-32.489c9.619,3.679,17.579,13.234,24.971,22.046c-2.623-16.694-8.568-32.439-11.677-49.05
		c11.015,14.882,19.967,37.204,19.631,55.137c-5.7-22.174-13.549-49.249-8.207-70.684c13.892,13.525,21.824,31.722,29.07,49.213
		c1.356-25.303-0.858-50.789,0.479-76.136c13.045,19.545,21.036,44.486,21.201,68.261c-3.798-16.047-6.544-32.298-6.867-48.837
		c6.053,12.578,9.272,28.842,12.151,43.454c-0.92-8.318,3.477-16.632,4.436-24.064c9.511,9.454,17.972,20.843,29.294,27.482
		c6.509-12.864,8.629-28.236,15.161-39.942c7.546,8.809,13.846,19.018,20.26,28.539c0.64-19.452,3.807-38.684,6.224-57.971
		c2.012,11.266,4.296,22.482,6.85,33.637c5.259-15.532,8.176-34.392,22.277-44.58c9.159,7.176,19.584,13.097,30.271,17.076
		c2.734-26.432,1.194-55.732-4.65-81.975c-5.191,22.573-0.452,46.193-8.942,67.983c-9.292-21.269-0.265-45.781-12.135-66.807
		c-9.077,22.861-4.198,50.697-8.781,74.881c-6.407-24.075-2.972-55.863-15.37-76.57c-2.125,34.052,0.862,67.14-6.454,100.786
		c-5.792-32.586-8.224-66.472-17.693-98.24c-1.003,31.27,2.974,63.778-4.062,94.551c-6.468-27.221-5.693-57.279-18.45-83.055
		c-5.386,29.694-1.906,65.517-1.73,97.039c0.884-32.239-2.29-65.395-13.437-95.838c-10.165,30.497,10.297,72.408-1.361,101.661
		c-7.715-32.826-12.627-64.964-24.319-96.89c-1.29,34.633,13.671,68.455,8.698,103.388c-6.182-28.972-11.603-58.818-26.118-85.076
		c1.964,30.743,10.306,61.413,8.058,92.624c-6.771-26.548-11.117-53.479-22.488-78.772c4.543,29.133,13.071,58.092,10.556,87.777
		c-19.297-23.607-18.436-69.012-32.188-98.075c1.987,38.429,16.317,78.489,9.676,116.948
		c-13.643-39.693-15.257-83.586-33.668-121.673c-7.332,42.594,25.997,89.258,12.666,131.507
		c-9.527-42.274-13.333-96.044-36.668-133.236c0.534,35.898,12.274,71.652,14.929,107.834c-4.152-31.794-7.18-68.526-23.582-96.745
		c-4.528,34.181,1.012,72.229,7.508,105.808c-2.736-14.466-16.64-41.282-14.337-55.1c-2.999,17.999-2.998,35.998,0.001,53.997
		c-6-18.002-15.001-36.004-24.002-51.005c0,18.002,0,36.004,3,54.005c-6.001-18.002-15.001-36.004-24.002-54.005
		c3,15.002,6.001,33.003,12.001,48.005c-6-15.001-12.001-33.003-21.002-51.005c0,18.002,0,36.004,6.001,51.005
		c-9.001-21.002-18.002-39.004-30.003-54.005c0,18.002,3,36.004,6.001,51.005c-9.001-15.001-18.002-30.003-30.003-45.005
		c-3,18.002-3,36.004,0,54.005c-6.001-15.002-15.002-24.002-24.002-36.004c0,18.002,6.001,36.004,15.001,54.005
		c-9.001-15.001-21.002-27.003-33.003-39.004c0,18.002,6.001,39.004,12.001,57.006c-6.001-15.002-15.002-24.002-24.002-36.004
		c-3,15.002,0,33.003,6.001,45.005c-3-6.001-9.001-15.002-15.001-21.002c0,15.002,6.001,30.003,15.001,45.005l-36.004,54.005
		c-6.001-3-12.001-45.005-15.001-63.006c6.001,18.002,12.001,33.003,18.002,48.005c3-18.002,0-36.004-3-57.006
		c6.001,21.002,12.001,42.004,18.002,60.006c0-24.002-3-48.005-6.001-72.007c15.001,27.003,24.002,60.006,36.004,87.009
		c9.001-30.003-9.001-72.007-12.001-105.01c9.001,33.003,21.002,69.007,30.003,105.01c0-39.004-12.001-78.008-12.001-117.012
		c21.002,33.003,21.002,78.008,33.003,117.012c0-42.004-6.001-78.008-9.001-117.012c12.001,33.003,15.002,69.007,24.002,105.01
		c0-42.004-9.001-81.008-12.001-120.012c12.001,27.003,15.001,57.006,21.002,87.009c0-30.003-9.001-63.006-6.001-90.009
		c12.001,24.002,15.002,48.005,21.002,72.007c0-24.002-6.001-51.005-6.001-75.008c6.001,18.002,12.001,45.005,15.002,66.007
		c3-30.003-3-60.006-3-90.009c12.001,27.003,15.002,60.006,21.002,90.009c0-30.003-12.001-63.006-6-90.009
		c6,18.002,12.001,39.004,15.001,57.006c3-18.002,0-39.004-3-60.006c3,21.002,9.001,42.004,12.001,60.006
		c3-15.001,3-33.003,0-48.005c3,15.001,9.001,30.003,12.001,45.004c0-12.001,3-24.002,0-36.004
		c3,15.002,12.001,33.003,15.001,45.005c0-9.001,3-21.002,0-33.003c3,12.001,9.001,21.002,9.001,33.003c0-15.001,3-27.003,3-42.004
		c3,15.002,9.001,30.003,12.001,39.004c0-9.001,0-21.002,0-33.003c3,15.002,6.001,27.003,9.001,42.004
		c-3-9.001-6.001-15.002-6.001-21.002c0,12.001-9.001,27.003-9.001,39.004c-9.001-9.001-24.002-15.002-30.003-27.003
		c0,12.001-3,27.003,0,39.004c-3-15.001-6-30.003-9.001-45.005c3,15.002,3,33.003,6.001,51.005c-3-12.001-6.001-21.002-9.001-33.003
		c0,12.001-3,30.003-3,42.004c-12.001-12.001-24.002-24.002-33.003-36.004c0,9.001-6.001,24.002-3,36.004
		c-6.001-12.001-15.002-21.002-18.002-30.003c0,9.001,0,21.002,3,33.003c-9.001-15.002-18.002-27.003-27.003-42.004
		c0,3-6.001,15.001-3,24.002c-18.002-18.002-36.004-42.004-60.006-54.005c3,15.001,0,27.003,9.001,42.004
		c-9.001-15.002-18.002-27.003-30.003-39.004c-3,21.002,3,42.004,9.001,63.006c-6.001-18.002-18.002-36.004-33.003-51.005
		c3,21.002,9.001,42.004,18.002,63.006c-9.001-24.002-24.002-48.005-45.005-63.006c-6.001,24.002,3,51.005,24.002,66.007
		c3-15.001,3-18.002-3-36.004c0,21.002,6.001,42.004,21.002,57.006c6.001-18.002,3-36.004,0-54.005
		c6.001,24.002,15.002,51.005,36.004,63.006c9.001-15.002,9.001-33.003,3-51.005c9.001,21.002,18.002,39.004,36.004,51.005
		c0-15.002,6.001-27.003,3-42.004c6.001,12.001,15.002,30.003,24.002,39.004c3-12.001,6.001-24.002,3-39.004
		c3,12.001,12.001,24.002,18.002,36.004c6.001-18.002,6.001-36.004,3-51.005c3,15.002,12.001,27.003,18.002,39.004
		c0-12.001,3-27.003,0-42.004c3,12.001,12.001,24.002,15.001,33.003c0-12.001,3-24.002,3-36.004
		c3,12.001,9.001,27.003,12.001,39.004c0-12.001,0-27.003,0-39.004c3,9.001,6.001,15.002,9.001,24.002c0-9.001,3-24.002,3-33.003
		c6.001,9.001,15.002,21.002,18.002,33.003c3-15.002,3-33.003,3-48.005c3,9.001,9.001,21.002,12.001,33.003
		c0-12.001,3-27.003,0-39.004c3,9.001,9.001,24.002,12.001,33.003c0-15.001,0-33.003-3-48.005c3,12.001,6.001,21.002,9.001,30.003
		c-3-18.002-6.001-39.004-9.001-57.006c3,12.001,6.001,24.002,9.001,36.004c-3-21.002-9.001-42.004-15.001-60.006
		c0,15.002,0,33.003,0,48.005c-3-18.002-9.001-36.004-18.002-51.005c-2.637,13.185-5.274,26.371-3.837,39.556L1222.811,809.883z"/>
</g>
</svg>
