<?xml version="1.0" encoding="utf-8"?>
<!-- Generator: Adobe Illustrator 17.0.0, SVG Export Plug-In . SVG Version: 6.00 Build 0)  -->
<!DOCTYPE svg PUBLIC "-//W3C//DTD SVG 1.1//EN" "http://www.w3.org/Graphics/SVG/1.1/DTD/svg11.dtd">
<svg version="1.1" id="Layer_1" xmlns="http://www.w3.org/2000/svg" xmlns:xlink="http://www.w3.org/1999/xlink" x="0px" y="0px"
	 width="2048px" height="1536px" viewBox="0 0 2048 1536" enable-background="new 0 0 2048 1536" xml:space="preserve">
<g opacity="0.6">
	<path fill="#8A8E5C" d="M698.791,460.264c-99.01,39.004-90.009,150.015-183.018,189.019
		c-78.008,33.003-156.016,33.003-234.023,39.004c-78.008,6.001-117.012,51.005-174.017,96.01
		C71.729,814.299-24.281,868.305,5.722,934.311c12.001,21.002,45.005,15.002,57.006,39.004
		c12.001,27.003-12.001,54.005-15.001,78.008c0,21.002,0,57.006,18.002,72.007c27.003,24.002,30.003,0,60.006-3
		c105.01-9.001,225.022,165.016,306.031,54.005c36.004-48.005,48.005-123.012,120.012-114.011
		c60.006,6.001,102.01,63.006,156.016,84.008c99.01,42.004,162.016-15.001,240.024-69.007
		c111.011-78.008,240.024-57.006,366.037-45.005c93.009,6.001,129.013,3,204.02-45.005c75.008-48.005,153.015-36.004,234.023-63.006
		c93.009-33.003,177.018-111.011,258.026-165.017c42.004-30.003,87.009-135.013,24.002-174.017c-18.002-12.001-57.006,0-78.008-3
		c-36.004-3-57.006-15.001-87.009-39.004c-45.005-36.004-87.009-57.006-144.014-69.007c-54.005-9.001-41.152-126.399-92.157-138.4
		c-48.005-9.001-119.718-47.619-161.722-68.621c-93.009-42.004-202.167,78.008-304.177,63.006"/>
</g>
</svg>
