<?xml version="1.0" encoding="utf-8"?>
<!-- Generator: Adobe Illustrator 17.0.0, SVG Export Plug-In . SVG Version: 6.00 Build 0)  -->
<!DOCTYPE svg PUBLIC "-//W3C//DTD SVG 1.1//EN" "http://www.w3.org/Graphics/SVG/1.1/DTD/svg11.dtd">
<svg version="1.1" id="Layer_1" xmlns="http://www.w3.org/2000/svg" xmlns:xlink="http://www.w3.org/1999/xlink" x="0px" y="0px"
	 width="2048px" height="1536px" viewBox="0 0 2048 1536" enable-background="new 0 0 2048 1536" xml:space="preserve">
<path fill="#4C4B48" d="M260.327,965.681c0,0,220.956-297.677,438.843-346.778s162.648-6.138,196.405,0
	c33.757,6.138,22.251-28.091,89.381-23.252c67.13,4.839,122.369,57.009,165.332,41.665
	c42.964-15.344,168.786-98.203,239.369-116.616c70.583-18.413,398.948,222.49,398.948,222.49v235.505L260.327,965.681z"/>
<g opacity="0.3">
	<path fill="#605937" d="M800.205,616.409c-168.017-9.001-291.029,135.013-414.041,222.022l0,0
		c57.006,27.003-33.003,54.005-45.004,75.008c-36.004,66.007,54.005,36.004,84.008,21.002
		c33.003-18.002,75.008-69.007,108.011-78.008c78.008-18.002,3,51.005,6.001,81.008c27.003,6.001,45.005-9.001,69.007-15.002
		c33.003-6.001,48.005,9.001,75.008,9.001c33.003,0,42.004-21.002,72.007-30.003c27.003-9.001,54.005,0,78.008-12.001
		c-27.003-27.003-75.008-30.003-102.01-60.006c-42.004-51.005,12.001-63.006,48.005-96.01
		c51.005-42.004,39.004-165.016-24.002-105.01L800.205,616.409z"/>
</g>
<g opacity="0.3">
	<path fill="#605937" d="M672.786,754.858c6.001-33.003,83.535-47.108,113.538-50.108c39.004-3,46.128-52.294,85.132-61.295
		c48.005-12.001,81.519-82.516,126.523-67.514c30.003,12.001,218.71,77.543,221.711,113.547
		c3.457,179.383-226.896,122.377-271.901,140.379c-60.006,27.003-100.987,0-160.993,3c-36.004,6.001-270.027,141.014-297.03,105.01
		c-15.002-15.002,78.689-174.017,153.015-180.018c28.213-2.278,9.001-24.002,45.005-21.002L672.786,754.858z"/>
</g>
<g opacity="0.3">
	<path fill="#605937" d="M984.817,775.86c-39.004-45.004-153.015-18.002-195.019,9.001
		c-57.006,36.004-174.017,93.009-159.016,177.018c15.002,72.007,156.016,30.003,210.021,3c39.004-18.002,54.005-45.005,99.01-51.005
		c42.004-6.001,66.007-12.001,105.01-33.003c45.005-24.002,72.007-39.004,18.002-75.007c-21.002-15.002-72.007-39.004-96.01-33.003
		L984.817,775.86z"/>
</g>
</svg>
