<?xml version="1.0" encoding="utf-8"?>
<!-- Generator: Adobe Illustrator 17.0.0, SVG Export Plug-In . SVG Version: 6.00 Build 0)  -->
<!DOCTYPE svg PUBLIC "-//W3C//DTD SVG 1.1//EN" "http://www.w3.org/Graphics/SVG/1.1/DTD/svg11.dtd">
<svg version="1.1" id="Layer_1" xmlns="http://www.w3.org/2000/svg" xmlns:xlink="http://www.w3.org/1999/xlink" x="0px" y="0px"
	 width="2048px" height="1536px" viewBox="0 0 2048 1536" enable-background="new 0 0 2048 1536" xml:space="preserve">
<g>
	<path fill="#8A8E5C" d="M1712.784,474.797c-44-28-52,4-88,12s-112-24-116,36c-40,4-140-28-132,44c-68-4-104,16-116,84
		c-4,12,12,24,12,40c-4,12-20,24-20,40c-8,40-12,48,16,80c20,24,36,20,56,52c8,20-4,44,16,60c36,36,92-8,144,8c24,4,44,40,72,36
		c24-8,36-56,68-72c68-20,100,48,152,8c20-12,28-44,56-60c44-28,56,0,76-56c12-48-12-72-24-112c-12-44-4-40,0-80
		c8-136-104-60-172-116V474.797z"/>
</g>
<g>
	<path fill="#8A8E5C" d="M436.784,858.797c-44-4-128,48-136,92c48,0,112,0,152-8c52-4,124-104,40-64c-12-28-40-24-64-16
		L436.784,858.797z"/>
</g>
</svg>
