<?xml version="1.0" encoding="utf-8"?>
<!-- Generator: Adobe Illustrator 17.0.0, SVG Export Plug-In . SVG Version: 6.00 Build 0)  -->
<!DOCTYPE svg PUBLIC "-//W3C//DTD SVG 1.1//EN" "http://www.w3.org/Graphics/SVG/1.1/DTD/svg11.dtd">
<svg version="1.1" id="Layer_1" xmlns="http://www.w3.org/2000/svg" xmlns:xlink="http://www.w3.org/1999/xlink" x="0px" y="0px"
	 width="2048px" height="1536px" viewBox="0 0 2048 1536" enable-background="new 0 0 2048 1536" xml:space="preserve">
<g>
	<path fill="#8A8E5C" d="M1251.811,396.919c-32-68,100-84,144-76c8,4,104,40,108,44c4,8-40,100-52,108c-20,20-40,0-56,12
		c-20,12-16,40-44,52c-28,16-44-4-72-4c-20,0-44,16-64,16c-48,0-92-20-100-60c4,16,24-72,12-56c12-16,12-32,44-28c12-40,52-32,76-8
		H1251.811z"/>
</g>
<g>
	<path fill="#8A8E5C" d="M1191.811,656.919c-36-24-48-16-76-4c-4,4-48,36-52,40c-4,8-20,8-28,16s4,28,0,32c-44,56-56,44,16,48
		c32,4,92,20,124,8c20-8,20-32,40-44c24-8,40,20,64,16c12-4,108-56,108-72c0-8-172-56-204-40H1191.811z"/>
</g>
<g>
	<path fill="#8A8E5C" d="M903.811,556.919c-36-20-92,20-88,60c48,0,88-24,128-48c-16,0-32-4-48-4L903.811,556.919z"/>
</g>
<path fill="#9B8C80" d="M1580.789,1083.895v-89.97h-30.468v89.97c0,0-2.344-26.582-16.406-44.985c-14.062-18.403-28.124,0-28.124,0
	v51.119h-16.406v-85.881l-32.812,4.09v81.791h-35.155l-11.718-96.104h-14.062v-36.806h-16.406v22.162l-9.375,8.509l9.375,102.239
	l-30.468,8.179v-53.164l-25.781-40.896l-18.749,23.515v48.052l-37.499,2.045v-50.097h-14.062v-21.47v-92.015h-9.375v108.373v53.164
	h-18.749v-69.522h-30.468v73.612l-11.718,18.403l-9.375-92.015l-44.53-44.985v120.642l-23.437-4.09v-57.254l-28.124-41.226
	l-11.718,26.912v59.299l-16.406-6.134l-11.718-157.448l-25.781,49.075v114.507l-11.718,6.134v-44.985h-39.843v36.806l-14.062,2.045
	V901.91h-30.468v167.672l-16.406-10.224V940.76l-16.7,4.09v34.431h-30.174l16.393,88.255h-30.456v-53.164l-49.217-6.134v71.567
	l-11.718-4.09v-96.434h-49.217V901.91h-28.124v167.672l-23.437-4.089l-14.062-75.657l-23.437-2.045v51.119l-21.093,2.045v-20.448
	l-28.124,2.045v-22.493l-21.093,8.179v-57.254l-33.9-2.045v73.612l-41.098,8.179l9.375,100.194l1078.093,32.716V1083.895z"/>
</svg>
