<?xml version="1.0" encoding="utf-8"?>
<!-- Generator: Adobe Illustrator 17.0.0, SVG Export Plug-In . SVG Version: 6.00 Build 0)  -->
<!DOCTYPE svg PUBLIC "-//W3C//DTD SVG 1.1//EN" "http://www.w3.org/Graphics/SVG/1.1/DTD/svg11.dtd">
<svg version="1.1" id="Layer_1" xmlns="http://www.w3.org/2000/svg" xmlns:xlink="http://www.w3.org/1999/xlink" x="0px" y="0px"
	 width="2048px" height="1536px" viewBox="0 0 2048 1536" enable-background="new 0 0 2048 1536" xml:space="preserve">
<polygon fill="#4F4F4F" points="636,948 1028.15,689 1412,709.442 1324,948 "/>
<polygon fill="#443E36" points="947.15,948 1261.853,692.521 1315,708.632 1187.889,948 "/>
<g>
	<path fill="#564D3B" d="M967.134,721.136c-8-22-28-76-4-94c10-6,22,2,28-2c10-6,10-20,22-26c18-8,46,0,66-4c36-8,36,2,70,16
		c20,6,58.421-6.136,78.421-2.136c24,6,27.579,20.136,49.579,24.136c24,4,64.587-14.136,88.587-12.136
		c36,4,25.413,36.136,21.413,72.136c-10,76-52,40-104,66c-56,26-74,32-136,22c-24-2-48,2-72,2c-28,0-36-8-62-14c-22-8-50,8-62-16
		s14-36,8-58L967.134,721.136z"/>
</g>
</svg>
