<?xml version="1.0" encoding="utf-8"?>
<!-- Generator: Adobe Illustrator 17.0.0, SVG Export Plug-In . SVG Version: 6.00 Build 0)  -->
<!DOCTYPE svg PUBLIC "-//W3C//DTD SVG 1.1//EN" "http://www.w3.org/Graphics/SVG/1.1/DTD/svg11.dtd">
<svg version="1.1" id="Layer_1" xmlns="http://www.w3.org/2000/svg" xmlns:xlink="http://www.w3.org/1999/xlink" x="0px" y="0px"
	 width="2048px" height="1536px" viewBox="0 0 2048 1536" enable-background="new 0 0 2048 1536" xml:space="preserve">
<g>
	<path fill="#77959A" d="M648.893,111.223c-150.015,0-303.03-15.002-438.044,63.006c-135.014,81.008-81.008,243.024,6.001,345.034
		c66.007,72.007,162.016,24.002,246.025,3c123.012-33.003,231.023-84.008,357.036-102.01c63.006-9.001,90.009-21.002,147.015-9.001
		c39.004,9.001,78.008,18.002,117.012,15.001c87.009-3,132.013-45.005,222.022-12.001
		c126.013,45.005,252.025,114.011,387.039,90.009c114.011-18.002,243.024-114.011,216.022-243.024
		C1870.015,63.218,1668.995,84.22,1515.979,84.22c-144.014,0-288.029,18.002-432.043,15.002c-84.008-3-165.016-15.002-249.025-3
		c-45.005,6.001-90.009,15.002-138.014,15.002c-24.002,0-48.005-6.001-66.007,6.001L648.893,111.223z"/>
</g>
<g>
	<path fill="#AFAE97" d="M1056.933,419.962c-39.004-20.806-96.01-11.889-141.014-14.862c-57.006-5.945-108.011-11.889-165.017,2.972
		c-159.016,41.612-321.032,11.889-480.048,44.585c-72.007,14.862-141.014,62.418-132.013,139.698
		c3,41.612,27.003,83.225,33.003,127.809c6.001,47.557-15.001,83.225-27.003,127.809c-30.003,127.809-60.006,279.397,60.006,359.649
		c75.008,53.501,189.019,71.335,279.028,83.224c57.006,5.945,111.011,2.972,168.017,2.972c81.008,0,150.015,53.501,234.023,50.529
		c102.01-5.945,204.02-68.363,312.031-53.501c96.01,11.889,162.016,47.557,255.026,0c69.007-35.668,117.012-92.141,171.017-139.698
		c75.007-62.418,168.017-92.141,240.024-157.532c120.012-109.975,183.018-413.15-12.001-496.375
		c-99.01-44.585-198.02-23.778-297.03-23.778c-84.008,0-138.014-68.363-219.022-83.225c-48.005-8.917-111.011-26.751-159.016-14.862
		c-39.004,8.917-72.007,41.612-114.011,44.585c-3,0-9.001-2.972-9.001-2.972L1056.933,419.962z"/>
</g>
</svg>
