<?xml version="1.0" encoding="utf-8"?>
<!-- Generator: Adobe Illustrator 17.0.0, SVG Export Plug-In . SVG Version: 6.00 Build 0)  -->
<!DOCTYPE svg PUBLIC "-//W3C//DTD SVG 1.1//EN" "http://www.w3.org/Graphics/SVG/1.1/DTD/svg11.dtd">
<svg version="1.1" id="Layer_1" xmlns="http://www.w3.org/2000/svg" xmlns:xlink="http://www.w3.org/1999/xlink" x="0px" y="0px"
	 width="2048px" height="1536px" viewBox="0 0 2048 1536" enable-background="new 0 0 2048 1536" xml:space="preserve">
<g>
	<path fill="#8D9316" d="M220.129,230.434c-8-24,12-52,32-64c28-12,48,8,72,4c28-8,56-48,84-44c84,20,44,148-40,148
		c-48,0-104-20-152-28c0-8,0-16,4-20V230.434z"/>
</g>
<g>
	<path fill="#5D6B0B" d="M20.129,310.434c8-56,0-256,80-228c48,20,44,88,92,112c32,16,92,20,124,28c44,12,112,4,116,64
		c4,84-72,52-120,40c-44-12-104-24-152-24c-32,0-112,48-132,16c-4-4-8-16-8-24V310.434z"/>
</g>
<g>
	<path fill="#727C16" d="M392.129,332.434c-20-40,0-140,32-168c60-48,88,140,124,44c24,40,60,12,80,48c20,48-28,68-60,76
		c-48,12-172,24-176-44V332.434z"/>
</g>
<g>
	<path fill="#443C3B" d="M24.129,291.434c32-16,136-16,184-8c104,24,192,24,296,16c48-4,96-8,144-4c52,4,92,24,16,52
		c-40,16-100,16-144,32s-84,32-128,48c-36,12-64,8-92,12c-8,0-24-16-40-12c-20,0-28,24-44,28c-68,4-104-64-184-32
		c-8-44-44-140,28-136L24.129,291.434z"/>
</g>
<polygon fill="#686865" points="95.838,299.838 73.838,342.498 157.838,321.168 "/>
<polygon fill="#686865" points="115.838,278.303 147.897,304.024 177.838,291.163 "/>
<polygon fill="#686865" points="157.838,351.838 207.838,299.838 241.838,351.838 "/>
<polygon fill="#686865" points="99.838,351.838 133.838,341.729 133.838,385.838 "/>
<polygon fill="#686865" points="167.838,366.892 157.838,409.838 233.838,366.892 "/>
<polygon fill="#686865" points="45.838,366.892 83.838,385.838 45.838,409.838 "/>
<polygon fill="#686865" points="28.129,318.434 56.838,341.729 64.838,299.838 "/>
<polygon fill="#686865" points="99.838,399.838 115.838,399.838 177.838,429.838 "/>
<polygon fill="#686865" points="195.838,409.838 207.838,429.838 317.838,341.729 "/>
<polygon fill="#686865" points="241.838,310.664 256.838,341.729 338.164,321.168 "/>
<polygon fill="#686865" points="290.001,388.365 384.121,321.168 338.164,414.838 "/>
<polygon fill="#686865" points="384.121,385.784 405.838,399.838 405.838,351.838 "/>
<polygon fill="#686865" points="414.814,325.838 432.281,363.784 454.576,339.242 "/>
<polygon fill="#686865" points="434.695,388.365 489.838,326.197 519.838,357.281 "/>
<polygon fill="#686865" points="519.838,320.784 533.838,333.838 583.838,304.024 "/>
<polygon fill="#686865" points="573.838,341.729 616.199,310.664 632.853,333.838 "/>
<polygon fill="#686865" points="645.838,310.664 657.838,326.197 675.838,318.431 "/>
</svg>
