<?xml version="1.0" encoding="utf-8"?>
<!-- Generator: Adobe Illustrator 17.0.0, SVG Export Plug-In . SVG Version: 6.00 Build 0)  -->
<!DOCTYPE svg PUBLIC "-//W3C//DTD SVG 1.1//EN" "http://www.w3.org/Graphics/SVG/1.1/DTD/svg11.dtd">
<svg version="1.1" id="Layer_1" xmlns="http://www.w3.org/2000/svg" xmlns:xlink="http://www.w3.org/1999/xlink" x="0px" y="0px"
	 width="2048px" height="1536px" viewBox="0 0 2048 1536" enable-background="new 0 0 2048 1536" xml:space="preserve">
<linearGradient id="SVGID_1_" gradientUnits="userSpaceOnUse" x1="1094.892" y1="29.7497" x2="1094.892" y2="1279.3971">
	<stop  offset="0" style="stop-color:#5E5448"/>
	<stop  offset="1" style="stop-color:#91817B"/>
</linearGradient>
<rect x="906.119" y="29.75" fill="url(#SVGID_1_)" width="377.547" height="1249.647"/>
<rect x="967.93" y="29.75" fill="#444444" width="126.962" height="79.141"/>
<polygon fill="#444444" points="1178.255,37.762 1167.121,90.762 1235.344,90.762 1254.267,37.762 "/>
<rect x="967.93" y="149.867" fill="#444444" width="63.481" height="127.091"/>
<rect x="1067.525" y="149.867" fill="#444444" width="84.034" height="173.776"/>
<polygon fill="#444444" points="1178.255,149.867 1178.255,236.755 1254.267,224.54 1235.344,149.867 "/>
<polygon fill="#444444" points="967.93,308.081 1031.411,308.081 1031.411,426.762 952.368,426.762 "/>
<polygon fill="#444444" points="1067.525,357.453 1067.525,426.762 1235.344,426.762 1235.344,339.205 "/>
<polygon fill="#444444" points="1178.255,258.284 1192.096,308.081 1235.344,308.081 1254.267,237.642 "/>
<rect x="967.93" y="465.157" fill="#444444" width="164.54" height="139.605"/>
<rect x="1167.121" y="476.161" fill="#444444" width="87.146" height="108.92"/>
<rect x="967.93" y="654.573" fill="#444444" width="126.962" height="67.451"/>
<polygon fill="#444444" points="1132.47,654.573 1132.47,808.135 1235.344,808.135 1216.261,654.573 "/>
<polygon fill="#444444" points="967.93,746.75 1067.525,746.75 1067.525,908.766 967.93,922.514 "/>
<rect x="1118.807" y="870.762" fill="#444444" width="116.537" height="140.856"/>
<polygon fill="#444444" points="952.368,957.459 1067.525,942.762 1067.525,1031.883 936.128,1031.883 "/>
</svg>
