<?xml version="1.0" encoding="utf-8"?>
<!-- Generator: Adobe Illustrator 17.0.0, SVG Export Plug-In . SVG Version: 6.00 Build 0)  -->
<!DOCTYPE svg PUBLIC "-//W3C//DTD SVG 1.1//EN" "http://www.w3.org/Graphics/SVG/1.1/DTD/svg11.dtd">
<svg version="1.1" id="Layer_1" xmlns="http://www.w3.org/2000/svg" xmlns:xlink="http://www.w3.org/1999/xlink" x="0px" y="0px"
	 width="2048px" height="1536px" viewBox="0 0 2048 1536" enable-background="new 0 0 2048 1536" xml:space="preserve">
<polygon fill="#995650" points="90.747,980.377 579.003,469.418 944.119,469.418 944.119,980.377 "/>
<polygon fill="#995650" points="1516.073,989.561 1188.83,478.603 944.119,478.603 944.119,989.561 "/>
<polygon fill="#967268" points="583.096,502.266 578.76,848.104 944.119,848.104 944.119,502.266 "/>
<polygon fill="#967268" points="795.785,502.266 791.449,848.104 1156.807,848.104 1156.807,502.266 "/>
<polygon fill="#967268" points="569.785,520.099 559.278,850.877 514.314,980.377 293.119,980.377 "/>
<polygon fill="#967268" points="1170.47,502.266 1178.284,862.016 1211.722,991.516 1376.219,991.516 "/>
<polygon fill="#967268" points="108.5,974.272 579.003,469.418 944.119,469.418 944.119,485.223 578.76,485.223 221.008,980.377 "/>
<polygon fill="#967268" points="1488.392,974.272 1181.934,469.418 944.119,469.418 944.119,485.223 1182.092,485.223 
	1415.111,980.377 "/>
</svg>
