<?xml version="1.0" encoding="UTF-8" standalone="no"?>
<!-- Created with Inkscape (http://www.inkscape.org/) -->

<svg
   xmlns:dc="http://purl.org/dc/elements/1.1/"
   xmlns:cc="http://creativecommons.org/ns#"
   xmlns:rdf="http://www.w3.org/1999/02/22-rdf-syntax-ns#"
   xmlns:svg="http://www.w3.org/2000/svg"
   xmlns="http://www.w3.org/2000/svg"
   xmlns:sodipodi="http://sodipodi.sourceforge.net/DTD/sodipodi-0.dtd"
   xmlns:inkscape="http://www.inkscape.org/namespaces/inkscape"
   width="744.09448819"
   height="1052.3622047"
   id="svg13417"
   version="1.1"
   inkscape:version="0.48.2 r9819"
   sodipodi:docname="New document 11">
  <defs
     id="defs13419" />
  <sodipodi:namedview
     id="base"
     pagecolor="#ffffff"
     bordercolor="#666666"
     borderopacity="1.0"
     inkscape:pageopacity="0.0"
     inkscape:pageshadow="2"
     inkscape:zoom="0.35"
     inkscape:cx="375"
     inkscape:cy="520"
     inkscape:document-units="px"
     inkscape:current-layer="layer1"
     showgrid="false"
     inkscape:window-width="921"
     inkscape:window-height="592"
     inkscape:window-x="20"
     inkscape:window-y="20"
     inkscape:window-maximized="0" />
  <metadata
     id="metadata13422">
    <rdf:RDF>
      <cc:Work
         rdf:about="">
        <dc:format>image/svg+xml</dc:format>
        <dc:type
           rdf:resource="http://purl.org/dc/dcmitype/StillImage" />
        <dc:title></dc:title>
      </cc:Work>
    </rdf:RDF>
  </metadata>
  <g
     inkscape:label="Layer 1"
     inkscape:groupmode="layer"
     id="layer1">
    <path
       style="fill:#775f5b"
       inkscape:connector-curvature="0"
       d="m -374.82564,504.17197 v -151.528 h 39.895 v 151.529 c 0,0 3.069,-44.77 21.482,-75.764 18.413,-30.994 36.826,0 36.826,0 v 86.096 h 21.482 v -144.642 l 42.964,6.888 v 137.753 h 46.032 l 15.344,-161.86 h 18.413 v -61.989 h 21.482 v 37.326 l 12.274997,14.331 -12.274997,172.192 39.894997,13.775 v -89.54 l 33.757,-68.877 24.551,39.604 v 80.93 l 49.101,3.444 v -84.374 h 18.413 v -36.159 -154.973 h 12.275 v 182.523 89.54 h 24.551 v -117.09 h 39.895003 v 123.978 l 15.344,30.995 12.275,-154.972 58.308,-75.764 v 203.186 l 30.688,-6.888 v -96.427 l 36.826,-69.432 15.344,45.326 v 99.871 l 21.482,-10.331 15.344,-265.175 33.757,82.652 v 192.855 l 15.344,10.332 v -75.764 h 52.17 v 61.989 l 18.413,3.444 v -275.511 h 39.895 v 282.394 l 21.482,-17.219 v -199.742 l 21.866,6.888 v 57.989 h 39.51 l -21.465,148.641 h 39.879 v -89.54 l 64.446,-10.331 v 120.534 l 15.344,-6.888 v -162.416 h 64.445 v -130.31 h 36.826 v 282.394 l 30.688,-6.888 18.413,-127.422 30.688,-3.444 v 86.096 l 27.62,3.444 v -34.438 l 36.826,3.444 v -37.882 l 27.619,13.775 v -96.427 l 44.388,-3.444 v 123.978 l 53.81404,13.775 -12.275,168.748 -1411.66204,55.102 v -134.31 z"
       id="path8246" />
  </g>
</svg>
