<?xml version="1.0" encoding="utf-8"?>
<!-- Generator: Adobe Illustrator 17.0.0, SVG Export Plug-In . SVG Version: 6.00 Build 0)  -->
<!DOCTYPE svg PUBLIC "-//W3C//DTD SVG 1.1//EN" "http://www.w3.org/Graphics/SVG/1.1/DTD/svg11.dtd">
<svg version="1.1" id="Layer_1" xmlns="http://www.w3.org/2000/svg" xmlns:xlink="http://www.w3.org/1999/xlink" x="0px" y="0px"
	 width="2048px" height="1536px" viewBox="0 0 2048 1536" enable-background="new 0 0 2048 1536" xml:space="preserve">
<g>
	<path fill="#CCA075" d="M1091.66,558.881c1.729,34.587-15.564,48.422-50.151,53.61c-2.264,36.277,30.652,56.311,60.527,50.151
		c20.395-4.205,44.963,2.807,48.422-19.675c-15.564-13.835-24.211-99.65-55.339-84.086H1091.66z"/>
</g>
<g>
	<path fill="#CCA075" d="M989.629,686.853c12.105,5.188,24.211,8.647,36.316,13.835c0,15.564-12.105,29.399-20.752,43.234
		c10.376-5.188,22.482-6.917,32.858-8.647c3.459,6.917,5.188,17.293,5.188,25.94c-24.211,1.729-48.422,22.482-65.715,1.729
		c-13.835-15.564,5.188-53.61,12.105-74.362V686.853z"/>
</g>
<g>
	<path fill="#CCA075" d="M1153.917,712.793c-1.729,20.752,10.376,43.234,8.647,60.527c-1.729,15.564-17.293,24.211-22.482,39.775
		c-6.917,17.294-1.729,20.752,5.188,38.046c24.211-25.94,39.775-50.151,44.963-84.738c1.729-13.835,5.188-38.046-3.459-50.151
		c-10.376-19.023-13.835-10.376-34.587,0L1153.917,712.793z"/>
</g>
<g>
	<path fill="#CCA075" d="M1012.11,1117.461c-6.917-32.858,1.729-72.633-3.459-107.22c13.835-3.459,38.046-1.729,50.151,6.917
		c17.294,12.105,10.376,27.67,5.188,50.151c-3.459,12.105-6.917,43.234-13.835,50.151c-8.647,10.376-36.316,15.564-36.316-3.459
		L1012.11,1117.461z"/>
</g>
<g>
	<path fill="#CCA075" d="M1095.119,1127.837c-12.105-29.399-8.647-77.821-3.459-107.22c19.023-3.459,38.046-5.188,55.339,0
		c-3.459,29.399-10.376,127.972-55.339,107.22H1095.119z"/>
</g>
<g>
	<path fill="#44B9BC" d="M1039.78,610.761c-36.316-12.105-50.151,58.798-63.986,79.55c12.105,10.376,41.504,17.293,50.151,25.94
		c8.647,10.376,10.376,39.775,15.564,53.61c20.752,1.729,46.692,12.105,69.174,6.917c25.94-6.917,27.67-36.316,38.046-60.527
		c8.647,19.023,41.504-5.188,55.339-10.376c-12.105-17.294-8.647-41.504-19.023-58.798c-19.023-29.399-77.821,19.023-51.88,6.917
		c43.796-23.051-77.371,35.268-89.926-39.775L1039.78,610.761z"/>
</g>
<g>
	<g>
		<path fill="#3D8383" d="M1017.875,667.83c0.061,15.34,1.332,32.792,11.22,45.272c2.308,2.912,6.358-1.196,4.076-4.076
			c-8.798-11.103-9.478-27.647-9.532-41.196C1023.624,664.114,1017.86,664.112,1017.875,667.83L1017.875,667.83z"/>
	</g>
</g>
<g>
	<g>
		<path fill="#3D8383" d="M1160.075,685.398c-3.995,8.107-7.516,16.406-12.105,24.211c-1.888,3.211,3.095,6.11,4.977,2.909
			c4.589-7.805,8.11-16.104,12.105-24.211C1166.689,684.986,1161.718,682.064,1160.075,685.398L1160.075,685.398z"/>
	</g>
</g>
<g opacity="0.3">
	<path fill="#FFFFFF" d="M1046.697,519.106c-38.046,12.105-55.339,10.376-53.61-34.587c1.729-46.692,10.376-86.467-48.422-93.385
		c-48.422-5.188-105.49,5.188-114.137,58.798c-5.188,41.504,15.564,121.054,70.903,105.49c17.294-5.188,29.399-22.482,50.151-22.482
		c20.752,1.729,19.023,15.564,34.587,22.482C1019.028,570.986,1029.404,538.129,1046.697,519.106L1046.697,519.106z"/>
	<g>
		<path fill="#020202" d="M1046.468,518.272c-12.828,4.054-34.868,12.568-45.878,0.411c-5.688-6.28-6.378-16.353-6.692-24.343
			c-0.412-10.479,0.609-21.039,1.107-31.503c0.761-16.019,1.607-33.606-5.877-48.322c-8.089-15.904-26.322-22-42.916-24.055
			c-36.365-4.503-83.64-0.649-106.276,32.409c-10.328,15.083-11.93,33.341-10.61,51.061c1.296,17.405,5.534,34.875,13.212,50.583
			c6.774,13.858,17.337,26.681,32.343,31.76c7.549,2.555,15.69,2.417,23.415,0.822c10.497-2.167,19.082-8.829,27.923-14.476
			c10.886-6.953,23.947-12.007,36.42-5.919c7.668,3.742,11.748,12.279,18.71,17.076c7.432,5.121,17.554,7.741,26.44,5.939
			c8.024-1.627,14.384-7.642,19.499-13.659c7.153-8.414,12.646-18.097,20.022-26.339c0.741-0.828-0.478-2.055-1.223-1.223
			c-11.697,13.071-20.231,34.984-38.758,39.554c-10.715,2.643-23.282-2.928-30.68-10.522c-6.009-6.169-10.241-12.126-18.982-14.493
			c-22.926-6.207-39.288,17.712-59.831,22.395c-18.317,4.176-34.763-4.1-45.775-18.577c-10.976-14.43-16.559-32.767-19.503-50.432
			c-3.078-18.476-3.458-38.306,4.764-55.543c18.872-39.562,73.665-43.975,111.657-38.289c19.037,2.849,36.1,11.602,41.893,30.996
			c5.201,17.409,2.479,36.956,1.616,54.78c-0.667,13.772-2.796,34.956,10.055,44.391c11.655,8.557,31.123,1.321,43.111-2.412
			c0.425-0.134,0.85-0.268,1.275-0.403C1047.986,519.605,1047.534,517.935,1046.468,518.272z"/>
	</g>
</g>
<g>
	<path fill="#44B9BC" d="M944.666,965.278c12.105-41.504,50.151-84.738,70.903-124.513c13.835-27.67,12.105-41.504,44.963-41.504
		c24.211,0,48.422,12.105,70.903-1.729c15.564,38.046,38.046,76.091,55.339,115.866c5.188,15.564,36.316,44.963,34.587,60.527
		c-1.729,24.211-53.61,44.963-72.633,50.151c-3.459-3.459-8.647-6.917-10.376-10.376c1.729,3.459,0,10.376,1.729,15.564
		c-17.293,6.917-53.61,19.023-60.527-3.459c-1.729,17.294-20.752,20.752-36.316,19.023c-20.752-1.729-25.94-6.917-32.858-27.67
		c-6.917,3.459-15.564,3.459-22.482,5.188c-12.105-10.376-69.174-48.422-41.504-60.527L944.666,965.278z"/>
</g>
<g>
	<path fill="#54290C" d="M1069.955,772.104c31.505,0,58.021-14.349,61.48,11.592c6.917,50.151-123.514,47.958-88.197-17.294
		L1069.955,772.104z"/>
</g>
<g>
	<g>
		<path fill="#3D8383" d="M1045.648,852.104c-8.9,38.204-31.064,71.887-38.046,110.678c-0.654,3.633,4.9,5.187,5.558,1.532
			c6.982-38.791,29.146-72.474,38.046-110.678C1052.048,850.02,1046.491,848.485,1045.648,852.104L1045.648,852.104z"/>
	</g>
</g>
<g>
	<g>
		<path fill="#3D8383" d="M1071.485,858.058c-0.126,40.47-9.026,81.568-1.626,121.821c0.672,3.652,6.226,2.101,5.558-1.532
			c-7.29-39.651,1.708-80.411,1.832-120.288C1077.26,854.341,1071.496,854.342,1071.485,858.058L1071.485,858.058z"/>
	</g>
</g>
<g>
	<g>
		<path fill="#3D8383" d="M1104.343,866.705c2.033,31.666,12.024,62.445,24.604,91.381c1.479,3.401,6.443,0.463,4.977-2.909
			c-12.148-27.94-21.855-57.902-23.817-88.472C1109.87,863.015,1104.104,862.992,1104.343,866.705L1104.343,866.705z"/>
	</g>
</g>
<g>
	<path fill="#2D1C17" d="M1143.541,468.955c-27.67-15.564-70.903-5.188-84.738,24.211c-8.647,20.752-1.729,34.587,6.917,51.88
		c10.376,22.482,29.399,24.211,39.775,38.046c3.459,3.459,3.459,20.752,5.188,25.94c5.188,13.835,15.564,19.023,20.752,29.399
		c13.835,25.94,6.917,34.587,36.316,39.775c1.729,0,8.647-6.917,13.835-8.647c3.459,0,8.647,13.835,12.105,10.376
		c6.917-1.729,19.023-20.752,20.752-29.399c5.188-17.294,8.647-38.046,3.459-51.88c-1.729-6.917-15.564-6.917-17.293-13.835
		c-1.729-6.917,8.647-15.564,6.917-24.211c-5.188-19.023-19.023-20.752-34.587-17.294c-5.188-25.94,6.917-79.55-34.587-76.091
		L1143.541,468.955z"/>
</g>
<g>
	<g>
		<path fill="#020202" d="M852.189,428.136c1.435,7.882,2.727,15.843,4.611,23.632c0.241,0.998,1.626,0.702,1.698-0.23
			c0.53-6.87,0.601-13.8,2.275-20.52c-0.527,0.069-1.054,0.138-1.58,0.207c2.729,5.971,3.161,12.643,6.34,18.445
			c0.421,0.768,1.604,0.406,1.611-0.436c0.051-6.363,0.579-12.688,1.153-19.021c0.101-1.111-1.629-1.101-1.729,0
			c-0.574,6.333-1.102,12.658-1.153,19.021c0.537-0.145,1.074-0.291,1.611-0.436c-3.171-5.786-3.614-12.479-6.34-18.445
			c-0.318-0.695-1.41-0.476-1.58,0.207c-1.712,6.873-1.794,13.953-2.336,20.98c0.566-0.077,1.132-0.153,1.698-0.23
			c-1.884-7.79-3.177-15.75-4.611-23.632C853.657,426.58,851.99,427.046,852.189,428.136L852.189,428.136z"/>
	</g>
</g>
<g>
	<g>
		<path fill="#020202" d="M872.62,445.486c4.91-0.261,7.783-5.945,4.781-9.947c-0.371-0.494-1.147-0.618-1.493,0
			c-1.993,3.558-1.726,8.626,0.25,12.142c0.677,1.205,1.851,2.21,3.296,2.116c2.104-0.137,3.443-2.541,4.288-4.163
			c0.515-0.987-0.978-1.862-1.493-0.873c-0.592,1.136-1.535,3.224-3.041,3.322c-1.177,0.077-1.905-1.87-2.206-2.705
			c-0.997-2.768-1.062-6.358,0.4-8.967c-0.498,0-0.995,0-1.493,0c2.159,2.879,0.449,7.146-3.288,7.345
			C871.511,443.816,871.505,445.545,872.62,445.486L872.62,445.486z"/>
	</g>
</g>
<g>
	<g>
		<path fill="#020202" d="M886.488,423.26c-0.386-0.342-0.938-0.479-1.349-0.073c-0.351,0.347-0.302,0.801-0.202,1.239
			c0.287,1.264,0.845,2.483,1.259,3.71c0.354,1.051,2.024,0.6,1.667-0.46c-0.25-0.741-0.519-1.476-0.779-2.214
			c-0.127-0.36-0.25-0.722-0.365-1.087c-0.042-0.135-0.08-0.272-0.115-0.409c-0.067-0.259,0.011,0.193-0.242,0.443
			c-0.204,0.084-0.408,0.169-0.611,0.253c-0.162-0.06-0.324-0.12-0.485-0.18C886.097,425.219,887.324,424.001,886.488,423.26
			L886.488,423.26z"/>
	</g>
</g>
<g>
	<g>
		<path fill="#020202" d="M890.807,425.83c1.088,7.867,0.565,15.963,2.882,23.632c0.322,1.065,1.991,0.611,1.667-0.46
			c-2.312-7.652-1.795-15.776-2.882-23.632C892.322,424.27,890.656,424.74,890.807,425.83L890.807,425.83z"/>
	</g>
</g>
<g>
	<g>
		<path fill="#020202" d="M899.422,424.448c0.131,8.245,1.711,16.306,2.913,24.438c0.163,1.1,1.829,0.631,1.667-0.46
			c-1.179-7.977-2.722-15.891-2.851-23.979C901.134,423.334,899.404,423.332,899.422,424.448L899.422,424.448z"/>
	</g>
</g>
<g>
	<g>
		<path fill="#020202" d="M920.749,434.246c0.002,3.863,0.071,7.693,0.576,11.528c0.123,0.933,1.382,1.219,1.698,0.23
			c1.51-4.72,2.059-10.249,5.542-14.028c-0.453-0.058-0.905-0.117-1.358-0.175c2.171,4.207,1.777,9.1,2.795,13.627
			c0.244,1.088,1.911,0.626,1.667-0.46c-1.059-4.711-0.705-9.651-2.969-14.04c-0.25-0.485-0.992-0.572-1.358-0.175
			c-3.735,4.053-4.367,9.731-5.986,14.791c0.566,0.077,1.132,0.153,1.698,0.23c-0.506-3.835-0.575-7.665-0.576-11.528
			C922.477,433.131,920.748,433.131,920.749,434.246L920.749,434.246z"/>
	</g>
</g>
<g>
	<g>
		<path fill="#020202" d="M934.154,442.486c3.072-2.027,4.335-4.601,4.463-8.24c0.021-0.599-0.565-0.933-1.094-0.834
			c-5.145,0.964-7.445,10.745-2.773,13.535c2.794,1.669,5.549-0.797,6.722-3.119c1.882-3.723,2.227-8.175,2.878-12.234
			c-0.556,0-1.112,0-1.667,0c1.166,5.239,2.378,10.453,4.035,15.563c0.246,0.758,1.494,0.891,1.667,0
			c1.053-5.408,1.784-10.874,3.458-16.139c0.339-1.066-1.331-1.518-1.667-0.46c-1.674,5.265-2.405,10.731-3.458,16.139
			c0.556,0,1.112,0,1.667,0c-1.657-5.109-2.869-10.324-4.035-15.563c-0.178-0.801-1.53-0.854-1.667,0
			c-0.651,4.055-0.76,11.603-4.486,14.16c-3.155,2.166-4.238-2.329-4.095-4.421c0.157-2.298,1.385-5.326,3.881-5.794
			c-0.365-0.278-0.73-0.556-1.094-0.834c-0.105,3.01-1.086,5.083-3.607,6.747C932.355,441.604,933.22,443.102,934.154,442.486
			L934.154,442.486z"/>
	</g>
</g>
<g>
	<g>
		<path fill="#020202" d="M954.328,443.062c3.737-2.258,4.949-6.043,3.856-10.199c-0.156-0.594-1.017-0.884-1.445-0.382
			c-2.559,3.004-4.935,14.311,1.375,14.758c7.16,0.507,8.326-12.454,9.293-17.375c-0.566-0.077-1.132-0.153-1.698-0.23
			c0.058,5.405,0.612,10.766,1.153,16.139c0.11,1.09,1.704,1.135,1.729,0c0.057-2.586,0.445-5.051,1.216-7.518
			c0.464-1.484,3.682-8.002,5.155-3.78c0.365,1.046,2.036,0.596,1.667-0.46c-0.522-1.496-0.701-2.209-1.952-3.263
			c-0.3-0.253-0.691-0.345-1.048-0.135c-5.214,3.071-6.644,9.504-6.769,15.156c0.576,0,1.153,0,1.729,0
			c-0.541-5.373-1.095-10.734-1.153-16.139c-0.01-0.951-1.506-1.211-1.698-0.23c-0.935,4.759-1.805,9.749-4.128,14.059
			c-2.292,4.255-5.592,1.034-5.702-2.446c-0.073-2.299,0.51-5.504,2.052-7.314c-0.482-0.127-0.963-0.254-1.445-0.382
			c0.88,3.347,0,6.396-3.061,8.246C952.502,442.145,953.37,443.64,954.328,443.062L954.328,443.062z"/>
	</g>
</g>
<g>
	<g>
		<path fill="#020202" d="M865.96,463.412c-0.336-2.261-0.705-5.402-3.523-5.459c-2.093-0.043-3.709,2.866-4.341,4.513
			c-2.735,7.128-0.29,16.255-0.174,23.656c0.017,1.114,1.747,1.116,1.729,0c-0.072-4.583-0.609-9.151-0.736-13.735
			c-0.071-2.576,0.004-5.16,0.41-7.708c0.166-1.038,0.489-2.007,0.973-2.942c1.911-3.69,3.696,0.125,3.995,2.135
			C864.457,464.972,866.123,464.503,865.96,463.412L865.96,463.412z"/>
	</g>
</g>
<g>
	<g>
		<path fill="#020202" d="M856.134,476.58c3.078-0.573,6.066-0.845,8.852-2.393c-0.423-0.172-0.847-0.344-1.27-0.517
			c0.595,3.24,0.558,6.557,1.153,9.799c0.201,1.096,1.868,0.63,1.667-0.46c-0.595-3.24-0.558-6.557-1.153-9.799
			c-0.104-0.566-0.816-0.769-1.27-0.517c-2.647,1.47-5.522,1.675-8.439,2.218C854.579,475.117,855.045,476.783,856.134,476.58
			L856.134,476.58z"/>
	</g>
</g>
<g>
	<g>
		<path fill="#020202" d="M866.856,468.542c1.115,0,1.115-1.729,0-1.729C865.741,466.812,865.741,468.542,866.856,468.542
			L866.856,468.542z"/>
	</g>
</g>
<g>
	<g>
		<path fill="#020202" d="M873.943,475.31c-1.369-1.965-2.683-0.798-2.407,1.23c0.371,2.725,1.127,5.47,1.979,8.082
			c0.252,0.773,1.466,0.876,1.667,0c0.632-2.756,1.946-5.827,4.325-7.527c3.157-2.257,2.751,4.043,2.623,5.568
			c-0.093,1.112,1.637,1.103,1.729,0c0.216-2.57,0.345-8.689-3.895-7.696c-3.629,0.85-5.725,6.036-6.449,9.195
			c0.556,0,1.112,0,1.667,0c-0.521-1.596-0.939-3.229-1.336-4.858c-0.216-0.887-0.409-1.779-0.563-2.678
			c-0.056-0.325-0.089-0.651-0.103-0.98c-0.024-0.571-1.206-0.145-0.731,0.537C873.082,477.09,874.582,476.227,873.943,475.31
			L873.943,475.31z"/>
	</g>
</g>
<g>
	<g>
		<path fill="#020202" d="M896.287,474.559c-1.789-1.479-4.416-2.052-5.743,0.478c-1.594,3.04-1.111,6.221,1.062,8.814
			c0.279,0.333,0.947,0.347,1.223,0c4.703-5.914,3.716-13.515,4.833-20.555c-0.566-0.077-1.132-0.153-1.698-0.23
			c-0.027,7.178-1.187,16.603,3,22.916c0.613,0.924,2.111,0.06,1.493-0.873c-3.985-6.007-2.79-15.163-2.764-22.043
			c0.004-0.95-1.542-1.213-1.698-0.23c-0.532,3.351-0.646,6.738-0.968,10.112c-0.265,2.778-0.887,5.397-2.155,7.89
			c-1.361,0.022-1.891-0.668-1.589-2.071c-0.132-1.801,1.1-5.203,3.781-2.986C895.916,476.486,897.147,475.27,896.287,474.559
			L896.287,474.559z"/>
	</g>
</g>
<g>
	<g>
		<path fill="#020202" d="M915.561,464.795c-0.037,7.852-0.375,15.648,1.76,23.286c0.3,1.072,1.968,0.616,1.667-0.46
			c-2.093-7.488-1.734-15.136-1.698-22.826C917.295,463.68,915.566,463.68,915.561,464.795L915.561,464.795z"/>
	</g>
</g>
<g>
	<g>
		<path fill="#020202" d="M912.391,476.611c6.1,0.806,10.798-3.382,11.785-9.281c-0.566-0.077-1.132-0.153-1.698-0.23
			c0.004,6.904,0.128,13.795,2.336,20.404c0.239,0.716,1.168,0.854,1.58,0.207c2.5-3.925,4.417-8.179,6.917-12.104
			c-0.527-0.069-1.053-0.138-1.58-0.207c1.014,3.523,1.116,7.083,1.122,10.722c0.002,1.115,1.731,1.115,1.729,0
			c-0.006-3.807-0.125-7.504-1.184-11.181c-0.212-0.737-1.181-0.834-1.58-0.207c-2.5,3.925-4.417,8.179-6.917,12.104
			c0.527,0.069,1.054,0.138,1.58,0.207c-2.16-6.465-2.271-13.196-2.275-19.944c-0.001-0.95-1.534-1.213-1.698-0.23
			c-0.875,5.228-4.705,8.726-10.118,8.011C911.288,474.736,911.302,476.467,912.391,476.611L912.391,476.611z"/>
	</g>
</g>
<g>
	<g>
		<path fill="#020202" d="M936.459,483.41c4.151-2.647,7.712-6.762,6.161-11.928c-0.189-0.631-0.969-0.835-1.445-0.382
			c-3.967,3.778-6.476,16.321,1.635,17.06c7.268,0.662,6.754-12.52,6.758-17.025c-0.576,0-1.153,0-1.729,0
			c0.562,4.997,1.167,9.989,1.729,14.986c0.107,0.947,1.383,1.206,1.698,0.23c0.918-2.843,1.888-5.643,3.247-8.312
			c3.301-6.482,6.458,0.848,7.766,4.277c0.292,0.765,1.422,0.879,1.667,0c1.152-4.12,2.097-8.401,4.965-11.723
			c-0.482-0.127-0.963-0.254-1.445-0.382c1.022,4.494,0.604,9.041,0.546,13.604c-0.014,1.116,1.715,1.114,1.729,0
			c0.061-4.724,0.449-9.419-0.607-14.063c-0.139-0.609-1.025-0.868-1.445-0.382c-3.085,3.574-4.164,8.03-5.41,12.486
			c0.556,0,1.112,0,1.667,0c-0.811-2.126-3.361-10.075-7.224-8.494c-4.365,1.786-5.846,8.568-7.125,12.529
			c0.566,0.077,1.132,0.153,1.698,0.23c-0.562-4.997-1.167-9.989-1.729-14.986c-0.122-1.081-1.728-1.141-1.729,0
			c-0.003,4.129-0.128,8.329-1.408,12.287c-1.733,5.358-6.917,2.304-7.221-2.127c-0.205-2.983,1-6.889,3.189-8.973
			c-0.482-0.127-0.963-0.254-1.445-0.382c1.344,4.477-1.933,7.785-5.367,9.975C934.65,482.514,935.516,484.011,936.459,483.41
			L936.459,483.41z"/>
	</g>
</g>
<g>
	<g>
		<path fill="#020202" d="M861.957,502.26c0.08,8.277,1.073,16.508,1.153,24.785c0.01,0.996,1.403,1.152,1.698,0.23
			c1.617-5.044,2.765-10.279,5.677-14.78c-0.498,0-0.995,0-1.493,0c2.165,3.918,1.7,8.513,2.188,12.821
			c0.124,1.095,1.854,1.107,1.729,0c-0.526-4.651-0.091-9.472-2.424-13.693c-0.327-0.591-1.152-0.528-1.493,0
			c-2.996,4.631-4.186,9.998-5.851,15.193c0.566,0.077,1.132,0.153,1.698,0.23c-0.08-8.277-1.073-16.508-1.153-24.785
			C863.675,501.146,861.946,501.145,861.957,502.26L861.957,502.26z"/>
	</g>
</g>
<g>
	<g>
		<path fill="#020202" d="M875.502,518.111c5.095-0.464,6.627-4.468,4.205-8.794c-0.256-0.457-0.999-0.602-1.358-0.175
			c-3.207,3.819-5.152,14.816,2.023,15.374c7.279,0.566,8.047-13.625,8.099-18.221c-0.576,0-1.153,0-1.729,0
			c0.562,4.997,1.167,9.989,1.729,14.986c0.105,0.934,1.403,1.22,1.698,0.23c1.282-4.302,2.924-8.323,5.677-11.898
			c-0.498,0-0.995,0-1.493,0c1.674,2.522,5.046,5.641,8.161,3.15c2.899-2.318,2.48-5.707,0.114-8.233
			c-0.403-0.43-1.054-0.268-1.358,0.175c-3.185,4.653-3.312,11.212-0.847,16.219c2.227,4.524,5.884,1.633,7.528-1.512
			c0.516-0.987-0.977-1.861-1.493-0.873c-2.991,5.724-5.429,0.381-5.892-3.352c-0.417-3.358,0.287-6.816,2.198-9.608
			c-0.453,0.058-0.905,0.117-1.358,0.175c1.815,1.685,1.989,3.444,0.521,5.28c-2.833,1.251-4.859,0.487-6.08-2.293
			c-0.389-0.586-1.093-0.52-1.493,0c-2.852,3.704-4.526,7.863-5.851,12.311c0.566,0.077,1.132,0.153,1.698,0.23
			c-0.562-4.997-1.167-9.989-1.729-14.986c-0.122-1.082-1.716-1.141-1.729,0c-0.05,4.372-0.609,8.916-2.359,12.955
			c-1.997,4.609-6.899,3.998-7.116-1.147c-0.105-2.493,0.668-5.79,2.305-7.738c-0.453-0.058-0.905-0.117-1.358-0.175
			c1.82,2.424,0.917,4.488-2.712,6.192C874.401,516.482,874.391,518.212,875.502,518.111L875.502,518.111z"/>
	</g>
</g>
</svg>
