<?xml version="1.0" encoding="iso-8859-1"?>
<!-- Generator: Adobe Illustrator 15.1.0, SVG Export Plug-In . SVG Version: 6.00 Build 0)  -->
<!DOCTYPE svg PUBLIC "-//W3C//DTD SVG 1.1 Basic//EN" "http://www.w3.org/Graphics/SVG/1.1/DTD/svg11-basic.dtd">
<svg version="1.1" baseProfile="basic" id="Layer_1"
	 xmlns="http://www.w3.org/2000/svg" xmlns:xlink="http://www.w3.org/1999/xlink" x="0px" y="0px" width="192.334px" height="152px"
	 viewBox="0 0 192.334 152" xml:space="preserve">
<g id="_x30_">
	<path d="M106.729,67.223c-1.307,6.847-3.04,12.749-5.198,17.706c-1.619,3.718-3.706,6.975-6.261,9.77
		c-3.2,3.503-6.698,5.914-11.077,7.605c-3.649,1.408-7.375,2.077-9.15,2.077c-3.868,0-7.092-1.466-9.673-4.399
		c-2.581-2.933-4.465-6.647-5.652-11.144c-1.188-4.495-1.781-9.144-1.781-13.944c0-3.495,0.32-6.697,0.959-9.609
		c0.781-3.636,1.916-7.066,3.401-10.291c1.485-3.224,3.362-6.15,5.629-8.778c2.267-2.627,4.985-4.861,8.156-6.701
		c3.17-1.839,6.723-3.107,10.661-3.803c4.455-0.858,9.34-0.255,13.092,2.546c2.578,1.925,4.531,4.599,5.859,8.021
		c1.328,3.423,1.992,7.315,1.992,11.676C107.688,60.782,107.369,63.871,106.729,67.223z M83.579,45.986
		c-2.058,1.458-3.876,4.352-5.454,8.68c-1.379,3.785-2.576,8.666-3.589,14.645c-0.794,4.484-1.128,12.293,0.852,17.503
		c0.98,2.578,2.472,3.867,4.474,3.867c1.364-0.043,2.55-0.621,3.558-1.737c2.346-2.591,3.619-7.492,4.347-10.897
		c0.497-2.33,1.058-5.185,1.683-8.565c0.753-4.29,1.129-8.451,1.129-12.485c0-2.819-0.222-5.206-0.666-7.158
		c-0.409-1.795-1.125-3.999-2.834-4.674C86.328,44.868,85.299,44.768,83.579,45.986z"/>
</g>
<g id="_x31_">
	<path d="M88.939,37.373c-0.952,2.741-1.84,6.108-2.663,10.099c-0.824,3.992-1.527,8.238-2.109,12.741
		c-1.138,8.788-1.875,18.956-1.875,28.379c0,4.19,0.121,7.771,0.362,10.739l-16.236,9.949v-2.002c0-6.08,0.355-12.873,1.065-20.38
		s1.701-14.662,2.972-21.466c1.271-6.803,2.717-12.464,4.336-16.981l-7.159,7.074L59.6,47.152c2.009-2.483,4.843-5.376,8.5-8.678
		c2.263-2.043,4.841-4.242,7.735-6.599L88.939,37.373z"/>
</g>
<g id="_x32_">
	<path d="M99.357,60.309c-2.229,2.536-5.437,5.71-9.62,9.524s-7.369,7.031-9.556,9.651c-2.188,2.621-3.487,5.281-3.899,7.979
		c4.006-1.684,8.234-2.969,12.478-3.917c3.447-0.769,7.588-1.409,11.086-1.409l-1.235,14.914c-3.353,0.242-7.06,0.781-11.122,1.619
		c-4.063,0.839-8.1,1.996-12.113,3.474c-4.013,1.477-7.468,3.217-10.365,5.22c-2.07-4.419-6.124-10.524-7.585-14.318
		c0.694-3.368,3.538-9.104,6.627-13.631c2.703-3.962,4.639-5.731,10.205-10.86c6.95-6.404,9.583-8.911,12.124-12.368
		c1.989-2.708,2.488-4.982,2.147-6.641c-0.43-2.092-2.217-3.549-5.122-2.798c-3.044,0.785-6.06,3.601-8.052,5.892
		c-1.797,2.066-3.469,4.599-5.018,7.595l-10.546-5.582c1.513-3.925,3.635-7.688,6.498-10.869c2.832-3.146,6.14-5.479,9.54-6.877
		c3.432-1.414,7.243-2.068,10.66-2.068c4.983,0,10.03,1.47,13.453,4.892c2.427,2.425,3.912,5.661,3.912,9.511
		C103.854,53.084,102.727,56.48,99.357,60.309z"/>
</g>
<g id="_x33_">
	<path d="M100.722,43.999c-1.752,0.963-3.788,2.605-6.109,4.926c-2.403,2.403-5.111,5.533-8.124,9.392
		c3.476,0.299,7.151,1.745,9.804,4.399c3.05,3.048,4.308,6.514,4.757,10.765c0.317,2.994,0.245,6.654-0.377,10.053
		c-1.033,5.646-2.974,9.197-6.227,12.517c-4.425,4.517-10.04,7.375-14.664,8.457c-1.841,0.432-3.834,0.672-6.419,0.343
		c-2.506-0.318-5.102-1.153-7.787-2.504c-3.516-1.769-6.729-4.464-9.641-8.086l9.354-11.782c2.528,2.329,4.847,4.104,6.957,5.326
		s4.385,1.833,6.829,1.833c2.272-0.156,4.396-1.091,6.371-2.802c1.148-0.996,1.876-2.162,2.319-3.416
		c0.738-2.089,0.685-4.421,0.472-6.609c-0.355-2.358-1.236-4.3-2.642-5.828c-1.406-1.526-3.203-2.29-5.391-2.29
		c-2.258,0-4.758,0.874-7.5,2.621l-5.583-9.694c2.23-2.634,6.173-5.141,10.131-9.119c1.47-1.477,2.887-3.409,4.25-5.795
		c-3.953,0.861-5.484,1.218-7.819,1.992c-2.415,0.8-6.091,2.413-11.015,5.422l3.835-16.15c4.97-1.449,10.015-2.535,15.134-3.26
		c5.122-0.725,10.318-1.087,15.59-1.087L100.722,43.999z"/>
</g>
<g id="_x34_">
	<path d="M110.927,59.361l-3.664,16.662c-2.458,0.228-5.924,0.895-10.397,2.003c-0.693,7.847-1.639,21.896-2.089,26.548
		l-14.744,4.176c0.246-3.429,0.696-7.845,1.352-13.249c0.482-3.977,1.076-8.487,1.78-13.533c-3.693,1.15-7.969,2.4-12.827,3.75
		L60.133,73.679c4.63-17.911,8.182-30.361,10.653-37.35l17.961-5.156c-1.426,3.422-3.424,10.071-8.501,26.569
		c-1.705,5.54-2.997,9.453-3.878,11.74c1.065-0.298,4.119-1.257,9.162-2.876c1.577-9.318,2.827-15.716,3.75-19.197l11.953-2.365
		c-1.065,4.446-2.023,10.291-2.876,17.535C101.708,61.612,105.898,60.54,110.927,59.361z"/>
</g>
<g id="_x35_">
	<path d="M101.403,86.25c-2.358,5.113-5.516,9.325-9.471,12.634c-3.956,3.311-8.619,5.178-13.988,5.604
		c-2.995,0.26-7.21,0.057-10.536-0.958c-3.462-1.058-5.65-2.074-10.323-5.774l7.585-12.826c3.835,2.272,7.415,3.409,10.739,3.409
		c3.437,0,6.725-1.278,9.865-3.835c2.613-2.074,3.92-4.752,3.92-8.033c0-3.002-1.255-5.627-2.754-7.126
		c-1.487-1.487-3.162-1.866-5.108-1.866c-2.245,0-4.691,0.547-7.34,1.641c-2.649,1.094-4.77,2.437-6.36,4.027l-7.947-7.5
		c1.042-5.647,3.826-17.529,4.985-23.139c4.553-2.484,10.053-4.614,14.95-6.145c5.281-1.649,11.458-3.106,16.988-3.614l-0.874,11.42
		c-4.984,0.938-9.214,1.933-12.689,2.986c-3.528,1.069-6.28,2.197-8.254,3.384l-0.426,5.412c4.261-1.69,8.302-2.536,12.124-2.536
		c3.977,0,7.322,0.874,10.036,2.621c2.442,1.548,4.317,3.896,5.624,7.042s1.961,6.651,1.961,10.515
		C104.109,78.068,103.207,82.286,101.403,86.25z"/>
</g>
<g id="_x36_">
	<path d="M100.545,81.357c-0.822,3.411-2.057,6.583-3.701,9.516c-2.287,4.077-5.199,7.433-8.736,10.067
		c-3.552,2.646-7.503,4.317-10.915,5.104c-2.608,0.601-5.191,0.769-7.821,0.107c-2.937-0.737-5.396-2.436-7.38-5.094
		C58.56,96.459,57.622,90.873,57.944,85c0.358-6.521,2.27-13.397,4.048-19.673c1.497-5.284,3.483-10.571,5.959-15.862
		c2.476-5.291,5.452-10.252,8.928-14.882l17.897,2.173c-2.587,1.779-5.136,4.106-7.647,6.982
		c-3.885,4.449-7.678,10.211-11.379,17.286c5.696-3.267,10.525-4.9,14.488-4.9c3.863,0,6.736,1.449,8.619,4.346
		c1.882,2.898,2.822,6.69,2.822,11.378C101.68,74.619,101.44,77.64,100.545,81.357z M87.98,78.025
		c0.583-1.875,0.874-3.473,0.874-4.794c0-2.312-0.835-3.756-2.505-4.334c-2.306-0.8-5.114,0.567-6.896,1.952
		c-2.09,1.624-3.85,4.051-5.279,7.283c-1.094,2.543-1.641,5.015-1.641,7.415c0,2.453,0.545,4.225,1.636,5.315
		c1.75,1.75,4.523,1.515,6.644,0.371c2.051-1.108,3.424-3.178,4.333-5.314C85.899,84.151,86.844,81.52,87.98,78.025z"/>
</g>
<g id="_x37_">
	<path d="M101.68,42.7c-2.599,2.855-5.06,6.165-7.382,9.929c-2.323,3.764-4.393,7.972-6.211,12.624
		c-1.818,4.652-3.253,9.687-4.304,15.106c-2.059,10.614-1.491,18.676-1.491,19.677c-6.35,0.909-12.542,4.076-18.579,9.502
		c-0.666-4.805,1.29-16.06,2.429-21.562c1.676-8.097,4.055-15.884,7.138-23.362c3.082-7.479,6.612-12.951,10.589-16.417
		c-9.545,2.997-16.96,6.427-22.244,10.291l3.388-18.941c4.483-2.211,10.599-3.662,15.532-4.581
		c6.84-1.273,13.589-2.122,16.321-2.578L101.68,42.7z"/>
</g>
<g id="_x38_">
	<path d="M103.806,56.975c-1.639,2.386-3.919,4.375-6.841,5.966c2.113,0.526,4.007,1.527,5.681,3.004
		c2.753,2.43,4.461,5.701,5.063,8.938c0.525,2.832,0.289,6.042-1.064,8.747c-2.543,5.256-6.385,9.961-11.526,14.115
		c-4.459,3.604-10.199,5.843-15.834,6.832c-3.105,0.545-6.796,0.799-9.908,0.398c-3.631-0.469-6.361-1.778-8.188-3.928
		c-2.942-3.461-3.811-7.755-3.417-12.2c0.385-4.354,2.375-9.887,4.355-13.591c1.214-2.272,2.688-4.268,4.421-5.987
		s3.842-3.217,6.328-4.496c-1.96-0.554-3.803-1.953-5.529-4.197c-1.726-2.244-2.589-4.539-2.589-6.882
		c0-2.977,1.846-7.514,7.457-11.718c4.02-3.011,9.503-5.249,16.449-6.711c2.167-0.498,7.089-0.875,11.665,0.725
		c2.195,0.767,3.971,1.9,5.327,3.398c1.356,1.499,2.034,3.299,2.034,5.401C107.688,46.531,106.444,53.133,103.806,56.975z
		 M88.964,71.329c-0.94-0.391-1.98-0.319-2.951-0.04c-2.33,0.671-4.833,2.754-6.554,4.475c-2.736,2.737-3.885,4.533-5.06,7.374
		c-0.932,2.252-1.702,5.284-1.005,7.486c0.57,1.802,2.14,2.592,4.023,2.592c1.678,0,3.537-0.629,5.578-1.886
		s3.822-2.695,5.343-4.314c1.861-1.929,3.075-3.936,3.64-6.023c0.624-2.302,0.415-4.235-0.275-6.146
		C91.183,73.406,90.447,71.945,88.964,71.329z M91.526,46.13c-0.732-1.079-1.795-1.705-3.188-1.875
		c-2.068,0-3.874,0.522-5.417,1.567c-1.875,1.27-3.363,3.311-4.464,6.124c-0.709,1.801-0.814,4.275,0.523,6.009
		c0.69,0.895,1.741,1.42,3.15,1.577c2.382,0,4.364-0.422,5.946-1.266c2.174-1.16,3.611-3.346,4.217-5.667
		C92.9,50.279,92.675,47.825,91.526,46.13z"/>
</g>
<g id="_x39_">
	<path d="M103.598,61.896c-0.838,3.708-1.929,7.482-3.271,11.324c-1.343,3.843-2.93,7.71-4.762,11.602
		c-3.886,8.25-8.588,15.947-13.871,23.053l-16.15-5.667c4.16-2.849,7.587-6.496,10.461-10.664c2.719-3.94,3.993-6.358,6.989-12.197
		c-5.654,3.253-10.426,4.879-14.318,4.879c-3.764,0-6.538-1.396-8.32-4.187c-3.036-4.754-2.996-11.276-2.227-16.843
		c0.653-4.972,2.131-9.496,4.432-13.572c2.301-4.077,5.22-7.429,8.757-10.057c4.371-3.248,10.174-5.604,15.34-5.604
		c3.224,0,6.2,0.87,8.928,2.61c2.727,1.74,4.89,4.194,6.487,7.361s2.397,6.768,2.397,10.802
		C104.472,57.039,104.18,59.425,103.598,61.896z M86.489,62.323c1.108-2.386,1.662-4.886,1.662-7.5c0-2.375-0.532-4.095-1.597-5.159
		c-0.864-0.864-2.079-1.296-3.645-1.296c-1.932,0.298-3.48,0.877-4.645,1.736c-1.165,0.859-2.181,2.152-3.047,3.878
		c-0.867,1.726-1.797,4.13-2.791,7.212c-0.678,1.92-0.718,5.14,0.083,7.18c0.792,2.017,2.37,3.025,4.732,3.025
		c2.49-0.485,4.046-1.439,5.582-2.975C84.326,66.922,85.085,65.386,86.489,62.323z"/>
</g>
<g id="A">
	<path d="M100.019,104.914l-19.892,2.279c0.199-4.56,0.397-8.104,0.596-10.632s0.554-5.589,1.065-9.183
		c-4.089,0.313-7.582,0.952-10.478,1.917c-1.415,4.276-1.668,8.222-2.535,12.038l-17.357,0.256c1.065-4.062,2.513-9.02,4.345-14.871
		c3.6-11.499,8.362-25.422,12.959-37.681c2.25-6.001,4.22-10.941,5.91-14.818c2.569-0.824,5.217-1.392,7.943-1.705
		c6.517-0.747,12.842-0.718,16.123-1.001c-0.341,6.647-0.512,14.794-0.512,24.438c0,11.112,0.192,21.128,0.577,30.048
		C99.064,92.975,99.482,99.279,100.019,104.914z M84.663,51.499c-0.76,0-3.255,7.161-3.493,7.883
		c-2.797,8.52-4.938,16.953-7.156,22.755c2.641-0.27,5.523-0.476,8.646-0.618C83.582,71.915,83.677,59.714,84.663,51.499z"/>
</g>
<g id="B">
	<path d="M103.235,65.902c0.75,2.364,0.844,5.001,0.547,7.477c-0.458,3.851-1.825,7.728-4.297,11.294
		c-1.378,2.046-3.721,4.503-7.03,7.372c-6.862,5.947-15.801,11.951-22.905,15.83c-2.542-2.359-9.966-7.161-12.464-8.714
		c0.428-7.952,6.459-50.42,7.585-58.294c3.522-2.017,7.215-3.665,11.079-4.943c8.925-2.953,13.268-2.579,17.354-1.375
		c2.474,0.73,4.69,1.988,5.938,3.882c1.263,1.917,1.252,3.915,0.687,6.117c-0.99,3.861-3.777,7.99-6.188,10.721
		c-1.818,2.06-3.473,3.537-4.964,4.432c3.082-0.374,6.511-0.473,9.39,0.652C100.547,61.363,102.304,63.212,103.235,65.902z
		 M87.277,74.979c0-2.159-0.526-3.832-1.577-5.018c-1.051-1.186-2.479-1.779-4.283-1.779c-1.548,0-3.231,0.434-5.049,1.3
		l-1.917,20.859c2.713-1.335,5.482-3.452,8.309-6.35S87.093,78.089,87.277,74.979z M85.359,46.573
		c-0.869-1.754-2.337-3.106-4.367-3.106c-0.98,0-1.996,0.355-3.047,1.065l-1.321,16.747c1.903-1.364,3.913-3.359,6.03-5.987
		c1.587-1.971,2.603-3.629,3.048-4.977C86.032,49.314,86.146,48.163,85.359,46.573z"/>
</g>
<g id="C">
	<path d="M102.788,46.535L91.432,57.614c-0.646-5.119-1.587-8.295-2.823-9.531c-1.179-1.179-3.006-0.42-4.125,0.698
		c-2.643,2.645-4.358,10.003-4.973,13.691c-0.992,5.952-1.864,13.522-1.864,19.58c0,6.543,0.734,10.549,2.204,12.018
		c1.136,1.137,2.613,0.592,3.919-0.361c2.535-1.849,5.136-5.797,6.299-7.789c1.406-2.407,2.386-4.484,2.94-6.231l7.841,13.273
		c-1.399,2.908-3.587,5.602-6.564,8.081c-2.883,2.403-5.807,4.097-9.736,4.938c-2.921,0.627-5.768,0.649-8.555,0.173
		c-6.534-1.117-10.287-4.854-12.383-10.129c-1.929-4.855-2.455-11.015-2.455-17.636c0.241-6.875,1.683-13.242,4.325-19.101
		c3.284-7.285,6.782-12.018,10.693-15.929c4.839-4.839,7.928-6.248,11.097-7.024c2.408-0.589,4.622-0.58,6.578-0.108
		c1.825,0.44,3.431,1.302,4.817,2.585C100.775,40.764,102.149,43.339,102.788,46.535z"/>
</g>
<g id="D">
	<path d="M103.556,63.367c-1.293,5.554-2.919,10.469-4.879,14.744c-1.961,4.275-4.297,8.111-7.01,11.506
		c-6.244,7.81-14.48,13.941-22.755,19.58L57.47,97.499l1.406-54.991c3.322-1.845,7.333-3.111,11.035-3.965
		c4.989-1.151,11.282-1.873,13.574-1.873c3.38,0,6.68,0.735,9.897,2.205c4.246,1.94,7.715,5.298,9.572,9.848
		C104.847,53.356,104.771,58.589,103.556,63.367z M75.197,47.046L72.129,91.64c5.042-4.246,8.938-9.324,11.687-15.233
		s4.123-11.505,4.123-16.79c0-3.934-0.785-7.098-2.354-9.492s-3.838-3.59-6.807-3.59C77.697,46.535,76.503,46.705,75.197,47.046z"/>
</g>
<g id="E">
	<path d="M99.635,97.158c-7.898,3.127-24.706,8.974-28.636,10.291L60.538,96.967c0.711-12.548,5.47-45.07,7.33-57.591
		c4.602-1.264,10.195-2.475,16.779-3.633c6.583-1.158,11.551-1.985,14.904-2.482l-0.533,9.162l-16.405,4.283L80.693,59.02
		l15.703-4.815l-0.341,11.079l-16.321,5.327c-1.051,5.227-1.577,9.68-1.577,13.359c0,1.634,0.057,2.827,0.17,3.579
		c3.325-1.541,16.595-5.478,22.18-7.585L99.635,97.158z"/>
</g>
<g id="F">
	<path d="M101.808,31.002c-0.649,4.52-1.637,10.873-2.194,14.403l-15.085,4.539c-1.584,4.105-2.386,9.993-2.621,13.082
		c3.429-1.319,11.491-3.541,14.573-4.368c-0.114,1.847-0.558,4.052-1.332,6.616c-0.774,2.564-1.41,4.521-1.907,5.87
		c-2.441,0.165-10.808,4.211-12.997,5.327c-0.531,4.716-1.577,15.222-1.577,21.285c0,2.131,0.114,3.587,0.341,4.368
		c-1.354,0.569-14.513,6.054-16.129,6.37c0.015-5.951,0.334-12.088,0.959-18.408c0.625-6.321,1.445-12.646,2.461-18.974
		c1.843-11.489,3.079-17.376,6.338-33.824c2.994-1.125,6.372-2.099,9.792-2.926C89.023,32.766,97.053,31.459,101.808,31.002z"/>
</g>
<g id="G">
	<path d="M102.554,47.749l-15.618,11.08c-0.29-5.652-0.262-8.38-1.065-11.58c-0.426-1.697-1.094-2.546-2.003-2.546
		c-1,0-3.552,1.702-5.476,5.125c-1.661,2.954-3.583,7.525-4.815,15.99c-0.991,7.085-0.884,14.709-0.006,20.675
		c0.276,1.874,0.915,6.825,2.445,8.355c1.047,1.048,2.506,0.077,3.549-0.966c1.422-1.424,3.536-4.449,5.218-8.645
		c1.08-2.691,1.62-4.918,1.62-6.68l-7.585,1.833l1.299-9.95c2.443-0.738,6.356-1.825,11.74-3.26
		c5.384-1.435,8.686-2.323,9.907-2.664c0.114,1.023,0.171,1.953,0.171,2.791c0,2.045-0.199,4.407-0.597,7.084
		c-0.397,2.678-0.963,5.352-1.693,8.021c-0.732,2.671-1.595,5.078-2.589,7.224c-3.973,8.549-8.788,13.91-14.443,16.083
		c-4.148,1.593-8.536,1.37-12.701-0.019c-2.853-0.945-5.212-2.659-7.079-5.141c-1.709-2.271-2.965-5.288-3.878-8.515
		c-1.22-4.313-1.827-8.998-2.079-12.772c-0.464-6.964-0.409-13.166,1.254-19.871c0.88-3.551,2.276-6.872,4.187-9.961
		c1.91-3.089,4.446-5.788,7.606-8.096c3.16-2.308,6.942-4.009,11.346-5.103c4.204-1.051,7.635-1.577,10.291-1.577
		c3.505,0,6.324,0.704,8.399,3.492C100.843,39.347,101.091,39.903,102.554,47.749z"/>
</g>
<g id="H">
	<path d="M109.968,32.387c-1.917,4.347-3.644,9.347-5.178,15c-3.274,12.073-5.341,25.396-6.509,37.851
		c-0.632,6.74-1.068,13.477-1.311,20.209c-3.008,0.612-12.586,2.556-17.108,3.218c0.617-10.31,1.075-17.504,2.002-26.569
		c0.426-4.161,0.952-8.536,1.577-13.125c-2.021,0.225-2.955,0.672-9.779,3.665c-0.98,10.8-1.214,15.895-1.214,27.4l-14.403,5.497
		c-0.583-7.088-0.874-15.093-0.874-24.013c0-13.721,0.611-27.215,1.833-40.482l19.815-2.621c-2.271,7.845-3.197,16.345-4.198,24.95
		c2.652-0.909,6.535-2.681,10.206-3.473c1.974-12.145,3.721-20.965,5.241-26.462L109.968,32.387z"/>
</g>
<g id="I">
	<path d="M95.864,33.623c-1.313,3.659-2.535,8.789-3.668,15.389c-1,5.827-1.929,12.799-2.788,20.917
		c-0.66,5.898-1.243,14.837-1.502,20.837c-0.419,9.683-0.16,10.51-0.16,11.889l-14.041,2.429c-0.3-9.012-0.75-11.065-0.356-34.079
		c0.237-13.894,0.743-28.229,1.313-30.926L95.864,33.623z"/>
</g>
<g id="J">
	<path d="M111.844,77.514c-0.725,5.468-1.549,9.847-2.472,13.135c-0.924,3.288-2.081,5.884-3.473,7.787
		c-1.393,1.904-3.153,3.349-5.284,4.336c-3.617,1.676-9.857,2.93-13.828,2.93c-3.167,0-5.948-0.682-8.341-2.045
		c-2.394-1.364-4.506-3.591-6.339-6.68c-1.832-3.09-3.423-7.191-4.772-12.305l15.873-10.397c0,2.997,0.267,5.948,0.799,8.853
		c0.533,2.905,1.275,5.284,2.227,7.138s2.01,2.78,3.175,2.78c1.548,0,3.061-1.718,4.538-5.155c1.278-2.927,2.34-7.604,3.186-14.031
		c0.845-6.427,1.268-13.206,1.268-20.337c0-6.292-0.405-12.258-1.214-17.897l19.985-2.962c-1.604,14.445-1.611,15.011-3.59,31.331
		C112.977,68.974,112.397,73.48,111.844,77.514z"/>
</g>
<g id="K">
	<path d="M110.16,44.447C98.684,55.924,91.212,64.503,87.746,70.185c1.748,3.892,4.414,8.377,8.001,13.455
		c3.586,5.078,7.262,9.812,11.025,14.2l-11.867,12.23c-2.953-3.984-8.303-10.812-11.74-15.384c-3.744-4.975-5.905-8.144-8.075-11.59
		c-0.298,3.451-0.447,6.91-0.447,10.376c0,0.49,0.085,5.169,0.085,9.779l-15.021,4.538c-0.057-1.448-0.085-3.771-0.085-6.967
		c0-14.245,0.842-31.219,2.176-45.627c0.683-7.379,1.416-13.207,2.198-17.482l19.042-5.05c-0.966,2.813-1.811,6.353-2.536,10.622
		c-0.724,4.269-1.541,9.769-2.45,16.501c9.105-13.053,16.207-22.648,21.307-28.785L110.16,44.447z"/>
</g>
<g id="L">
	<path d="M100.513,92.173c-3.281,2.259-6.935,5.042-10.962,8.352c-4.027,3.311-7.177,6.549-9.449,9.716
		c-1.776-2.003-6.491-5.085-14.147-9.247c-0.204-3.564-0.27-6.738,0.049-12.748c0.409-7.683,1.55-17.947,2.932-27.752
		c1.176-8.344,2.527-16.355,3.751-22.161c2.912-1.221,6.559-2.265,10.941-3.132c4.382-0.866,8.469-1.364,12.262-1.491
		c-4.686,7.01-8.618,18.208-10.909,26.398c-1.963,7.015-4.624,18.499-4.624,25.781c3.156-3.155,10.366-8.669,12.4-10.994
		C95.016,81.47,97.601,87.229,100.513,92.173z"/>
</g>
<g id="M">
	<path d="M112.696,30.129c-1.621,8.29-2.694,18.558-3.281,26.984c-0.662,9.472-0.98,19.849-0.98,29.137
		c0,6.789,0.113,12.165,0.341,16.128l-17.279,5.583c-0.228-2.714-0.341-6.059-0.341-10.035c0-2.927,0.074-6.204,0.224-9.833
		c0.011-0.275,1.933-30.138,1.694-30.138c-1.677,3.721-3.2,8.192-4.57,13.412c-1.371,5.22-2.528,10.437-3.473,15.649
		s-1.701,10.043-2.269,14.488l-10.376,2.279c-1.108-11.008-1.662-21.334-1.662-30.979c0-5.014,0.177-9.609,0.533-13.785
		c-1,0-4.185,12.809-5.241,21.03c-1.021,7.923-1.339,15.146-1.748,19.282l-18.856,4.197c0.939-8.442,2.562-17.833,4.869-28.173
		c2.335-10.467,5.372-21.907,9.108-34.318l24.438-9.865c-0.995,4.858-1.726,9.229-2.195,13.114
		c-0.469,3.885-0.703,7.575-0.703,11.069c0,0.767,0.146,9.963,0.874,10.206c1.236-4.618,2.601-9.177,4.095-13.677
		c1.699-5.12,3.566-10.163,5.6-15.129L112.696,30.129z"/>
</g>
<g id="N">
	<path d="M109.158,30.726c-2.102,4.588-4.073,10.923-5.912,19.005c-1.84,8.083-3.402,16.569-4.688,25.461
		c-1.286,8.893-2.29,17.145-3.015,24.758l-14.233,5.05c-0.799-4.794-2.996-14.576-4.197-19.484
		c-0.183-0.746-4.596-18.588-5.305-18.292c-0.412,4.417-0.735,9.087-0.969,14.009c-0.341,7.166-0.623,17.181,0.096,24.3
		l-15.703,5.049c0.774-13.233,1.323-51.779,3.473-66.923l19.389-8.65c-0.092,1.52-0.291,7.679,0.543,14.286
		c0.754,5.968,1.549,9.576,3.782,20.315c0.013,0.063,1.705,9.289,1.769,9.289c2.806-23.372,3.274-33.397,5.412-46.852
		C98.878,30.484,106.798,30.534,109.158,30.726z"/>
</g>
<g id="O">
	<path d="M98.263,83.607c-1.44,4.461-3.269,8.047-5.483,10.76c-2.214,2.713-4.879,4.73-7.996,6.051
		c-3.116,1.321-6.875,2.181-11.275,2.578c-4.019,0-7.537-1.161-10.555-3.483s-5.329-5.525-6.934-9.609
		c-1.604-4.083-2.407-8.653-2.407-13.71c0-3.281,0.348-6.654,1.043-10.12c0.71-3.495,1.65-6.847,2.821-10.057
		c1.171-3.21,2.864-6.374,5.079-9.492c2.214-3.118,5.127-5.756,8.74-7.915s7.953-3.416,13.021-3.771c3.494,0,6.59,1.069,9.289,3.207
		c2.698,2.138,4.79,5.146,6.274,9.023c1.483,3.878,2.226,8.324,2.226,13.338C102.106,66.039,100.509,76.652,98.263,83.607z
		 M84.999,69.929c0.468-3.21,0.702-6.555,0.702-10.036c0-4.19-0.34-7.624-1.021-10.301s-1.738-4.017-3.17-4.017
		c-1.915,0.398-3.628,1.822-5.139,4.272s-2.752,5.426-3.724,8.927c-0.972,3.502-1.678,7.014-2.117,10.536
		c-0.569,4.795-1.064,13.502,0.814,17.928c0.886,2.089,2.218,3.15,3.994,3.187c1.22,0,2.503-1.076,3.851-3.229
		c1.348-2.151,2.55-4.829,3.606-8.032C83.853,75.962,84.587,72.883,84.999,69.929z"/>
</g>
<g id="P">
	<path d="M101.073,64.411c-1.727,2.969-3.797,5.643-6.211,8.022c-2.415,2.379-4.894,4.396-7.436,6.051
		c-2.543,1.655-4.943,2.901-7.202,3.739c-0.344,4.212-0.129,8.465,0.458,12.561c0.419,2.919,1.055,5.365,1.907,7.34
		c-1.25,0.313-4.333,1.192-9.247,2.642s-8.061,2.429-9.438,2.94c0-2.297-0.502-18.491,1.076-42.08
		c0.774-11.576,1.928-21.341,3.462-29.296c2.973-0.758,9.119-1.662,14.574-1.662c3.38,0,6.086,0.292,8.118,0.874
		c4.104,1.094,7.372,2.827,9.801,5.199c1.821,1.779,2.96,4.209,3.416,7.291c0.311,2.108,0.282,4.567,0.042,6.622
		C104.004,57.975,102.981,61.128,101.073,64.411z M82.76,48.538c-0.628,1.847-1.102,4.186-1.457,6.457
		c-0.794,5.07-1.194,11.175-1.59,15.809c2.798-2.656,5.082-5.533,6.85-8.629c1.119-1.959,1.884-3.765,2.294-5.417
		c0.561-2.252,0.628-4.98-1.007-6.616C86.781,49.072,85.084,48.538,82.76,48.538z"/>
</g>
<g id="Q">
	<path d="M104.493,99.502l-9.234,10.035c-1.338-1.658-6.151-9.731-8.112-11.697c-2.642,2.771-5.42,4.56-8.333,5.365
		c-2.219,0.612-4.613,0.68-6.947,0.068c-3.527-0.923-6.904-3.345-10.131-7.266c-2.204-2.728-3.919-6.111-5.148-10.152
		c-1.229-4.041-1.844-8.277-1.844-12.709c0-3.281,0.355-6.576,1.065-9.886c1.063-4.958,3.077-9.962,5.999-14.057
		c1.896-2.656,4.389-5.127,6.921-7.208c3.539-2.907,7.747-5.335,12.172-6.247c2.922-0.604,5.757-0.454,8.114,0.224
		c3.417,0.981,6.218,3.159,8.405,6.535c4.02,6.094,6.03,12.613,6.03,19.559c0,4.628-0.915,9.585-2.745,14.87
		c-1.214,3.506-2.831,7.158-4.85,10.954c0.881,2.057,2.021,4.034,3.418,5.931C100.731,95.802,102.472,97.695,104.493,99.502z
		 M89.578,63.559c-0.185-2.287-0.711-4.599-1.578-6.936c-1.059-2.852-3.161-6.555-5.871-7.748c-1.51-0.664-2.384-0.467-3.703,0.219
		c-2.445,1.271-5.16,4.098-7.073,9.574c-1.06,3.033-1.653,6.637-1.781,10.813c0,3.622,0.395,7.084,1.185,10.387
		c0.79,3.303,1.832,5.948,3.126,7.937c1.295,1.989,2.654,2.983,4.077,2.983c1.394,0,2.682-0.966,3.863-2.897
		c-0.988-2.115-4.152-7.016-5.71-9.418l7.792-8.991l4.117,8.118c0.731-2.531,1.218-5.11,1.461-7.737
		C89.734,67.143,89.684,64.516,89.578,63.559z"/>
</g>
<g id="R">
	<path d="M102.882,88.593c-1.832,1.421-3.526,2.87-5.082,4.347c-4.224,4.014-7.069,7.189-10.365,10.228
		c-2.319-3.134-11.75-16.282-13.273-19.112c-0.441,6.726-1.359,13.143-1.662,18.323c-1.747,0.114-3.672,0.576-5.774,1.386
		c-2.103,0.81-5.149,2.066-9.141,3.771c1.537-20.397,3.524-51.178,6.2-69.458c8.38-2.969,15.213-4.453,20.497-4.453
		c4.858,0,9.048,1.193,12.571,3.58c3.082,2.031,4.623,5.895,4.623,11.59c0,4.418-1.087,8.981-3.26,13.689s-5.362,8.789-9.566,12.24
		C90.723,77.053,95.467,81.676,102.882,88.593z M84.644,56.123c0.386-1.329,0.528-3.157-0.021-4.44
		c-0.518-1.21-1.71-2.101-3.474-2.101c-0.852,0-1.641,0.149-2.365,0.447c-0.48,3.675-2.788,17.348-3.217,21.988
		c2.557-3.111,4.527-5.859,5.912-8.246C82.865,61.385,83.919,58.836,84.644,56.123z"/>
</g>
<g id="S">
	<path d="M91.368,37.011l-1.385,16.321c-0.633-1-3.761-5.421-6.301-6.408c-1.344-0.522-2.604-0.424-3.645,0.617
		c-1.727,1.727-2.455,5.586-2.455,6.941c0,2.296,0.986,4.363,2.376,6.179c1.844,2.412,4.363,5.142,6.701,8.118
		c2.26,2.821,3.786,6.094,4.626,9.556c0.528,2.174,0.786,4.422,0.786,6.68c0,3.75-0.707,7.209-2.12,10.376
		c-1.414,3.168-3.328,5.469-5.742,6.903c-3.154,1.838-6.096,3.084-8.826,3.739c-2.935,0.703-5.906,0.769-8.741-0.062
		c-2.657-0.775-4.853-2.217-7.553-3.843c-0.781-5.795-1.202-15.835-1.321-20.672c1.69,2.245,5.112,5.461,7.835,6.234
		c1.644,0.467,3.57,0.471,5.097-0.461c1.758-1.035,2.949-2.19,3.574-3.468c0.663-1.354,0.639-2.718,0.206-4.163
		c-0.778-2.596-2.867-5.382-4.589-7.791c-3.597-5.028-4.903-6.875-6.264-10.433c-1.165-3.226-1.747-6.309-1.747-9.251
		c0-3.316,0.719-6.673,2.241-9.562c1.625-3.083,4.119-5.514,7.333-7.153c1.994-1.017,4.195-1.694,6.507-2.058
		c2.292-0.362,4.652-0.329,6.527-0.02C87.77,33.873,90.563,36.011,91.368,37.011z"/>
</g>
<g id="T">
	<path d="M102.307,47.834c-3.239,0-13.025,3.167-14.659,3.494c-1.327,3.862-2.383,15.629-2.696,26.669
		c-0.238,8.389-0.047,16.357,0.779,20.119c-3.917,1.29-16.698,8.681-20.241,11.164c0.347-8.68,1.561-20.284,2.674-28.901
		c1.448-11.214,3.019-20.78,4.038-26.09c-3.313,0.152-12.328,3.807-15.106,4.986l3.665-17.982
		c7.939-1.516,32.063-5.771,41.376-7.862C102.25,35.761,102.307,40.562,102.307,47.834z"/>
</g>
<g id="U">
	<path d="M104.279,31.429c1.016,10.403,1.118,21.417-0.096,31.799c-0.59,5.036-1.552,9.933-2.887,14.691
		c-1.336,4.759-3.047,9.104-5.135,13.039c-2.814,5.236-7.512,9.789-13.072,12.24c-2.72,1.2-5.43,1.801-8.128,1.801
		c-5.838,0-10.582-2.734-14.232-8.203c-3.083-4.815-4.624-11.853-4.624-21.114c0-8.751,1.564-20.18,4.283-28.977l17.364-5.071
		c-1.236,6.591-2.272,13.469-3.11,20.635c-0.838,7.166-1.257,13.292-1.257,18.377c0,4.104,0.263,7.045,0.789,8.82
		c0.885,3.024,2.383,4.387,4.039,4.387c1.09,0,2.248-0.59,3.343-1.686c1.855-1.855,3.533-5.16,4.4-9.498
		c0.752-3.764,1.129-9.729,1.129-17.897c0-6.792-0.461-20.926-1.577-27.315L104.279,31.429z"/>
</g>
<g id="V">
	<path d="M79.671,86.591c0.454-4.716,1.282-10.369,2.482-16.96s2.83-13.611,4.89-21.062c2.06-7.45,4.432-14.236,7.117-20.358
		l18.686,6.711c-2.656,3.608-5.23,8.149-7.724,13.625c-5.064,11.123-9.434,24.582-12.209,35.955
		c-1.413,5.795-2.418,10.823-3.014,15.084l-18.686,5.945c-3.622-8.821-6.534-17.646-8.735-26.474
		c-2.202-8.828-4.232-18.533-6.094-29.115l19.9-8.48c-0.774,7.413-0.993,14.333-0.234,22.51
		C76.316,66.86,78.326,84.673,79.671,86.591z"/>
</g>
<g id="W">
	<path d="M111.566,30.726c-4.632,6.909-9.133,22.875-11.207,30.915c-1.818,7.045-3.417,14.158-4.794,21.339
		c-1.378,7.18-2.387,13.646-3.025,19.398l-14.574,4.986c-0.298-4.689-0.481-8.78-0.98-20.912c-0.233-5.62-0.64-13.124-1.449-18.718
		c-2.223,7.967-3,10.731-3.91,15.031c-1.238,5.849-1.779,12.12-1.779,18.228l-16.406,8.906c-2.48-9.556-4.175-21.701-5.242-31.555
		c-1.053-9.726-2.002-22.072-2.002-31.896l16.853-8.906c-0.881,4.247-1.321,9.858-1.321,16.832c0,7.272,0.44,14.46,1.321,21.562
		c1.293-3.945,2.905-10.631,3.803-14.691c1.355-6.124,2.644-12.174,3.952-18.376l12.145-3.409
		c-0.412,3.466-0.618,7.479-0.618,12.038c0,6.477,0.348,11.569,1.044,15.276c1.101-6.781,3.95-16.088,6.137-22.574
		c1.477-4.382,2.926-8.292,4.346-11.729L111.566,30.726z"/>
</g>
<g id="X">
	<path d="M113.037,43.829c-2.595,4.429-7.468,11.189-10.579,15.298c-2.892,3.819-7.973,10.302-11.495,13.508
		c0.923,3.978,2.755,8.505,5.498,13.583c2.741,5.078,5.71,9.421,8.905,13.028l-12.314,10.035c-4.432-6.32-8.623-14.09-12.571-23.309
		c-2.817,3.549-6.48,9.021-9.333,14.456c-1.42,2.706-2.322,4.989-2.706,6.851c-0.71-0.37-1.793-0.917-3.25-1.641
		c-1.456-0.725-3.207-1.538-5.252-2.44c-2.045-0.901-3.572-1.466-4.581-1.693c4.011-9.325,5.813-12.986,7.904-17.013
		c2.458-4.734,5.476-9.816,8.757-13.967c-2.864-4.667-5.298-9.018-7.302-13.052c-2.4-4.831-4.185-9.208-5.354-13.133l16.235-9.417
		c0.227,2.571,1.069,6.523,2.525,11.857c1.456,5.334,2.766,9.151,3.931,11.452c4.249-5.499,7.515-10.368,10.504-15.096
		c2.429-3.842,4.396-7.454,5.901-10.834L113.037,43.829z"/>
</g>
<g id="Y">
	<path d="M105.707,37.374c-3.151,5.17-6.548,11.523-10.189,19.059c-3.642,7.535-7.152,15.919-10.531,25.152
		c-3.379,9.232-6.24,18.813-8.583,28.742l-15.184-8.289c1.832-6.168,4.156-12.861,6.74-18.727c1.001-2.273,2.822-6.329,5.462-12.167
		c-1.325-2.998-3.844-8.22-6.612-14.627c-2.101-4.86-4.453-10.738-5.952-15.841l14.929-8.543c0.369,3.864,1.207,7.993,2.513,12.389
		c1.306,4.396,2.356,7.681,3.152,9.854c4.167-8.169,8.287-17.674,11.351-22.947L105.707,37.374z"/>
</g>
<g id="Z">
	<path d="M105.281,46.088c-5.552,5.097-11.346,12.255-15.735,18.494c-4.091,5.815-9.02,13.842-11.239,20.604l19.645-8.715
		L97.078,94.09c-3.579,1.193-7.471,2.813-11.676,4.859c-8.015,3.898-15.135,7.992-22.797,12.676
		c-1.682-7.541-4.01-13.293-5.497-15.787c3.794-7.656,9.034-16.083,13.945-23.203c4.636-6.72,10.966-15.074,16.864-20.773
		c-6.238,1.164-16.019,4.463-20.859,6.626l4.794-18.941c8.852-2.221,24.823-5.099,30.447-5.838L105.281,46.088z"/>
</g>
<g id="a">
	<path d="M98.654,103.615l-13.167,3.664c-0.406-2.281-0.721-5.299-0.788-8.395c-1.835,2.565-3.878,4.346-6.129,5.341
		c-2.332,1.031-5.002,1.234-7.451,0.53c-3.175-0.912-6.208-3.48-7.993-6.029c-1.499-2.141-2.248-4.467-2.248-6.979
		c0-2.699,1.132-8.422,3.034-11.751c1.308-2.288,2.848-3.65,5.161-4.936c1.778-0.988,3.876-1.796,6.294-2.426
		c2.869-0.781,5.298-2.006,7.287-3.675c1.988-1.669,3.132-3.412,3.43-5.23c0.296-1.777,0.671-5.329-0.057-6.99
		c-0.438-0.997-1.224-1.253-2.209-0.887c-1.141,0.423-2.339,1.662-3.122,2.588c-1.759,2.081-3.62,5.328-4.029,8.165l-11.612-3.494
		c1.207-2.883,2.667-5.351,4.378-7.404c1.711-2.052,3.59-3.586,5.635-4.602s4.211-1.523,6.499-1.523
		c3.417,0,7.747,1.47,10.679,3.292c2.056,1.278,3.61,2.892,4.637,5.218c0.833,1.887,1.191,4.009,1.191,6.239
		c0,4.906-1.678,10.305-1.678,19.214c0,4.178,0.246,8.156,0.739,11.934C97.504,98.303,98.01,101.015,98.654,103.615z M85.317,73.85
		c-1.548,0.341-3.228,1.208-5.039,2.6s-3.345,3.09-4.602,5.092c-1.257,2.004-1.886,4.006-1.886,6.008
		c0,2.624,1.09,4.942,2.002,5.854c1.194,1.194,2.791,1.058,4.212,0.144c1.461-0.942,3.2-2.964,3.878-6.55
		c0.319-1.687,0.546-3.904,0.763-6.957C84.852,77.135,85.075,75.072,85.317,73.85z"/>
</g>
<g id="b">
	<path d="M96.374,85.27c-1.376,4.068-4.304,12.083-8.623,16.401c-1.907,1.907-4.197,2.986-6.756,3.444
		c-1.637,0.292-3.099,0.42-4.635-0.195c-2.2-0.884-3.881-3.095-5.042-6.631c-0.256,3.99-0.398,6.404-0.426,7.244l-7.777-0.277
		c-0.261-11.183-0.202-28.829,0.497-45.006c0.447-10.344,1.155-20.088,2.209-27.159l16.768-6.626
		c-3.319,11.062-5.791,24.83-7.415,36.391c2.841-2.883,5.707-5.178,8.597-6.882c3.01-1.775,5.414-2.582,7.37-2.582
		c1.718,0,3.091,0.623,4.226,1.757c3.139,3.141,4.053,9.006,4.053,13.459C99.421,73.679,98.405,79.232,96.374,85.27z M85.104,80.477
		c0.582-3.821,0.874-7.109,0.874-9.865c0-4.006-0.987-6.008-2.961-6.008c-1.847,0.327-3.456,1.889-4.826,4.687
		c-1.371,2.799-2.468,6.499-3.292,11.101c-0.228,1.25-0.341,2.791-0.341,4.623c0,2.486,0.252,4.678,0.756,6.574
		c0.504,1.896,1.211,2.936,2.12,3.121c1.861,0,3.444-1.303,4.751-3.91C83.491,88.193,84.464,84.752,85.104,80.477z"/>
</g>
<g id="c">
	<path d="M101.701,62.771l-8.736,6.094c-0.971-2.878-2.025-4.886-3.163-6.023c-1.38-1.381-3.016-1.381-4.533-0.559
		c-2.716,1.471-4.08,5.564-4.981,8.604c-1.385,4.667-2.194,10.019-1.907,14.622c0.18,2.892,1.076,7.775,3.117,9.816
		c1.174,1.175,2.655,1.29,4.227,0.732c1.718-0.609,2.878-1.935,3.869-3.331c1.367-1.927,2.696-4.348,3.989-7.266l6.456,11.869
		c-1.975,3.053-4.35,5.518-7.127,7.393s-5.756,2.813-8.938,2.813c-3.513,0-7.228-1.132-10.577-3.523
		c-3.592-2.564-5.755-5.544-6.762-10.786c-0.785-4.091-0.613-7.956-0.111-12.046c0.663-4.966,1.733-9.344,3.21-13.133
		c1.631-4.184,4.389-8.926,7.53-12.067c1.899-1.898,4.211-3.378,6.08-4.179c2.586-1.108,5.138-1.253,8.05-0.096
		c2.412,0.959,4.643,2.762,6.336,4.67C99.343,58.192,100.667,60.324,101.701,62.771z"/>
</g>
<g id="d">
	<path d="M110.501,29.853c-3.115,8.188-7.021,26.116-8.544,34.58c-1.19,6.456-2.349,16.313-2.739,25.692
		c-0.254,6.085-0.192,12.173,0.48,16.877c-2.525-1.099-8.956-1.061-11.889-1.129c0.104-1.413-0.03-6.334,0.532-11.334
		c-1.505,2.74-3.214,5.275-5.124,7.605c-1.824,2.225-3.299,3.315-4.599,3.831c-1.433,0.568-3.083,0.541-4.553,0.123
		c-4.003-1.134-6.882-4.659-8.777-8.438c-2.389-4.769-3.217-11.227-3.217-16.311c0-5.199,0.749-9.804,2.248-13.817
		c1.498-4.013,3.409-7.184,5.731-9.514c1.611-1.615,3.458-3.021,5.532-3.764c2.056-0.735,4.222-0.788,6.296,0.082
		c1.533,0.644,3.004,1.769,4.416,3.377c1.411,1.608,2.761,3.698,4.05,6.271c1.36-10.809,3.392-19.472,4.623-33.344
		C99.979,29.709,105.916,29.478,110.501,29.853z M86.083,82.053c0.662-3.882,0.736-7.396,0.411-10.427
		c-0.217-2.021-0.829-5.456-2.26-6.887c-1.182-1.184-2.588-0.814-4.039,0.059c-1.689,1.017-3.737,3.169-4.541,7.412
		c-0.518,2.731-1.098,7.947-1.098,11.229c0,5.165,0.794,8.541,2.381,10.129c1.609,1.607,3.153,1.228,4.545-0.165
		c0.716-0.717,1.383-1.716,2.001-2.997C84.635,88.018,85.501,85.234,86.083,82.053z"/>
</g>
<g id="e">
	<path d="M94.329,94.453c-1.339,2.186-2.81,4.08-4.412,5.683c-2.691,2.691-5.024,4.089-8.571,4.848
		c-1.717,0.366-3.639,0.55-5.767,0.55c-4.087-0.28-7.024-2.225-9.026-5.126c-2.503-3.627-3.544-8.75-3.544-13.987
		c0-6.259,1.668-14.979,3.342-19.696c1.6-4.507,4.094-8.575,7.804-11.562c2.835-2.282,6.214-3.943,8.748-4.544
		c2.087-0.497,3.986-0.411,5.641,0.084c2.044,0.613,3.703,1.826,5.016,3.4c1.523,1.826,2.538,4.034,3.176,6.385
		c0.661,2.436,0.918,5.025,0.918,7.503c0,3.452-0.405,6.917-1.215,10.398c-4.319,0.725-10.617,0.897-15.916,2.066
		c-2.188,0.482-3.956,1.25-5.305,2.301c-0.235,1.352-0.341,2.691-0.341,4.006c0,1.462,0.144,2.752,0.432,3.867
		c0.356,1.383,1.092,3.015,2.291,3.803c1.064,0.701,2.128,0.177,3.017-0.713c1.286-1.283,3.969-6.306,4.828-7.916L94.329,94.453z
		 M85.956,71.762c0.298-1.377,0.447-3.04,0.447-4.986c-0.055-2.243-0.298-6.398-1.876-7.975c-1.023-1.024-1.825-0.746-2.758,0.186
		c-1.91,1.91-3.596,6.166-4.4,8.738c-0.753,2.408-1.236,4.656-1.449,6.744L85.956,71.762z"/>
</g>
<g id="f">
	<path d="M110.939,46.621c-3.747,0.664-8.597,3.851-12.463,5.667c0.198-2.043,1.049-10.511-0.408-11.968
		c-0.997-1-2.906,0.681-4.02,2.706c-2.561,4.652-3.958,13.523-4.394,16.953c-0.213,1.648-0.561,5.688-1.044,12.123
		c4.56-0.98,7.613-1.59,9.162-1.832l-0.533,4.368c-5.382,1.472-5.641,1.452-8.991,2.429c-0.453,11.647,0.304,14.199,0.789,27.144
		c-2.319,0.143-9.462,3.38-11.697,3.75c-0.233-10.473-0.469-20.342-0.256-27.57c-3.352,1.15-6.115,2.344-8.288,3.58l0.618-6.456
		c1.875-0.767,4.488-1.612,7.841-2.536c0.699-10.085,0.25-20.475,1.321-27.485c0.625-4.077,2.752-7.464,6.381-10.163
		c3.629-2.699,8.455-4.957,14.478-6.775c3.179-0.918,6.918-1.079,8.873,1.64c1.072,1.492,1.75,3.342,2.035,5.55
		C110.627,39.955,110.826,42.913,110.939,46.621z"/>
</g>
<g id="g">
	<path d="M108.412,57.614l-6.796,5.412c0-1.818-0.186-3.246-0.555-4.283c-0.369-1.037-0.888-1.555-1.555-1.555
		c-0.781,0-1.769,0.902-2.962,2.706c0.753,2.33,1.129,4.539,1.129,6.626c0,5.1-2.003,9.375-6.008,12.827
		c1.62,1.646,2.429,3.301,2.429,4.963c0,1.975-1.129,4.482-3.388,7.521c2.798,0.811,5.198,2.084,7.201,3.824
		c3.524,3.062,3.535,7.164,2.046,11.537c-1.108,2.998-2.979,5.604-5.614,7.82c-2.635,2.215-5.923,3.973-9.865,5.273
		c-3.942,1.299-8.384,2.141-13.327,2.525c-3.666,0.324-8.518-0.018-12.115-1.674c-4.201-1.934-7.444-5.487-7.444-10.109
		c0-3.191,2.521-7.221,4.542-9.578c4.076-4.748,10.173-7.204,16.373-8.49c3.909-0.809,8.464-1.213,13.666-1.213
		c0.81-1.223,1.214-2.359,1.214-3.41c0-1.506-1.044-3.074-3.132-4.709c-4.362,2.088-8.525,3.133-12.49,3.133
		c-3.424,0-6.131-0.754-8.121-2.258c-2.478-1.877-3.581-6.03-3.581-9.163c0-3.352,0.987-6.349,2.963-8.991
		c3.15-4.104,7.839-7.687,12.394-9.886c3.071-1.483,6.029-2.429,9.431-2.429c3.778,0,6.804,1.278,9.077,3.835
		c1.374-2.815,3.956-7.412,6.531-9.189c1.27-0.875,2.633-1.143,3.866,0.027c1.325,1.296,2.183,2.556,2.791,3.97
		C107.725,54.104,108.084,55.685,108.412,57.614z M79.436,98.289c-2.216,0-4.215,0.609-5.998,1.832
		c-1.783,1.221-3.534,3.344-5.252,6.369c-1.52,2.5-2.28,4.822-2.28,6.969c0,2.38,1.139,3.793,2.962,4.423
		c1.23,0.425,3.104,0.594,4.936,0.044c2.557-0.767,5.194-2.803,7.911-6.107c1.804-2.273,2.706-4.951,2.706-8.033
		c0-1.463-0.267-2.699-0.799-3.707C82.663,98.263,81.366,98.289,79.436,98.289z M83.633,60.576c-1.932,0.54-3.625,1.431-5.082,2.674
		c-1.456,1.243-2.844,3.086-4.166,5.529c-1.036,1.881-1.755,3.703-2.156,5.467c-0.415,1.826-0.79,5.138,0.579,6.401
		c0.012,0.013,0.024,0.025,0.037,0.037c0.716,0.716,1.477,0.707,2.214,0.313c1.366-0.733,3.108-3.229,5.612-7.146
		c1.491-2.258,2.649-4.421,3.473-6.488c0.824-2.066,1.236-3.746,1.236-5.039C85.38,61.159,84.798,60.576,83.633,60.576z"/>
</g>
<g id="h">
	<path d="M93.583,103.699l-12.464,4.795c0.527-3.479,2.784-20.269,3.365-30.621c0.208-3.697,0.202-6.573-0.173-7.728
		c-0.482-1.479-1.395-1.141-2.625-0.182c-1.374,1.069-3.282,3.181-5.723,6.336c-0.042,1.35-0.089,3.462-0.139,6.339
		s-0.078,4.986-0.085,6.328c-0.007,1.342-0.025,3.203-0.053,5.582c-0.029,2.379-0.05,4.209-0.064,5.486l-11.889,4.879
		c-0.292-11.456-0.322-24.468-0.148-37.29c0.147-10.865,0.442-21.593,0.851-31.125l17.812-5.667
		c-1.252,6.163-2.623,10.227-3.811,17.367c-0.794,4.772-1.507,10.918-2.048,19.983c3.082-4.517,6.026-7.769,8.832-9.758
		c2.805-1.988,5.649-2.982,8.533-2.982c1.634,0.114,2.741,0.774,3.324,1.981c0.582,1.208,0.873,3.075,0.873,5.604
		c0,5.748-0.408,13.1-1.158,20.424C96.043,90.773,94.952,98.068,93.583,103.699z"/>
</g>
<g id="i">
	<path d="M96.758,54.994c-0.905,3.04-1.933,7.794-3.085,14.266c-1.363,7.653-2.898,17.706-4.607,30.159l-8.991,3.238
		c0.176-3.259,0.047-8.714-0.032-11.963c-0.187-7.686-0.479-16.691-0.479-21.382c0-3.92,0.114-7.123,0.341-9.609L96.758,54.994z
		 M96.566,38.077c1.349,1.236,2.023,2.749,2.023,4.538c0,2.415-1.192,4.652-3.579,6.711c-2.141,1.824-4.389,3.011-6.744,3.563
		c-1.652,0.386-4.007,0.567-5.587-0.01c-1.956-0.714-2.946-3.218-2.946-5.129c0-1.577,0.611-3.288,1.833-5.135
		c1.335-1.988,2.958-3.476,4.868-4.463c1.911-0.987,3.803-1.481,5.678-1.481C94.059,36.67,95.544,37.139,96.566,38.077z"/>
</g>
<g id="j">
	<path d="M96.363,56.826c-1.07,8.188-2.079,21.515-3.174,31.928c-0.355,3.373-0.923,6.977-1.705,10.813s-1.776,6.896-2.983,9.184
		c-2.122,4.025-5.236,7.811-8.965,10.426c-2.872,2.014-6.205,3.465-9.699,3.465c-2.102,0-4.055-0.553-5.859-1.662
		c-3.345-2.012-5.418-5.421-6.392-8.885c-0.454-1.619-1.029-4.041-1.726-7.264c3.324-2.273,6.3-4.141,8.927-5.605
		c2.08-1.156,6.009-3.306,8.352-4.004c-0.511,3.068-0.767,6.121-0.767,9.16c0,3.417,0.292,5.769,0.877,7.057
		c0.695,1.529,1.666,1.445,2.788,0.381c1.676-1.734,2.756-4.162,3.239-7.287s0.888-7.535,1.214-13.232
		c0.341-4.941,0.511-14.544,0.511-28.805L96.363,56.826z M95.938,38.673c1.094,0.852,1.641,2.017,1.641,3.494
		c0,1.406-0.483,2.813-1.449,4.219c-0.966,1.406-2.315,2.621-4.048,3.643c-2.912,1.619-5.327,2.429-7.244,2.429
		c-1.889,0-3.31-0.81-4.261-2.429c-0.71-1.335-1.065-2.471-1.065-3.409c0-1.435,0.816-3.061,2.45-4.879
		c2.912-3.153,5.937-4.73,9.077-4.73C92.897,37.011,94.531,37.565,95.938,38.673z"/>
</g>
<g id="k">
	<path d="M96.95,59.276c-3.281,3.75-6.118,6.825-8.512,9.226s-4.996,4.708-7.809,6.924c2.03,4.011,4.108,7.492,7.308,11.943
		c2.835,3.945,3.708,4.973,8.139,10.748l-11.165,8.459c-3.751-7.066-5.948-10.724-7.71-14.241c-1.176-2.349-2.16-4.635-3.284-7.831
		c-0.355,5.809-0.533,12.088-0.533,18.834l-9.95,3.238c0.36-25.938,0.806-45.259,1.339-57.966
		c0.288-6.875,0.602-11.813,0.941-14.816l18.92-6.733c-1.458,4.246-2.712,7.902-3.813,11.549c-1.015,3.362-1.899,6.716-2.69,10.517
		c-1.01,4.845-1.869,10.414-2.658,17.649c2.058-2.289,4.002-4.651,5.835-7.085c2.557-3.398,4.895-6.938,7.013-10.62L96.95,59.276z"
		/>
</g>
<g id="l">
	<path d="M98.313,29.426c-1.618,5.299-3.231,12.816-4.644,20.412c-1.438,7.732-2.667,15.546-3.48,21.186
		c-1.499,10.397-2.8,21.405-3.659,31.802l-8.203,3.494c-0.227-5.127-0.341-11.563-0.341-19.303
		c0.085-17.33,0.611-34.637,1.577-51.924L98.313,29.426z"/>
</g>
<g id="m">
	<path d="M105.792,64.241c-0.284,2.06-0.823,4.801-1.619,8.224c-0.796,3.423-2.06,8.672-3.792,15.746
		c-1.733,7.072-2.87,11.945-3.409,14.615l-13.7,2.43c1.76-7.315,3.083-14.104,4.368-21.627c0.358-2.097,2.45-14.537,2.45-16.853
		c-0.133-1.978-0.884-2.293-2.411-1.543c-1.245,0.611-2.977,1.971-5.195,4.079c-0.792,7.167-1.455,15.133-2.567,23.767
		c-0.306,2.365-0.643,4.422-1.012,6.168l-12.038,2.004c0.975-8.053,1.625-15.428,1.95-22.125c0.151-3.104,0.435-10.418,0.053-13.563
		c-0.157-1.406-0.618-2.109-1.385-2.109c-1.179,0-3.274,1.747-6.285,5.242c-0.479,7.561-0.652,23.233-0.703,29.765l-10.546,1.918
		l-3.942-45.298c3.65-1.345,10.214-3.163,16.853-3.75c-0.469,3.523-0.881,7.507-1.235,11.953c3.706-3.77,8.297-8.284,11.718-9.563
		c2.402-0.899,4.174-0.757,5.982,0.022c2.035,0.878,3.077,2.422,3.542,4.353c0.431,1.785,0.341,4.274,0.233,5.274
		c3.344-2.38,6.359-4.281,9.045-5.702c2.313-1.225,6.462-3.097,8.938-3.097c1.533,0,2.73,0.568,3.59,1.704
		c0.859,1.137,1.289,2.834,1.289,5.092C105.963,62.586,105.905,63.545,105.792,64.241z"/>
</g>
<g id="n">
	<path d="M103.981,59.894c-0.313,2.799-1.016,6.864-2.109,12.198c-1.094,5.334-2.23,10.564-3.409,15.691
		c-1.18,5.129-2.224,9.531-3.132,13.211l-13.444,4.176c1.531-11.071,3.503-21.479,5.604-31.98c0.669-3.35,1.641-8.036,1.641-9.205
		c0-1.449-0.49-2.173-1.47-2.173c-1.69,0-5.327,2.5-10.909,7.5L74.749,98.99l-11.271,3.219l-1.385-46.512l15.958-6.03l-0.874,12.23
		c3.319-2.804,6.454-5.103,9.401-6.896c3.072-1.868,7.255-4.099,10.861-4.099c1.836,0,3.286,0.532,4.349,1.595
		C103.251,53.958,103.981,56.424,103.981,59.894z"/>
</g>
<g id="o_1_">
	<path d="M98.91,75.682c0,5.441-0.621,10.085-1.863,13.935s-3.822,7.201-7.74,10.057c-3.124,2.271-5.76,3.93-7.911,4.975
		c-2.151,1.043-4.05,1.566-5.696,1.566c-2.371,0-4.812-1.158-7.325-3.475c-1.774-1.66-3.133-4.016-4.078-7.063
		s-1.416-6.254-1.416-9.619c0-4.246,0.816-7.643,2.274-12.838c1.202-4.285,2.529-8.205,5.005-11.91
		c1.447-2.166,3.242-3.963,5.385-5.391c2.994-1.995,7.815-3.718,11.412-3.718c2.429,0,4.524,0.692,6.286,2.077
		c1.761,1.385,3.125,3.334,4.09,5.849C99.282,65.204,98.91,69.835,98.91,75.682z M85.807,80.305
		c0.71-4.218,1.065-8.117,1.065-11.696c0-3.599-0.474-5.873-1.422-6.82c-0.698-0.698-1.672-0.605-2.554-0.161
		c-1.781,0.897-3.313,3.352-4.1,5.224c-1.222,2.905-2.287,6.836-3.196,11.794c-0.601,3.664-0.93,9.085-0.092,12.682
		c0.528,2.267,1.469,3.628,2.825,4.084c0.824,0.275,1.49,0.259,2.612-0.53c1.068-0.752,1.9-1.984,2.496-3.698
		C84.294,88.732,85.082,85.107,85.807,80.305z"/>
</g>
<g id="p">
	<path d="M101.645,79.437c-1.084,4.733-2.747,9.521-5.082,13.539c-1.654,2.85-3.904,5.733-6.648,7.582
		c-2.198,1.48-4.69,2.183-6.452,2.183c-3.434,0-5.342-2.227-6.903-5.326l-0.341,24.246l-10.397,3.688L61.986,55.25l15.703-5.838
		l-0.17,10.206c2.031-2.841,3.902-5.039,5.614-6.594c1.711-1.555,3.405-2.635,5.082-3.239c1.937-0.697,5.804-1.47,8.158-0.271
		c1.845,0.938,3.242,2.801,4.2,4.81c1.841,3.865,2.514,8.876,2.514,13.156C103.086,71.047,102.727,74.711,101.645,79.437z
		 M89.215,80.221c0.753-2.344,1.129-5.313,1.129-8.906c0-3.095-0.474-9.26-2.624-11.41c-1.268-1.268-2.214-0.769-3.302,0.029
		c-1.939,1.419-3.307,3.861-4.26,6.697c-1.588,4.726-2.023,10.546-2.023,14.549c0.128,6.859,1.2,10.469,3.217,10.822
		c1.676,0,3.1-0.977,4.272-2.93C86.797,87.121,87.994,84.17,89.215,80.221z"/>
</g>
<g id="q">
	<path d="M110.074,52.906c-5.458,10.673-9.607,22.111-12.357,33.024c-1.293,5.129-2.205,9.141-2.738,12.039
		c-0.532,2.896-1.58,8.791-3.142,17.684c1.718-2.301,3.774-4.502,6.167-6.605c2.394-2.102,4.642-3.535,6.744-4.303l1.406,12.379
		c-2.771,1.051-5.564,2.926-8.385,5.625c-2.819,2.697-5.031,5.688-6.636,8.969l-9.95-5.773c0.374-5.974,0.63-9.551,1.064-13.217
		c0.451-3.813,1.093-7.723,2.26-14.523c-1.754,1.954-3.27,3.082-5.435,3.684c-2.262,0.627-4.414,0.646-6.66,0.001
		c-2.776-0.8-5.354-2.657-7.003-5.579c-1.472-2.609-2.613-6.374-3.422-11.295c-0.639-4.384-1.134-9.178,0.405-14.85
		c1.318-4.862,3.711-9.056,7.084-12.517c2.562-2.628,6.479-5.741,10.025-6.771c2.129-0.618,4.252-0.59,6.273,0.322
		c2.646,1.194,4.958,3.831,6.937,7.908c1.15-4.091,1.967-6.854,2.45-8.288L110.074,52.906z M85.721,83.098
		c0.824-4.119,1.236-8.189,1.236-12.209c0-2.839-0.286-8.545-2.294-10.554c-1.166-1.166-2.692-0.821-3.893,0.378
		c-2.328,2.328-3.888,7.791-4.721,10.687c-1.232,4.707-1.46,10.86-0.349,15.34c0.888,3.576,2.44,5.403,3.735,6.114
		c1.055,0.58,1.95,0.473,2.809-0.386C83.58,91.132,84.739,88.009,85.721,83.098z"/>
</g>
<g id="r">
	<path d="M104.585,64.241L92.1,70.611c0.803-2.853,0.761-7.702,0.255-9.758c-0.426-1.804-1.15-2.706-2.173-2.706
		c-0.909,0-1.882,0.71-2.919,2.131s-1.896,3.352-2.578,5.795c-1.291,4.408-0.909,10.598-0.388,15.174
		c0.647,5.682,1.941,12.64,3.882,20.876c-3.738,0.565-10.373,2.187-14.403,3.75c-0.61-6.681-1.39-18.306-1.694-27.443
		c-0.248-7.475-0.388-18.357,0.117-25.78c2.344-1.522,8.167-3.545,11.165-4.027c-0.543,1.696,0.362,6.541,0.362,8.374
		c1.733-2.4,3.565-4.279,5.497-5.636c1.932-1.356,4.346-2.091,7.244-2.205c3.025,0,5.085,1.265,6.179,3.792
		C103.739,55.477,104.386,59.241,104.585,64.241z"/>
</g>
<g id="s">
	<path d="M99.954,63.452L88.96,69.227c-0.1-2.685-0.522-5.202-1.268-7.553c-0.443-1.398-0.949-2.38-1.515-2.947
		c-0.983-0.983-2.03-0.607-3.009,0.371c-0.948,0.949-1.815,2.595-1.815,4.888c0,1.762,0.44,3.565,1.321,5.412
		c0.932,2.058,4.343,5.352,7.55,9.657c2.171,2.913,3.552,5.131,4.133,7.95c0.386,1.872,0.333,3.947,0.087,6.395
		c-0.337,3.348-1.08,5.913-3.482,8.363c-1.435,1.463-3.587,2.889-6.456,4.281c-2.072,1.038-4.277,1.327-6.65,0.761
		c-3.886-0.927-7.337-3.983-9.756-7.194c-1.69-2.244-2.997-4.574-3.92-6.988c4.11-4.848,5.666-6.034,9.247-7.777
		c0.852,2.373,2.102,4.535,3.75,6.488c1.647,1.953,3.132,2.93,4.453,2.93c1.038,0,2.173-0.781,2.173-2.514
		c0-2.031-1.456-4.973-4.368-8.822c-2.48-3.351-5.497-4.793-7.627-8.575c-1.256-2.229-1.79-5.965-1.79-8.533
		c0-3.949,1.282-7.223,3.846-9.822c2.111-2.14,4.589-3.668,7.437-4.586c2.192-0.706,5.401-1.209,7.745-1.209
		c3.093,0,5.531,0.891,7.313,2.672C98.544,55.058,99.742,58.585,99.954,63.452z"/>
</g>
<g id="t">
	<path d="M104.961,88.594c-0.881,4.389-3.118,10.035-6.711,16.939c-1.593,3.122-3.92,5.11-6.692,6.128
		c-2.168,0.796-4.803,0.877-6.753-0.376c-2.23-1.479-3.992-2.717-5.284-3.719c-2.879-2.228-5.71-6.089-5.71-10.236
		c0.005-0.094,2.075-24.95,2.621-32.216c-3.551,1.449-6.491,2.82-8.821,4.112v-7.415c2.855-1.335,5.973-2.585,9.354-3.75
		c0.478-6.454,2.498-21.14,2.514-21.392l17.471-4.964c-2.798,7.642-4.78,15.057-5.944,22.244c4.346-1.108,7.983-1.747,10.909-1.917
		l-0.959,5.241c-1.506,0.298-5.142,1.314-10.909,3.047c-0.611,4.105-1.403,8.853-2.375,14.243
		c-2.589,14.339-3.483,15.847-3.483,19.101c0,2.561,0.918,4.296,1.863,5.24c0.949,0.948,1.854,1.201,2.811,0.245
		c0.581-0.581,1.129-1.578,1.643-2.991c0.874-2.4,1.708-5.504,2.504-9.313L104.961,88.594z"/>
</g>
<g id="u">
	<path d="M98.398,52.543c-0.412,5.526-0.959,11.26-1.642,17.205c-0.682,5.944-1.585,11.402-2.707,16.375
		c-1.123,4.971-2.409,8.182-3.858,9.629c-2.506,2.506-6.591,6.241-9.911,7.409c-2.809,0.991-5.921,0.996-8.951-0.305
		c-3.098-1.327-5.109-3.146-6.566-5.724c-2.009-3.556-2.848-8.269-3.208-12.306c-0.421-4.724-0.32-10.162,0.069-14.887
		c0.457-5.539,1.26-10.716,2.198-14.946L79.181,51.5c-0.81,2.031-1.57,4.865-2.28,8.501c-1.334,6.828-2.344,15.78-2.344,22.669
		c0,2.797,0.161,8.352,2.136,10.322c0.755,0.757,1.617,0.567,2.387-0.201c1.913-1.914,2.995-6.481,3.425-9.246
		c0.869-5.866,1.044-14.665,1.044-20.604c0-2.968-0.028-5.27-0.085-6.903L98.398,52.543z"/>
</g>
<g id="v">
	<path d="M92.412,48.708h17.279c-3.14,3.551-6.25,8.167-9.332,13.849s-5.785,11.736-8.107,18.163
		c-2.322,6.428-3.96,12.426-4.911,17.994l-15.873,6.541c-2.787-7.258-5.054-16.3-6.563-23.959
		c-1.29-6.544-2.685-15.914-2.685-22.553l15.362-7.415c-0.767,3.395-1.15,8.047-1.15,13.956c0,8.48,0.646,16.542,1.938,24.182
		c0.047,0,2.071-9.107,2.088-9.172c2.063-7.495,5.032-14.769,8.064-22.095C90.59,53.208,91.887,50.044,92.412,48.708z"/>
</g>
<g id="w">
	<path d="M113.952,51.073c-1.732,3.21-3.546,7.806-5.441,13.785c-1.896,5.98-3.614,12.237-5.154,18.771
		c-1.541,6.534-2.638,12.088-3.291,16.661c-1.619,0.483-4.09,1.289-7.412,2.419c-3.322,1.129-6.262,2.297-8.817,3.505
		C83.551,98.87,83.26,92.9,82.962,88.306c-0.072-1.113-1.4-12.806-1.917-13.945c-2.996,7.727-4.622,15.553-4.877,23.479
		l-15.697,7.521c-2.254-6.146-3.792-15.031-4.654-21.52c-1.286-9.675-2.109-18.655-3.035-25.887l16.23-7.5
		c-0.81,4.048-1.214,9.084-1.214,15.106c0,8.381,0.639,15.887,1.917,22.521c0,0,0.563-6.003,1.608-10.919
		c0.76-3.572,1.786-7.134,3.078-10.685c1.292-3.551,2.84-7.145,4.644-10.781l7.604-1.832c0,2.386,0.174,5.33,0.521,8.831
		c0.774,7.799,2.031,16.588,3.142,24.321c0.049-0.345,0.966-7.673,0.979-7.767c0.816-5.671,2.257-12.658,3.994-18.802
		c0.858-3.04,1.785-5.76,2.779-8.16L113.952,51.073z"/>
</g>
<g id="x">
	<path d="M106.368,54.035c-3.212,3.21-5.955,6.083-8.229,8.618c-5.395,6.016-9.431,12.182-13.323,19.229
		c3.155,8.522,6.182,15.383,9.081,20.582l-6.736,4.815c-3.236-4.499-5.507-7.323-8.718-13.359
		c-3.276,6.595-6.141,10.174-7.866,14.488l-8.036-5.071c1.821-5.786,6.264-12.46,9.528-21.455
		c-4.432-9.092-7.959-13.793-10.04-20.773c1.734-2.571,3.507-4.634,5.319-6.19c1.812-1.555,4.195-3.277,7.151-5.167
		c0.487,4.913,2.278,7.844,4.626,15.895c2.708-6.682,4.732-10.301,8.207-15.98c3.197,0,6.533,0.44,10.008,1.321
		S103.823,52.884,106.368,54.035z"/>
</g>
<g id="y">
	<path d="M105.771,52.735c-0.1,4.759-0.388,9.595-0.863,14.509c-0.877,9.061-2.472,19.023-4.943,27.783
		c-1.532,5.436-3.72,11.323-7.394,17.288c-1.726,2.805-3.786,5.322-6.668,6.991c-3.71,2.146-11.099,5.06-16.011,5.06
		c-3.168,0-5.689-1.028-7.564-3.086c-1.174-1.289-1.981-3.065-2.42-5.328c-0.498-2.568-0.428-5.656-0.307-6.656l15.873-7.854
		c-0.284,2.185-0.426,4.51-0.426,6.978c0,3.884,0.517,6.342,1.55,7.375c0.985,0.984,2.287,0.58,3.309-0.441
		c1.799-1.799,3.195-5.563,3.877-7.482c1.562-4.394,2.691-8.897,3.388-13.511c-4.617,2.335-8.452,3.502-11.505,3.502
		c-3.758,0-7.102-1.861-8.98-3.763c-2.754-2.787-3.505-6.386-3.505-10.285c0-5.222,1.052-9.987,3.92-23.065l16.406-4.434
		c-2.875,7.672-5.583,19.84-5.583,27.399c0,2.675,0.33,4.342,0.991,5.002c0.686,0.686,2.06,0.159,2.878-0.369
		c1.211-0.78,2.768-2.41,4.107-5.312c0.854-1.852,1.654-4.196,2.4-7.034c1.236-4.702,2.081-10.746,2.536-18.132L105.771,52.735z"/>
</g>
<g id="z">
	<path d="M98.633,94.005c-6.448,2.443-12.325,4.911-17.63,7.404c-5.305,2.492-9.436,4.854-12.39,7.084
		c-3.153-7.045-4.73-12.946-4.73-17.705c3.278-3.53,7.52-8.709,13.881-16.097c2.768-3.213,7.595-8.631,11.09-11.047l-0.085-0.192
		c-5.89,0.856-15.445,3.037-20.859,5.156c0.203-3.306,0.951-9.618,2.536-14.318c11.383-2.447,19.475-4.899,26.782-5.582
		l2.621,12.826c-2.741,2.6-5.639,5.558-8.693,8.874c-3.054,3.317-5.938,6.79-8.65,10.419s-4.73,6.886-6.051,9.769l0.085,0.192
		c6.374-4.897,13.165-8.516,20.688-11.782L98.633,94.005z"/>
</g>
<g id="&#xC1;">
	<path d="M100.019,104.914l-19.892,2.279c0.199-4.56,0.397-8.104,0.596-10.632s0.554-5.589,1.065-9.183
		c-4.089,0.313-7.582,0.952-10.478,1.917c-1.415,4.276-1.668,8.222-2.535,12.038l-17.357,0.256c1.065-4.062,2.513-9.02,4.345-14.871
		c3.6-11.499,8.362-25.422,12.959-37.681c2.25-6.001,4.22-10.941,5.91-14.818c2.569-0.824,5.217-1.392,7.943-1.705
		c6.517-0.747,12.842-0.718,16.123-1.001c-0.341,6.647-0.512,14.794-0.512,24.438c0,11.112,0.192,21.128,0.577,30.048
		C99.064,92.975,99.482,99.279,100.019,104.914z M84.663,51.499c-0.76,0-3.255,7.161-3.493,7.883
		c-2.797,8.52-4.938,16.953-7.156,22.755c2.641-0.27,5.523-0.476,8.646-0.618C83.582,71.915,83.677,59.714,84.663,51.499z
		 M99.953,15.87c-3.06,3.791-5.458,6.801-10.772,11.805h-6.5c3.185-4.777,5.229-7.082,7.303-11.805H99.953z"/>
</g>
<g id="&#xC0;">
	<path d="M100.019,104.914l-19.892,2.279c0.199-4.56,0.397-8.104,0.596-10.632s0.554-5.589,1.065-9.183
		c-4.089,0.313-7.582,0.952-10.478,1.917c-1.415,4.276-1.668,8.222-2.535,12.038l-17.357,0.256c1.065-4.062,2.513-9.02,4.345-14.871
		c3.6-11.499,8.362-25.422,12.959-37.681c2.25-6.001,4.22-10.941,5.91-14.818c2.569-0.824,5.217-1.392,7.943-1.705
		c6.517-0.747,12.842-0.718,16.123-1.001c-0.341,6.647-0.512,14.794-0.512,24.438c0,11.112,0.192,21.128,0.577,30.048
		C99.064,92.975,99.482,99.279,100.019,104.914z M84.663,51.499c-0.76,0-3.255,7.161-3.493,7.883
		c-2.797,8.52-4.938,16.953-7.156,22.755c2.641-0.27,5.523-0.476,8.646-0.618C83.582,71.915,83.677,59.714,84.663,51.499z
		 M80.65,15.87c2.074,4.723,4.118,7.028,7.302,11.805h-6.5c-5.314-5.004-7.713-8.015-10.772-11.805H80.65z"/>
</g>
<g id="&#xC3;">
	<path d="M100.019,104.914l-19.892,2.279c0.199-4.56,0.397-8.104,0.596-10.632s0.554-5.589,1.065-9.183
		c-4.089,0.313-7.582,0.952-10.478,1.917c-1.415,4.276-1.668,8.222-2.535,12.038l-17.357,0.256c1.065-4.062,2.513-9.02,4.345-14.871
		c3.6-11.499,8.362-25.422,12.959-37.681c2.25-6.001,4.22-10.941,5.91-14.818c2.569-0.824,5.217-1.392,7.943-1.705
		c6.517-0.747,12.842-0.718,16.123-1.001c-0.341,6.647-0.512,14.794-0.512,24.438c0,11.112,0.192,21.128,0.577,30.048
		C99.064,92.975,99.482,99.279,100.019,104.914z M84.663,51.499c-0.76,0-3.255,7.161-3.493,7.883
		c-2.797,8.52-4.938,16.953-7.156,22.755c2.641-0.27,5.523-0.476,8.646-0.618C83.582,71.915,83.677,59.714,84.663,51.499z
		 M100.819,15.715c-1.387,5.396-3.327,8.436-5.801,10.059c-1.907,1.251-4.132,1.661-6.665,1.661c-5.142,0-5.923-4.417-8.433-5.797
		c-0.908-0.5-2.051-0.563-3.013-0.068c-1.796,0.92-2.837,3.564-3.426,6.019h-4.359c1.3-5.409,3.41-8.479,6.046-10.101
		c1.89-1.162,4.051-1.58,6.378-1.58c4.657,0,5.935,4.163,8.403,5.561c1.034,0.587,2.255,0.634,3.333-0.038
		c1.639-1.019,2.721-3.461,3.242-5.714H100.819z"/>
</g>
<g id="&#xC2;">
	<path d="M100.019,104.914l-19.892,2.279c0.199-4.56,0.397-8.104,0.596-10.632s0.554-5.589,1.065-9.183
		c-4.089,0.313-7.582,0.952-10.478,1.917c-1.415,4.276-1.668,8.222-2.535,12.038l-17.357,0.256c1.065-4.062,2.513-9.02,4.345-14.871
		c3.6-11.499,8.362-25.422,12.959-37.681c2.25-6.001,4.22-10.941,5.91-14.818c2.569-0.824,5.217-1.392,7.943-1.705
		c6.517-0.747,12.842-0.718,16.123-1.001c-0.341,6.647-0.512,14.794-0.512,24.438c0,11.112,0.192,21.128,0.577,30.048
		C99.064,92.975,99.482,99.279,100.019,104.914z M84.663,51.499c-0.76,0-3.255,7.161-3.493,7.883
		c-2.797,8.52-4.938,16.953-7.156,22.755c2.641-0.27,5.523-0.476,8.646-0.618C83.582,71.915,83.677,59.714,84.663,51.499z
		 M100.975,28.687c-3.294-0.496-5.729-0.687-6.775,0c-1.981-4.353-4.967-7.187-6.543-10.909c-3.308,4.139-7.3,7.472-9.18,10.909
		c-1.2-0.651-4.045-0.368-6.605,0c3.125-5.937,9.589-11.64,12.03-16.02c3.394,0.413,5.234,0.227,8.656,0.083
		C93.297,16.963,98.766,22.583,100.975,28.687z"/>
</g>
<g id="&#xC9;">
	<path d="M99.635,97.158c-7.898,3.127-24.706,8.974-28.636,10.291L60.538,96.967c0.711-12.548,5.47-45.07,7.33-57.591
		c4.602-1.264,10.195-2.475,16.779-3.633c6.583-1.158,11.551-1.985,14.904-2.482l-0.533,9.162l-16.405,4.283L80.693,59.02
		l15.703-4.815l-0.341,11.079l-16.321,5.327c-1.051,5.227-1.577,9.68-1.577,13.359c0,1.634,0.057,2.827,0.17,3.579
		c3.325-1.541,16.595-5.478,22.18-7.585L99.635,97.158z"/>
	<path d="M99.953,15.87c-3.06,3.791-5.458,6.801-10.772,11.805h-6.5c3.185-4.777,5.229-7.082,7.303-11.805H99.953z"/>
</g>
<g id="&#xC8;">
	<path d="M99.635,97.158c-7.898,3.127-24.706,8.974-28.636,10.291L60.538,96.967c0.711-12.548,5.47-45.07,7.33-57.591
		c4.602-1.264,10.195-2.475,16.779-3.633c6.583-1.158,11.551-1.985,14.904-2.482l-0.533,9.162l-16.405,4.283L80.693,59.02
		l15.703-4.815l-0.341,11.079l-16.321,5.327c-1.051,5.227-1.577,9.68-1.577,13.359c0,1.634,0.057,2.827,0.17,3.579
		c3.325-1.541,16.595-5.478,22.18-7.585L99.635,97.158z"/>
	<path d="M82.65,15.87c2.074,4.723,4.118,7.028,7.302,11.805h-6.5c-5.314-5.004-7.713-8.015-10.772-11.805H82.65z"/>
</g>
<g id="&#xCD;">
	<path d="M95.864,33.623c-1.313,3.659-2.535,8.789-3.668,15.389c-1,5.827-1.929,12.799-2.788,20.917
		c-0.66,5.898-1.243,14.837-1.502,20.837c-0.419,9.683-0.16,10.51-0.16,11.889l-14.041,2.429c-0.3-9.012-0.75-11.065-0.356-34.079
		c0.237-13.894,0.743-28.229,1.313-30.926L95.864,33.623z"/>
	<path d="M99.953,15.87c-3.06,3.791-5.458,6.801-10.772,11.805h-6.5c3.185-4.777,5.229-7.082,7.303-11.805H99.953z"/>
</g>
<g id="&#xD3;">
	<path d="M98.263,83.607c-1.44,4.461-3.269,8.047-5.483,10.76c-2.214,2.713-4.879,4.73-7.996,6.051
		c-3.116,1.321-6.875,2.181-11.275,2.578c-4.019,0-7.537-1.161-10.555-3.483s-5.329-5.525-6.934-9.609
		c-1.604-4.083-2.407-8.653-2.407-13.71c0-3.281,0.348-6.654,1.043-10.12c0.71-3.495,1.65-6.847,2.821-10.057
		c1.171-3.21,2.864-6.374,5.079-9.492c2.214-3.118,5.127-5.756,8.74-7.915s7.953-3.416,13.021-3.771c3.494,0,6.59,1.069,9.289,3.207
		c2.698,2.138,4.79,5.146,6.274,9.023c1.483,3.878,2.226,8.324,2.226,13.338C102.106,66.039,100.509,76.652,98.263,83.607z
		 M84.999,69.929c0.468-3.21,0.702-6.555,0.702-10.036c0-4.19-0.34-7.624-1.021-10.301s-1.738-4.017-3.17-4.017
		c-1.915,0.398-3.628,1.822-5.139,4.272s-2.752,5.426-3.724,8.927c-0.972,3.502-1.678,7.014-2.117,10.536
		c-0.569,4.795-1.064,13.502,0.814,17.928c0.886,2.089,2.218,3.15,3.994,3.187c1.22,0,2.503-1.076,3.851-3.229
		c1.348-2.151,2.55-4.829,3.606-8.032C83.853,75.962,84.587,72.883,84.999,69.929z"/>
	<path d="M99.953,15.87c-3.06,3.791-5.458,6.801-10.772,11.805h-6.5c3.185-4.777,5.229-7.082,7.303-11.805H99.953z"/>
</g>
<g id="&#xD4;">
	<path d="M98.263,83.607c-1.44,4.461-3.269,8.047-5.483,10.76c-2.214,2.713-4.879,4.73-7.996,6.051
		c-3.116,1.321-6.875,2.181-11.275,2.578c-4.019,0-7.537-1.161-10.555-3.483s-5.329-5.525-6.934-9.609
		c-1.604-4.083-2.407-8.653-2.407-13.71c0-3.281,0.348-6.654,1.043-10.12c0.71-3.495,1.65-6.847,2.821-10.057
		c1.171-3.21,2.864-6.374,5.079-9.492c2.214-3.118,5.127-5.756,8.74-7.915s7.953-3.416,13.021-3.771c3.494,0,6.59,1.069,9.289,3.207
		c2.698,2.138,4.79,5.146,6.274,9.023c1.483,3.878,2.226,8.324,2.226,13.338C102.106,66.039,100.509,76.652,98.263,83.607z
		 M84.999,69.929c0.468-3.21,0.702-6.555,0.702-10.036c0-4.19-0.34-7.624-1.021-10.301s-1.738-4.017-3.17-4.017
		c-1.915,0.398-3.628,1.822-5.139,4.272s-2.752,5.426-3.724,8.927c-0.972,3.502-1.678,7.014-2.117,10.536
		c-0.569,4.795-1.064,13.502,0.814,17.928c0.886,2.089,2.218,3.15,3.994,3.187c1.22,0,2.503-1.076,3.851-3.229
		c1.348-2.151,2.55-4.829,3.606-8.032C83.853,75.962,84.587,72.883,84.999,69.929z M98.975,29.687c-3.294-0.496-5.729-0.687-6.775,0
		c-1.981-4.353-4.967-7.187-6.543-10.909c-3.308,4.139-7.3,7.472-9.18,10.909c-1.2-0.651-4.045-0.368-6.605,0
		c3.125-5.937,9.589-11.64,12.03-16.02c3.394,0.413,5.234,0.227,8.656,0.083C91.297,17.963,96.766,23.583,98.975,29.687z"/>
</g>
<g id="&#xE1;">
	<path d="M99.953,33.87c-3.06,3.791-5.458,6.801-10.772,11.805h-6.5c3.185-4.777,5.229-7.082,7.303-11.805H99.953z M98.654,103.615
		l-13.167,3.664c-0.406-2.281-0.721-5.299-0.788-8.395c-1.835,2.565-3.878,4.346-6.129,5.341c-2.332,1.031-5.002,1.234-7.451,0.53
		c-3.175-0.912-6.208-3.48-7.993-6.029c-1.499-2.141-2.248-4.467-2.248-6.979c0-2.699,1.132-8.422,3.034-11.751
		c1.308-2.288,2.848-3.65,5.161-4.936c1.778-0.988,3.876-1.796,6.294-2.426c2.869-0.781,5.298-2.006,7.287-3.675
		c1.988-1.669,3.132-3.412,3.43-5.23c0.296-1.777,0.671-5.329-0.057-6.99c-0.438-0.997-1.224-1.253-2.209-0.887
		c-1.141,0.423-2.339,1.662-3.122,2.588c-1.759,2.081-3.62,5.328-4.029,8.165l-11.612-3.494c1.207-2.883,2.667-5.351,4.378-7.404
		c1.711-2.052,3.59-3.586,5.635-4.602s4.211-1.523,6.499-1.523c3.417,0,7.747,1.47,10.679,3.292c2.056,1.278,3.61,2.892,4.637,5.218
		c0.833,1.887,1.191,4.009,1.191,6.239c0,4.906-1.678,10.305-1.678,19.214c0,4.178,0.246,8.156,0.739,11.934
		C97.504,98.303,98.01,101.015,98.654,103.615z M85.317,73.85c-1.548,0.341-3.228,1.208-5.039,2.6s-3.345,3.09-4.602,5.092
		c-1.257,2.004-1.886,4.006-1.886,6.008c0,2.624,1.09,4.942,2.002,5.854c1.194,1.194,2.791,1.058,4.212,0.144
		c1.461-0.942,3.2-2.964,3.878-6.55c0.319-1.687,0.546-3.904,0.763-6.957C84.852,77.135,85.075,75.072,85.317,73.85z"/>
</g>
<g id="&#xE0;_1_">
	<path d="M80.65,33.87c2.074,4.723,4.118,7.028,7.302,11.805h-6.5c-5.314-5.004-7.713-8.015-10.772-11.805H80.65z M98.654,103.615
		l-13.167,3.664c-0.406-2.281-0.721-5.299-0.788-8.395c-1.835,2.565-3.878,4.346-6.129,5.341c-2.332,1.031-5.002,1.234-7.451,0.53
		c-3.175-0.912-6.208-3.48-7.993-6.029c-1.499-2.141-2.248-4.467-2.248-6.979c0-2.699,1.132-8.422,3.034-11.751
		c1.308-2.288,2.848-3.65,5.161-4.936c1.778-0.988,3.876-1.796,6.294-2.426c2.869-0.781,5.298-2.006,7.287-3.675
		c1.988-1.669,3.132-3.412,3.43-5.23c0.296-1.777,0.671-5.329-0.057-6.99c-0.438-0.997-1.224-1.253-2.209-0.887
		c-1.141,0.423-2.339,1.662-3.122,2.588c-1.759,2.081-3.62,5.328-4.029,8.165l-11.612-3.494c1.207-2.883,2.667-5.351,4.378-7.404
		c1.711-2.052,3.59-3.586,5.635-4.602s4.211-1.523,6.499-1.523c3.417,0,7.747,1.47,10.679,3.292c2.056,1.278,3.61,2.892,4.637,5.218
		c0.833,1.887,1.191,4.009,1.191,6.239c0,4.906-1.678,10.305-1.678,19.214c0,4.178,0.246,8.156,0.739,11.934
		C97.504,98.303,98.01,101.015,98.654,103.615z M85.317,73.85c-1.548,0.341-3.228,1.208-5.039,2.6s-3.345,3.09-4.602,5.092
		c-1.257,2.004-1.886,4.006-1.886,6.008c0,2.624,1.09,4.942,2.002,5.854c1.194,1.194,2.791,1.058,4.212,0.144
		c1.461-0.942,3.2-2.964,3.878-6.55c0.319-1.687,0.546-3.904,0.763-6.957C84.852,77.135,85.075,75.072,85.317,73.85z"/>
</g>
<g id="&#xE3;">
	<path d="M100.819,35.715c-1.387,5.396-3.327,8.436-5.801,10.059c-1.907,1.251-4.132,1.661-6.665,1.661
		c-5.142,0-5.923-4.417-8.433-5.797c-0.908-0.5-2.051-0.563-3.013-0.068c-1.796,0.92-2.837,3.564-3.426,6.019h-4.359
		c1.3-5.409,3.41-8.479,6.046-10.101c1.89-1.162,4.051-1.58,6.378-1.58c4.657,0,5.935,4.163,8.403,5.561
		c1.034,0.587,2.255,0.634,3.333-0.038c1.639-1.019,2.721-3.461,3.242-5.714H100.819z M98.654,103.615l-13.167,3.664
		c-0.406-2.281-0.721-5.299-0.788-8.395c-1.835,2.565-3.878,4.346-6.129,5.341c-2.332,1.031-5.002,1.234-7.451,0.53
		c-3.175-0.912-6.208-3.48-7.993-6.029c-1.499-2.141-2.248-4.467-2.248-6.979c0-2.699,1.132-8.422,3.034-11.751
		c1.308-2.288,2.848-3.65,5.161-4.936c1.778-0.988,3.876-1.796,6.294-2.426c2.869-0.781,5.298-2.006,7.287-3.675
		c1.988-1.669,3.132-3.412,3.43-5.23c0.296-1.777,0.671-5.329-0.057-6.99c-0.438-0.997-1.224-1.253-2.209-0.887
		c-1.141,0.423-2.339,1.662-3.122,2.588c-1.759,2.081-3.62,5.328-4.029,8.165l-11.612-3.494c1.207-2.883,2.667-5.351,4.378-7.404
		c1.711-2.052,3.59-3.586,5.635-4.602s4.211-1.523,6.499-1.523c3.417,0,7.747,1.47,10.679,3.292c2.056,1.278,3.61,2.892,4.637,5.218
		c0.833,1.887,1.191,4.009,1.191,6.239c0,4.906-1.678,10.305-1.678,19.214c0,4.178,0.246,8.156,0.739,11.934
		C97.504,98.303,98.01,101.015,98.654,103.615z M85.317,73.85c-1.548,0.341-3.228,1.208-5.039,2.6s-3.345,3.09-4.602,5.092
		c-1.257,2.004-1.886,4.006-1.886,6.008c0,2.624,1.09,4.942,2.002,5.854c1.194,1.194,2.791,1.058,4.212,0.144
		c1.461-0.942,3.2-2.964,3.878-6.55c0.319-1.687,0.546-3.904,0.763-6.957C84.852,77.135,85.075,75.072,85.317,73.85z"/>
</g>
<g id="&#xE2;">
	<path d="M98.975,48.687c-3.294-0.496-5.729-0.687-6.775,0c-1.981-4.353-4.967-7.187-6.543-10.909
		c-3.308,4.139-7.3,7.472-9.18,10.909c-1.2-0.651-4.045-0.368-6.605,0c3.125-5.937,9.589-11.64,12.03-16.02
		c3.394,0.413,5.234,0.227,8.656,0.083C91.297,36.963,96.766,42.583,98.975,48.687z"/>
	<g id="a_1_">
		<path d="M98.654,103.615l-13.167,3.664c-0.406-2.281-0.721-5.299-0.788-8.395c-1.835,2.565-3.878,4.346-6.129,5.341
			c-2.332,1.031-5.002,1.234-7.451,0.53c-3.175-0.912-6.208-3.48-7.993-6.029c-1.499-2.141-2.248-4.467-2.248-6.979
			c0-2.699,1.132-8.422,3.034-11.751c1.308-2.288,2.848-3.65,5.161-4.936c1.778-0.988,3.876-1.796,6.294-2.426
			c2.869-0.781,5.298-2.006,7.287-3.675c1.988-1.669,3.132-3.412,3.43-5.23c0.296-1.777,0.671-5.329-0.057-6.99
			c-0.438-0.997-1.224-1.253-2.209-0.887c-1.141,0.423-2.339,1.662-3.122,2.588c-1.759,2.081-3.62,5.328-4.029,8.165l-11.612-3.494
			c1.207-2.883,2.667-5.351,4.378-7.404c1.711-2.052,3.59-3.586,5.635-4.602s4.211-1.523,6.499-1.523
			c3.417,0,7.747,1.47,10.679,3.292c2.056,1.278,3.61,2.892,4.637,5.218c0.833,1.887,1.191,4.009,1.191,6.239
			c0,4.906-1.678,10.305-1.678,19.214c0,4.178,0.246,8.156,0.739,11.934C97.504,98.303,98.01,101.015,98.654,103.615z M85.317,73.85
			c-1.548,0.341-3.228,1.208-5.039,2.6s-3.345,3.09-4.602,5.092c-1.257,2.004-1.886,4.006-1.886,6.008
			c0,2.624,1.09,4.942,2.002,5.854c1.194,1.194,2.791,1.058,4.212,0.144c1.461-0.942,3.2-2.964,3.878-6.55
			c0.319-1.687,0.546-3.904,0.763-6.957C84.852,77.135,85.075,75.072,85.317,73.85z"/>
	</g>
</g>
<g id="&#xE9;">
	<path d="M94.329,94.453c-1.339,2.186-2.81,4.08-4.412,5.683c-2.691,2.691-5.024,4.089-8.571,4.848
		c-1.717,0.366-3.639,0.55-5.767,0.55c-4.087-0.28-7.024-2.225-9.026-5.126c-2.503-3.627-3.544-8.75-3.544-13.987
		c0-6.259,1.668-14.979,3.342-19.696c1.6-4.507,4.094-8.575,7.804-11.562c2.835-2.282,6.214-3.943,8.748-4.544
		c2.087-0.497,3.986-0.411,5.641,0.084c2.044,0.613,3.703,1.826,5.016,3.4c1.523,1.826,2.538,4.034,3.176,6.385
		c0.661,2.436,0.918,5.025,0.918,7.503c0,3.452-0.405,6.917-1.215,10.398c-4.319,0.725-10.617,0.897-15.916,2.066
		c-2.188,0.482-3.956,1.25-5.305,2.301c-0.235,1.352-0.341,2.691-0.341,4.006c0,1.462,0.144,2.752,0.432,3.867
		c0.356,1.383,1.092,3.015,2.291,3.803c1.064,0.701,2.128,0.177,3.017-0.713c1.286-1.283,3.969-6.306,4.828-7.916L94.329,94.453z
		 M85.956,71.762c0.298-1.377,0.447-3.04,0.447-4.986c-0.055-2.243-0.298-6.398-1.876-7.975c-1.023-1.024-1.825-0.746-2.758,0.186
		c-1.91,1.91-3.596,6.166-4.4,8.738c-0.753,2.408-1.236,4.656-1.449,6.744L85.956,71.762z M99.953,33.87
		c-3.06,3.791-5.458,6.801-10.772,11.805h-6.5c3.185-4.777,5.229-7.082,7.303-11.805H99.953z"/>
</g>
<g id="&#xE8;">
	<path d="M94.329,94.453c-1.339,2.186-2.81,4.08-4.412,5.683c-2.691,2.691-5.024,4.089-8.571,4.848
		c-1.717,0.366-3.639,0.55-5.767,0.55c-4.087-0.28-7.024-2.225-9.026-5.126c-2.503-3.627-3.544-8.75-3.544-13.987
		c0-6.259,1.668-14.979,3.342-19.696c1.6-4.507,4.094-8.575,7.804-11.562c2.835-2.282,6.214-3.943,8.748-4.544
		c2.087-0.497,3.986-0.411,5.641,0.084c2.044,0.613,3.703,1.826,5.016,3.4c1.523,1.826,2.538,4.034,3.176,6.385
		c0.661,2.436,0.918,5.025,0.918,7.503c0,3.452-0.405,6.917-1.215,10.398c-4.319,0.725-10.617,0.897-15.916,2.066
		c-2.188,0.482-3.956,1.25-5.305,2.301c-0.235,1.352-0.341,2.691-0.341,4.006c0,1.462,0.144,2.752,0.432,3.867
		c0.356,1.383,1.092,3.015,2.291,3.803c1.064,0.701,2.128,0.177,3.017-0.713c1.286-1.283,3.969-6.306,4.828-7.916L94.329,94.453z
		 M85.956,71.762c0.298-1.377,0.447-3.04,0.447-4.986c-0.055-2.243-0.298-6.398-1.876-7.975c-1.023-1.024-1.825-0.746-2.758,0.186
		c-1.91,1.91-3.596,6.166-4.4,8.738c-0.753,2.408-1.236,4.656-1.449,6.744L85.956,71.762z M80.65,33.87
		c2.074,4.723,4.118,7.028,7.302,11.805h-6.5c-5.314-5.004-7.713-8.015-10.772-11.805H80.65z"/>
</g>
<g id="&#xEA;">
	<path d="M94.329,94.453c-1.339,2.186-2.81,4.08-4.412,5.683c-2.691,2.691-5.024,4.089-8.571,4.848
		c-1.717,0.366-3.639,0.55-5.767,0.55c-4.087-0.28-7.024-2.225-9.026-5.126c-2.503-3.627-3.544-8.75-3.544-13.987
		c0-6.259,1.668-14.979,3.342-19.696c1.6-4.507,4.094-8.575,7.804-11.562c2.835-2.282,6.214-3.943,8.748-4.544
		c2.087-0.497,3.986-0.411,5.641,0.084c2.044,0.613,3.703,1.826,5.016,3.4c1.523,1.826,2.538,4.034,3.176,6.385
		c0.661,2.436,0.918,5.025,0.918,7.503c0,3.452-0.405,6.917-1.215,10.398c-4.319,0.725-10.617,0.897-15.916,2.066
		c-2.188,0.482-3.956,1.25-5.305,2.301c-0.235,1.352-0.341,2.691-0.341,4.006c0,1.462,0.144,2.752,0.432,3.867
		c0.356,1.383,1.092,3.015,2.291,3.803c1.064,0.701,2.128,0.177,3.017-0.713c1.286-1.283,3.969-6.306,4.828-7.916L94.329,94.453z
		 M85.956,71.762c0.298-1.377,0.447-3.04,0.447-4.986c-0.055-2.243-0.298-6.398-1.876-7.975c-1.023-1.024-1.825-0.746-2.758,0.186
		c-1.91,1.91-3.596,6.166-4.4,8.738c-0.753,2.408-1.236,4.656-1.449,6.744L85.956,71.762z M98.975,48.687
		c-3.294-0.496-5.729-0.687-6.775,0c-1.981-4.353-4.967-7.187-6.543-10.909c-3.308,4.139-7.3,7.472-9.18,10.909
		c-1.2-0.651-4.045-0.368-6.605,0c3.125-5.937,9.589-11.64,12.03-16.02c3.394,0.413,5.234,0.227,8.656,0.083
		C91.297,36.963,96.766,42.583,98.975,48.687z"/>
</g>
<g id="&#xED;">
	<path d="M96.758,54.994c-0.905,3.04-1.933,7.794-3.085,14.266c-1.363,7.653-2.898,17.706-4.607,30.159l-8.991,3.238
		c0.176-3.259,0.047-8.714-0.032-11.963c-0.187-7.686-0.479-16.691-0.479-21.382c0-3.92,0.114-7.123,0.341-9.609L96.758,54.994z
		 M100.953,37.87c-3.06,3.791-5.458,6.801-10.772,11.805h-6.5c3.185-4.777,5.229-7.082,7.303-11.805H100.953z"/>
</g>
<g id="&#xF3;">
	<path d="M101.488,32.537L89.855,48.474h-6.35l7.628-15.937H101.488z M98.91,75.682c0,5.441-0.621,10.085-1.863,13.935
		s-3.822,7.201-7.74,10.057c-3.124,2.271-5.76,3.93-7.911,4.975c-2.151,1.043-4.05,1.566-5.696,1.566
		c-2.371,0-4.812-1.158-7.325-3.475c-1.774-1.66-3.133-4.016-4.078-7.063s-1.416-6.254-1.416-9.619
		c0-4.246,0.816-7.643,2.274-12.838c1.202-4.285,2.529-8.205,5.005-11.91c1.447-2.166,3.242-3.963,5.385-5.391
		c2.994-1.995,7.815-3.718,11.412-3.718c2.429,0,4.524,0.692,6.286,2.077c1.761,1.385,3.125,3.334,4.09,5.849
		C99.282,65.204,98.91,69.835,98.91,75.682z M85.807,80.305c0.71-4.218,1.065-8.117,1.065-11.696c0-3.599-0.474-5.873-1.422-6.82
		c-0.698-0.698-1.672-0.605-2.554-0.161c-1.781,0.897-3.313,3.352-4.1,5.224c-1.222,2.905-2.287,6.836-3.196,11.794
		c-0.601,3.664-0.93,9.085-0.092,12.682c0.528,2.267,1.469,3.628,2.825,4.084c0.824,0.275,1.49,0.259,2.612-0.53
		c1.068-0.752,1.9-1.984,2.496-3.698C84.294,88.732,85.082,85.107,85.807,80.305z"/>
</g>
<g id="&#xF4;">
	<path d="M98.91,75.682c0,5.441-0.621,10.085-1.863,13.935s-3.822,7.201-7.74,10.057c-3.124,2.271-5.76,3.93-7.911,4.975
		c-2.151,1.043-4.05,1.566-5.696,1.566c-2.371,0-4.812-1.158-7.325-3.475c-1.774-1.66-3.133-4.016-4.078-7.063
		s-1.416-6.254-1.416-9.619c0-4.246,0.816-7.643,2.274-12.838c1.202-4.285,2.529-8.205,5.005-11.91
		c1.447-2.166,3.242-3.963,5.385-5.391c2.994-1.995,7.815-3.718,11.412-3.718c2.429,0,4.524,0.692,6.286,2.077
		c1.761,1.385,3.125,3.334,4.09,5.849C99.282,65.204,98.91,69.835,98.91,75.682z M85.807,80.305
		c0.71-4.218,1.065-8.117,1.065-11.696c0-3.599-0.474-5.873-1.422-6.82c-0.698-0.698-1.672-0.605-2.554-0.161
		c-1.781,0.897-3.313,3.352-4.1,5.224c-1.222,2.905-2.287,6.836-3.196,11.794c-0.601,3.664-0.93,9.085-0.092,12.682
		c0.528,2.267,1.469,3.628,2.825,4.084c0.824,0.275,1.49,0.259,2.612-0.53c1.068-0.752,1.9-1.984,2.496-3.698
		C84.294,88.732,85.082,85.107,85.807,80.305z M98.975,48.687c-3.294-0.496-5.729-0.687-6.775,0
		c-1.981-4.353-4.967-7.187-6.543-10.909c-3.308,4.139-7.3,7.472-9.18,10.909c-1.2-0.651-4.045-0.368-6.605,0
		c3.125-5.937,9.589-11.64,12.03-16.02c3.394,0.413,5.234,0.227,8.656,0.083C91.297,36.963,96.766,42.583,98.975,48.687z"/>
</g>
<g id="_x21_">
	<path d="M89.535,95.582c-2.372,5.27-6.527,8.089-12.464,8.458c-2.245,0-3.97-0.653-5.178-1.96
		c-1.207-1.307-1.811-2.919-1.811-4.837c0-0.966,0.114-1.839,0.341-2.62c0.923-2.94,2.581-5.131,4.975-6.573
		c2.394-1.441,4.663-2.162,6.808-2.162c2.287,0.085,4.197,0.728,5.731,1.928c1.534,1.2,2.301,2.738,2.301,4.613
		C90.238,93.536,90.004,94.588,89.535,95.582z M109.266,27.849c-1.492,2.713-3.949,7.479-7.373,14.296
		c-3.423,6.818-6.7,13.708-9.833,20.667c-3.132,6.96-4.989,11.861-5.571,14.702l-11.25,2.258c0.284-2.415,1.129-6.835,2.536-13.263
		c1.406-6.427,2.784-12.514,4.133-18.259c1.349-5.746,2.351-9.954,3.004-12.624c1.988-1.165,4.296-2.216,6.924-3.153
		c2.627-0.938,5.241-1.75,7.841-2.439c2.599-0.689,4.684-1.197,6.252-1.523C107.5,28.183,108.611,27.963,109.266,27.849z"/>
</g>
<g id="_x40_">
	<path d="M126.351,65.703c-0.484,3.949-1.528,7.77-3.133,11.463c-1.604,3.693-3.385,6.501-8.162,10.099h-18.75l-0.543-4.942
		c-2.312,1.704-4.489,3.011-6.532,3.92c-2.044,0.909-4.316,1.363-6.815,1.363c-4.772,0-8.365-1.804-10.777-5.411
		c-2.413-3.607-3.221-8.65-2.425-15.128c0.792-6.448,3.17-11.59,7.135-15.426c3.965-3.835,8.377-5.752,13.234-5.752
		c3.493,0,6.173,0.574,10.308,2.813l0.251-2.045h9.775l-4.405,35.88h7.355c1.454-2.131,2.683-4.794,3.687-7.99
		c1.003-3.195,1.66-6.058,1.971-8.586c0.572-4.659,0.444-8.891-0.38-12.698c-0.826-3.807-2.321-7.074-4.485-9.801
		c-4.943-6.226-11.8-8.479-19.819-8.479c-5.856,0-14.462,2.877-21.278,9.119C66.595,49.511,62.184,57.477,61.08,66.47
		c-0.998,8.122,0.333,16.557,5.681,22.797c4.553,5.312,12.253,8.693,18.176,8.693c4.986,0,10.427-0.619,15.284-1.961l-0.743,6.052
		c-4.661,0.983-9.12,1.534-15.273,1.534c-9.479,0-18.8-3.118-25.074-10.271c-6.477-7.381-8.234-17.266-7.048-26.931
		c1.305-10.626,6.588-19.899,13.902-26.462c7.292-6.544,17.09-10.696,27.52-10.696c9.565,0,20.755,2.77,26.759,10.057
		c2.62,3.182,4.459,7.01,5.515,11.484C126.833,55.242,127.024,60.221,126.351,65.703z M96.582,74.957l2.313-18.849
		c-1.441-0.704-2.75-1.207-3.926-1.51c-1.176-0.303-2.455-0.455-3.837-0.455c-3.13,0-5.714,1.092-7.752,3.275
		c-2.04,2.183-3.306,5.289-3.8,9.315c-0.485,3.954-0.149,6.945,1.009,8.969c1.158,2.026,3.229,3.039,6.213,3.039
		c1.625,0,3.297-0.376,5.014-1.129C93.534,76.861,95.123,75.976,96.582,74.957z"/>
</g>
<g id="_x23_">
	<path d="M102.34,48.623c-0.469,0.625-0.901,1.523-1.299,2.695c-0.398,1.172-0.774,2.5-1.13,3.984s-0.653,2.752-0.895,3.803
		c-0.853,0-3.182,0.227-6.988,0.682c-0.128,0.597-0.292,1.456-0.49,2.578c-0.199,1.122-0.355,1.953-0.469,2.493
		c-0.057,0.242-0.132,0.665-0.224,1.268c-0.093,0.604-0.16,1.026-0.202,1.268c0.795-0.057,1.765-0.131,2.908-0.224
		c1.143-0.092,2.531-0.195,4.165-0.309c-0.469,0.625-0.902,1.534-1.3,2.727c-0.397,1.193-0.767,2.493-1.107,3.899
		s-0.646,2.692-0.917,3.856c-0.695,0-2.351,0.142-4.964,0.426c-0.682,6.363-1.122,11.079-1.321,14.147l-8.906,0.788
		c0.085-1.548,0.319-6.086,0.703-13.614c-3.523,0.597-5.675,0.973-6.456,1.129c-0.17,2.855-0.255,6.229-0.255,10.121l-8.821,1.661
		c-0.071-1.065-0.149-2.766-0.234-5.103c-0.085-2.336-0.149-3.896-0.192-4.677c-2.443,0.568-5.149,1.265-8.118,2.088
		c1.037-4.275,1.875-7.39,2.514-9.343c0.639-1.953,1.428-3.377,2.365-4.272c-0.1,0,0.916-0.142,3.046-0.426
		c0-2.017,0.064-3.906,0.192-5.667c-1.932,0.397-4.815,1.122-8.65,2.173c0.994-4.119,1.822-7.208,2.482-9.268
		c0.66-2.059,1.459-3.537,2.397-4.432c0.469,0,2.074-0.206,4.815-0.618c0.369-4.517,0.774-7.891,1.214-10.121l13.274-4.453
		c-1.15,3.85-2.173,8.274-3.068,13.274c3.337-0.384,5.639-0.646,6.903-0.789c0.497-3.337,0.93-5.696,1.299-7.074l13.615-3.217
		c-1.378,3.366-2.543,6.42-3.494,9.162C96.851,49.027,99.386,48.822,102.34,48.623z M81.822,61.193
		c-1.08,0.17-2.276,0.37-3.59,0.597c-1.314,0.228-2.504,0.434-3.569,0.618c0,0.185-0.015,0.44-0.043,0.767
		c-0.028,0.327-0.042,0.568-0.042,0.725c-0.014,0.298-0.082,1.037-0.202,2.216c-0.121,1.179-0.196,2.159-0.224,2.94
		c1.165-0.113,2.323-0.23,3.473-0.352c1.15-0.12,2.23-0.237,3.239-0.351c0.085-1.165,0.234-2.245,0.447-3.239
		C81.481,63.963,81.652,62.657,81.822,61.193z"/>
</g>
<g id="_x24_">
	<path d="M92.327,49.07l-3.324,12.997c-0.838-1.605-1.896-2.805-3.175-3.601s-2.458-1.193-3.537-1.193
		c-0.866,0-1.392,0.228-1.577,0.682c-0.284,0.881-0.426,1.555-0.426,2.024c0,0.739,0.156,1.36,0.469,1.864
		c0.312,0.504,0.909,1.275,1.79,2.312c1.364,1.648,2.266,2.756,2.706,3.324c2.386,3.054,3.58,6.69,3.58,10.909
		c0,2.571-0.476,4.922-1.428,7.052c-0.952,2.131-2.309,3.708-4.069,4.73c-1.435,0.767-2.394,1.257-2.876,1.47
		c-0.54,4.077-1.47,8.268-2.791,12.571l-9.247-2.088c0.795-2.302,1.463-5.618,2.003-9.95c-0.213-0.071-0.767-0.306-1.662-0.703
		c-0.284-0.171-1.147-0.61-2.589-1.321c-1.441-0.71-2.468-1.229-3.079-1.556c0.142-2.271,0.486-4.821,1.033-7.648
		c0.547-2.826,0.983-4.929,1.311-6.307c2.741,2.727,4.986,4.091,6.733,4.091c0.554,0,1.079-0.142,1.577-0.426
		c0.923-0.54,1.385-1.151,1.385-1.833c0-0.71-0.348-1.584-1.044-2.621c-0.1-0.17-0.923-1.388-2.472-3.654s-2.585-4.102-3.111-5.508
		c-0.753-1.917-1.129-3.984-1.129-6.2c0-2.84,0.699-5.373,2.099-7.596c1.399-2.223,3.491-3.795,6.274-4.719
		c0.1-0.639,0.408-2.283,0.927-4.932c0.518-2.649,0.849-4.698,0.991-6.147l10.035,2.003l-1.406,9.183
		c1.52,0.44,2.802,0.941,3.846,1.502S91.915,48.772,92.327,49.07z"/>
</g>
<g id="_x25_">
	<path d="M71.106,49.411c-2.188,5.582-4.776,9.89-7.766,12.922c-2.99,3.033-6.893,4.627-11.708,4.783
		c-2.869,0-4.968-1.09-6.296-3.271s-1.992-4.982-1.992-8.405c0-4.162,0.703-7.891,2.109-11.186c0.81-1.96,1.779-3.757,2.908-5.391
		c1.129-1.633,2.447-3.075,3.953-4.325c1.505-1.25,3.21-2.229,5.113-2.94s3.963-1.087,6.179-1.129
		c3.068,0.042,5.405,0.973,7.01,2.791c1.605,1.818,2.408,4.261,2.408,7.33C73.023,43.176,72.384,46.116,71.106,49.411z
		 M106.368,39.908c-2.671,2.259-5.739,5.217-9.205,8.875c-3.466,3.657-7.027,7.674-10.685,12.048
		c-3.658,4.375-6.864,8.452-9.62,12.23c-3.082,4.219-6.115,8.636-9.098,13.252s-5.622,8.856-7.915,12.72
		c-2.294,3.864-4.038,6.96-5.231,9.29l-10.823-5.242c2.771-5.411,6.418-12.048,10.943-19.91s8.002-13.533,10.432-17.013
		c0.909-1.278,2.057-2.976,3.442-5.092c1.385-2.116,3.875-5.937,7.469-11.463c3.595-5.525,6.404-9.75,8.429-12.677
		s3.527-4.929,4.508-6.009L106.368,39.908z M61.071,37.373c-2.173,0-4.389,3.487-6.647,10.461c-0.753,2.33-1.129,4.545-1.129,6.647
		c0,2.386,0.582,3.665,1.747,3.835c1.179,0,2.173-0.767,2.983-2.301c0.81-1.534,1.705-3.821,2.685-6.861
		c1.108-3.452,1.662-6.392,1.662-8.821C62.371,38.36,61.937,37.373,61.071,37.373z M102.341,94.005
		c-1.747,4.19-4.219,7.617-7.414,10.28c-3.196,2.663-7.067,4.038-11.612,4.123c-3.225-0.043-5.675-1.016-7.351-2.919
		c-1.676-1.903-2.514-4.453-2.514-7.649c0-2.826,0.675-5.937,2.026-9.332c2.316-5.823,5.036-10.313,8.156-13.465
		c3.12-3.153,7.183-4.829,12.187-5.028c2.069,0,3.752,0.554,5.05,1.662c1.297,1.108,2.232,2.578,2.806,4.41
		c0.574,1.833,0.861,3.907,0.861,6.221C104.535,86.726,103.804,90.625,102.341,94.005z M93.112,90.255
		c0.812-2.429,1.218-4.843,1.218-7.244c0-2.698-0.641-4.126-1.922-4.282c-1.296,0-2.346,0.777-3.149,2.333
		c-0.805,1.556-1.825,4.123-3.064,7.702c-1.224,3.793-1.836,7.024-1.836,9.694c0,2.216,0.498,3.324,1.495,3.324
		C88.259,101.782,90.679,97.939,93.112,90.255z"/>
</g>
<g id="_x26_">
	<path d="M110.799,65.22c-0.564,4.598-0.729,7.339-2.697,13.295c-1.13,3.409-2.736,6.662-4.82,9.758l14.182,15.682H106.98
		l-8.587-9.545c-3.763,4.034-7.446,6.854-11.052,8.458c-3.606,1.604-7.214,2.408-10.821,2.408c-5.909,0-10.605-1.727-14.087-5.178
		c-3.482-3.451-4.88-7.976-4.193-13.572c0.447-3.642,1.685-7.586,5.146-11.718c2.341-2.701,5.859-5.134,9.024-6.861
		c-2.875-2.045-4.873-4.104-5.996-6.179c-1.124-2.073-1.491-4.688-1.104-7.841c0.453-3.683,2.298-7.213,5.762-10.142
		c3.052-2.621,7.999-4.602,13.69-4.602c4.914,0,8.739,1.243,11.474,3.729c2.734,2.486,3.868,5.632,3.4,9.438
		c-0.742,6.051-3.563,9.622-7.669,12.486c-1.833,1.278-4.141,2.372-6.922,3.281l13.916,15.426c1.152-2.44,1.836-5.317,2.219-8.011
		c0.535-3.377,0.727-5.556,1.309-10.313H110.799z M94.864,90.532L76.934,70.675c-2.458,1.122-4.257,2.68-5.838,4.517
		c-1.945,2.313-3.402,5.5-3.868,9.29c-0.509,4.147,0.294,7.493,2.411,10.035c2.117,2.543,5.405,3.813,9.865,3.813
		c2.642,0,5.342-0.646,8.1-1.938C90.362,95.099,92.781,93.146,94.864,90.532z M91.181,53.204c0.332-2.699-0.21-4.822-1.625-6.371
		c-1.415-1.548-3.373-2.322-5.872-2.322c-2.614,0-4.852,0.874-6.714,2.621s-2.948,3.885-3.258,6.413
		c-0.262,2.131,0.067,4.02,0.987,5.667c0.919,1.648,3.102,3.594,6.548,5.838c2.906-0.994,5.194-2.45,6.864-4.368
		C89.78,58.765,90.804,56.271,91.181,53.204z"/>
</g>
<g id="_x2A_">
	<path d="M108.924,66.158c0.57,2.04-0.678,4.151-2.727,4.688S92.064,64.05,92.064,64.05s0.468,11.529-1.038,13.06
		c-1.505,1.53-3.99,1.528-5.497,0s-1.103-13.06-1.103-13.06s-12.007,7.366-14.067,6.838s-3.336-2.638-2.77-4.688
		s13.924-8.81,13.924-8.81s-13.358-6.783-13.924-8.832s0.711-4.156,2.77-4.687s14.132,6.795,14.132,6.795S84.024,39.181,85.53,37.65
		s3.994-1.533,5.497,0S92,50.667,92,50.667s12.149-7.292,14.197-6.752s3.301,2.649,2.727,4.688s-13.881,8.725-13.881,8.725
		S108.354,64.118,108.924,66.158z"/>
</g>
<g id="_x28_">
	<path d="M79.84,56.527c2.784-6.818,6.69-13.11,11.718-18.877h13.758c-6.843,5.106-11.864,11.021-15.379,17.157
		c-4.779,8.342-6.773,17.092-6.773,24.774c0,8.912,2.154,16.666,6.015,23.567c3.838,6.862,9.364,12.882,16.138,18.363H91.559
		c-5.028-5.768-8.934-12.06-11.718-18.878c-2.784-6.817-4.176-14.502-4.176-23.053S77.057,63.345,79.84,56.527z"/>
</g>
<g id="_x29_">
	<path d="M100.316,79.581c0,8.551-1.393,16.235-4.176,23.053c-2.784,6.818-6.69,13.11-11.718,18.878H70.664
		c6.774-5.481,12.3-11.501,16.138-18.363c3.861-6.901,6.015-14.655,6.015-23.567c0-7.682-1.994-16.432-6.773-24.774
		c-3.515-6.136-8.537-12.051-15.38-17.157h13.758c5.028,5.768,8.934,12.06,11.718,18.877
		C98.924,63.345,100.316,71.03,100.316,79.581z"/>
</g>
<g id="_x2D_">
	<path d="M96.758,63.026c-0.725,0.838-1.532,2.305-2.421,4.399c-0.889,2.096-1.596,4.031-2.122,5.806
		c-2.573,0.725-6.014,1.705-10.321,2.94c-4.308,1.235-7.095,2.06-8.36,2.472c0.796-2.969,1.844-5.668,3.146-8.097
		c1.301-2.429,2.52-4.147,3.658-5.156c2.075-0.397,4.915-0.891,8.52-1.48C92.461,63.321,95.095,63.026,96.758,63.026z"/>
</g>
<g id="_x5F_">
	<path d="M132.356,94.688l-7.073,12.912c-4.908-0.975-11.283-2.6-16.576-2.706h-2.535c-5.1,0-10.707,0.33-16.821,0.991
		c-6.115,0.66-12.27,1.584-18.462,2.77s-12.155,2.603-17.887,4.25c-5.731,1.648-10.522,3.374-14.371,5.178l4.368-23.757
		c5-1.036,10.095-1.921,15.287-2.652c5.191-0.731,10.561-1.3,16.107-1.704c5.546-0.405,10.933-0.607,16.161-0.607
		c7.784,0,15.213,0.437,22.286,1.311C119.914,91.545,126.419,92.884,132.356,94.688z"/>
</g>
<g id="_x2B_">
	<path d="M91.332,63.754c0.712-5.046,1.361-9.738,1.365-10.823c-0.771-1.31-2.224-2.836-4.358-4.58
		c-2.133-1.744-4.581-3.291-7.341-4.642c0.138,1.133-1.136,14.261-1.794,20.784c-6.097,0.324-12.595,0.653-13.867,0.897
		c-1.138,1.009-2.357,2.728-3.658,5.156c-1.301,2.429-2.35,5.128-3.146,8.097c1.02-0.332,12.675-1.475,19.494-2.115
		c-0.621,7.02-1.028,13.16-0.877,15.014c1.641,0.858,3.404,1.924,5.291,3.199c1.885,1.274,3.169,2.348,3.853,3.22
		c0.319-1.632,3.403-22.229,3.441-22.543c7.654-0.784,14.556-1.645,16.48-2.187c0.527-1.775,1.234-3.71,2.123-5.806
		c0.889-2.095,1.695-3.562,2.42-4.399C109.349,63.026,97.217,63.442,91.332,63.754z"/>
</g>
<g id="_x3D_">
	<path d="M81.226,82.052c-1.534,0.469-3.984,1.226-7.351,2.27C70.509,85.365,67,86.474,63.35,87.646s-6.186,2.042-7.606,2.609
		c1.59-7.713,3.856-12.975,6.796-15.788c1.321-0.313,3.409-0.785,6.264-1.417c2.855-0.632,6.083-1.289,9.684-1.971
		c3.601-0.682,6.225-1.065,7.873-1.15c-1.15,1.463-2.18,3.352-3.089,5.667C82.362,77.912,81.68,80.063,81.226,82.052z
		 M83.569,64.688c-1.563,0.398-3.935,1.001-7.116,1.811c-3.182,0.81-6.765,1.733-10.749,2.77c-3.984,1.037-6.666,1.776-8.043,2.216
		c2.002-7.443,4.56-12.563,7.67-15.362c1.321-0.241,3.398-0.604,6.232-1.087c2.833-0.482,6.062-0.973,9.684-1.47
		s6.32-0.746,8.097-0.746c-1.18,1.421-2.284,3.253-3.313,5.497C85,60.562,84.18,62.685,83.569,64.688z"/>
</g>
<g id="_x5B_">
	<path d="M100.742,120.659H78.584V37.65h22.158v6.094H85.999v70.822h14.744V120.659z"/>
</g>
<g id="_x5D_">
	<path d="M97.845,120.659H75.686v-6.094H90.43V43.744H75.686V37.65h22.159V120.659z"/>
</g>
<g id="_x22_">
	<path d="M96.064,39.994c-2.784,2.188-5.049,4.336-6.796,6.445s-3.289,4.727-4.624,7.851c-0.966,2.273-1.634,4.283-2.003,6.03
		c-0.37,1.747-0.575,3.871-0.618,6.371l-9.95-1.747c0-3.04,0.152-5.667,0.458-7.883s0.934-4.588,1.886-7.116
		c1.392-3.736,2.954-6.825,4.688-9.269c1.733-2.443,4.162-4.971,7.287-7.585L96.064,39.994z M111.788,45.491
		c-1.321,0.994-2.511,1.893-3.568,2.695c-1.059,0.803-1.996,1.569-2.813,2.301c-0.817,0.732-1.619,1.587-2.408,2.567
		c-0.788,0.98-1.495,2.096-2.12,3.345c-1.008,1.975-1.729,3.768-2.162,5.38c-0.434,1.612-0.65,3.427-0.65,5.444
		c0,0.213,0.018,0.525,0.054,0.938s0.054,0.795,0.054,1.15l-10.313-2.876c0-2.897,0.238-5.362,0.714-7.393
		c0.476-2.031,1.346-4.339,2.61-6.925c1.477-3.011,3.022-5.433,4.634-7.265c1.612-1.833,3.788-3.686,6.53-5.561L111.788,45.491z"/>
</g>
<g id="_x3B_">
	<path d="M91.964,87.294c0.525,0.979,0.788,2.081,0.788,3.302c0,3.85-1.889,8.274-5.667,13.274c-1.932,2.585-4.378,5.387-7.34,8.405
		c-2.962,3.018-5.203,5.046-6.722,6.083c-0.597,0.411-1.059,0.617-1.385,0.617c-0.242,0-0.362-0.092-0.362-0.276
		c0-0.341,0.348-0.774,1.044-1.3c2.116-2.117,3.768-3.874,4.954-5.273s2.258-3.182,3.217-5.348s1.438-4.563,1.438-7.191
		c-1.563,1.108-3.132,1.662-4.708,1.662c-1.137,0-2.084-0.256-2.844-0.767c-0.76-0.512-1.211-1.101-1.353-1.769
		c0-2.188,0.61-4.371,1.832-6.552s2.912-3.952,5.071-5.316c2.4-1.448,4.694-2.173,6.882-2.173
		C89.28,84.673,90.998,85.547,91.964,87.294z M92.135,59.19c0.752,0.838,1.129,2.003,1.129,3.495c0,1.761-0.497,3.568-1.491,5.422
		c-0.995,1.854-2.301,3.271-3.92,4.25c-2.258,1.406-4.581,2.109-6.967,2.109c-2.102,0-3.764-0.554-4.985-1.662
		c-0.867-0.781-1.3-2.059-1.3-3.835c0-3.068,1.165-5.632,3.494-7.691c2.883-2.5,5.937-3.75,9.162-3.75
		C89.5,57.529,91.126,58.083,92.135,59.19z"/>
</g>
<g id="_x2C_">
	<path d="M92.071,90.788c-0.156,2.229-0.401,4.18-0.734,5.849s-0.788,3.271-1.362,4.805c-0.575,1.533-1.388,3.33-2.438,5.39
		c-1.703,3.268-3.442,5.92-5.216,7.958s-4.166,4.13-7.174,6.275l-9.687-5.859c2.356-1.818,4.272-3.739,5.748-5.764
		s2.789-4.492,3.938-7.404c1.519-3.92,2.278-7.705,2.278-11.355c0-1.094-0.036-1.961-0.106-2.6L92.071,90.788z"/>
</g>
<g id="_x2E_">
	<path d="M95.287,87.38c0.754,0.838,1.131,2.003,1.131,3.494c0,1.762-0.501,3.572-1.504,5.433c-1.002,1.861-2.3,3.274-3.893,4.24
		c-2.275,1.406-4.607,2.109-6.997,2.109c-2.104,0-3.769-0.554-4.992-1.662c-0.868-0.78-1.301-2.059-1.301-3.835
		c0-3.068,1.166-5.632,3.498-7.691c2.887-2.5,5.944-3.75,9.172-3.75C92.649,85.718,94.277,86.271,95.287,87.38z"/>
</g>
<g id="_x3C_">
	<path d="M112.503,100.673l-49.174-21.86v-5.284l49.174-21.86v7.67L73.726,76.171l38.777,16.832V100.673z"/>
</g>
<g id="_x3E_">
	<path d="M113.1,78.814l-49.175,21.86v-7.67l38.777-16.832L63.925,59.341v-7.67l49.175,21.86V78.814z"/>
</g>
<g id="_x2F_">
	<path d="M117.143,34.836c-1.576,1.917-3.377,4.418-5.4,7.5c-2.025,3.083-4.191,6.534-6.5,10.355
		c-2.308,3.821-4.225,7.056-5.752,9.705c-1.527,2.649-3.498,6.119-5.913,10.408c-3.565,6.378-6.793,13.125-9.684,20.241
		c-2.891,7.116-5.16,13.225-6.808,18.324l-11.526-3.303c1.222-3.864,2.745-8.423,4.57-13.679c1.825-5.256,3.668-10.345,5.529-15.266
		c1.861-4.922,3.38-8.662,4.56-11.218c0.795-1.705,2.084-4.655,3.867-8.853c1.782-4.197,3.586-8.427,5.412-12.688
		s3.43-7.901,4.815-10.919c1.385-3.018,2.446-5.11,3.185-6.275L117.143,34.836z"/>
</g>
<g id="_x3F_">
	<path d="M101.062,34.668c3.025,1.293,4.538,3.587,4.538,6.882c0,2.216-0.682,4.584-2.045,7.106s-3.153,4.755-5.369,6.701
		c-3.225,2.813-6.133,5.803-8.725,8.97c-2.592,3.168-4.308,5.611-5.146,7.33l-15.021,3.409c0.554-1.903,1.42-3.828,2.6-5.774
		c1.179-1.946,2.564-3.917,4.155-5.912c1.59-1.996,3.764-4.517,6.52-7.564c2.755-3.047,4.183-4.627,4.283-4.741
		c1.037-1.136,1.555-2.123,1.555-2.961c0-1.108-0.753-1.662-2.258-1.662c-1.023,0-2.188,0.377-3.494,1.129
		c-1.776,1.137-3.896,3.153-6.36,6.051c-2.465,2.897-4.215,5.333-5.252,7.308l-6.712-9.076c4.162-6.449,8.757-11.456,13.785-15.021
		c4.119-2.969,8.452-4.453,12.997-4.453C94.293,32.388,97.61,33.148,101.062,34.668z M82.738,95.753
		c-1.747,2.699-3.771,4.919-6.072,6.658c-2.301,1.74-4.694,2.632-7.18,2.674c-1.42-0.042-2.503-0.714-3.249-2.013
		c-0.746-1.3-1.119-2.951-1.119-4.954c0-3.537,0.874-6.534,2.621-8.991c1.591-2.103,3.551-3.967,5.88-5.593s4.73-2.439,7.202-2.439
		c1.335,0.085,2.354,0.76,3.058,2.023c0.703,1.265,1.055,2.855,1.055,4.773C84.933,90.874,84.201,93.495,82.738,95.753z"/>
</g>
<g id="_x5C_">
	<path d="M81.205,29.179c0.738,1.165,1.801,3.257,3.186,6.274c1.385,3.02,2.99,6.658,4.814,10.92
		c1.826,4.262,3.63,8.49,5.412,12.688c1.783,4.197,3.072,7.148,3.867,8.854c1.18,2.557,2.699,6.295,4.56,11.218
		c1.86,4.921,3.704,10.01,5.528,15.266c1.826,5.256,3.35,9.814,4.57,13.679l-11.525,3.303c-1.648-5.1-3.918-11.208-6.809-18.324
		c-2.89-7.116-6.117-13.862-9.684-20.24c-2.414-4.29-4.385-7.76-5.912-10.408c-1.527-2.649-3.444-5.885-5.752-9.705
		c-2.309-3.82-4.475-7.272-6.5-10.355c-2.023-3.082-3.824-5.582-5.4-7.5L81.205,29.179z"/>
</g>
</svg>
