<?xml version="1.0" encoding="iso-8859-1"?>
<!-- Generator: Adobe Illustrator 15.1.0, SVG Export Plug-In . SVG Version: 6.00 Build 0)  -->
<!DOCTYPE svg PUBLIC "-//W3C//DTD SVG 1.1//EN" "http://www.w3.org/Graphics/SVG/1.1/DTD/svg11.dtd">
<svg version="1.1"
	 id="svg2" xmlns:rdf="http://www.w3.org/1999/02/22-rdf-syntax-ns#" xmlns:svg="http://www.w3.org/2000/svg" xmlns:cc="http://creativecommons.org/ns#" xmlns:dc="http://purl.org/dc/elements/1.1/" xmlns:sodipodi="http://sodipodi.sourceforge.net/DTD/sodipodi-0.dtd" xmlns:inkscape="http://www.inkscape.org/namespaces/inkscape" inkscape:version="0.48.2 r9819" sodipodi:docname="cliptest.svg"
	 xmlns="http://www.w3.org/2000/svg" xmlns:xlink="http://www.w3.org/1999/xlink" x="0px" y="0px" width="744.094px"
	 height="1052.363px" viewBox="0 0 744.094 1052.363" enable-background="new 0 0 744.094 1052.363" xml:space="preserve">
<g>
	<defs>
		<path id="SVGID_1_" d="M281.721,281.185c16.925-6.341,28.756-6.314,40.406-6.061c6.232-3.926,13.977-6.845,24.244-8.082h119.198
			c30.065,14.043,56.385,31.836,71.721,60.609l2.02,208.092c-26.639,37.865-52.995,74.602-71.721,80.811
			c-23.543,18.107-52.904,32.058-85.862,43.438c-26.438-0.363-51.875,3.285-80.812-7.07c-30.223-27.646-38.625-45.615-52.023-67.176
			c-7.231-17.365-16.729-27.933-17.678-64.146c-6.503-31.051-12.451-62.902-7.071-111.118c3.892-61.386,12.466-66.582,20.203-81.821
			C254.625,310.657,263.69,291.438,281.721,281.185L281.721,281.185z"/>
	</defs>
	<clipPath id="SVGID_2_">
		<use xlink:href="#SVGID_1_"  overflow="visible"/>
	</clipPath>
	<g clip-path="url(#SVGID_2_)" enable-background="new    ">
		
			<image overflow="visible" width="473" height="473" id="image2993" xlink:href="Baby.jpg"  transform="matrix(1 0 0 1 126.9004 264.8613)">
		</image>
	</g>
</g>
</svg>
